<svg xmlns="http://www.w3.org/2000/svg" viewBox="0 0 1430.66 875.66" width="1398.66" height="843.66" style="background-color: rgb(255, 255, 255);"><defs><style>@import url('https://fonts.googleapis.com/css2?family=Amatic+SC:wght@400;700&amp;display=swap');
@import url('https://fonts.googleapis.com/css2?family=Indie+Flower&amp;display=swap');
@import url('https://fonts.googleapis.com/css2?family=Roboto:wght@400;700;900&amp;display=swap');
@import url('https://fonts.googleapis.com/css2?family=Roboto+Mono:wght@400;700&amp;display=swap');</style></defs><g id="2fdc0402-d250-4785-3c15-14a14b016966_svg" class="tl-centered-g" transform="translate(133.00, 449.99) rotate(0.00, 26.66, 24.34)"><path d="M39.33,0.01 Q34.70,1.04 29.83,2.25 T20.86,5.60 13.78,10.19 8.72,16.33 6.62,24.02 8.92,31.81 14.35,38.61 21.13,42.48 28.50,43.13 35.77,40.58 42.35,34.71 46.81,27.19 47.50,19.47 44.74,12.80 39.87,9.44 36.46,8.81 35.40,8.29 34.55,7.46 34.02,6.40 33.86,5.23 34.07,4.06 34.65,3.03 35.53,2.23 36.62,1.76 37.80,1.66 38.95,1.94 39.95,2.57 40.70,3.49 41.11,4.60 41.15,5.78 40.81,6.92 40.12,7.88 39.16,8.58 38.03,8.93 36.84,8.91 35.73,8.50 34.80,7.77 34.16,6.77 33.87,5.62 33.96,4.44 34.42,3.35 35.21,2.46 36.24,1.88 37.40,1.65 38.00,1.63 40.83,2.04 46.79,4.65 51.80,9.72 54.86,16.32 55.59,23.71 53.41,31.51 49.41,38.41 44.25,43.88 37.20,48.53 29.25,50.75 21.66,50.60 14.26,48.23 7.87,43.24 2.65,36.03 -0.13,26.70 0.74,17.75 4.54,11.04 10.81,5.75 19.39,1.70 29.42,-0.32 36.98,-0.35 Z" fill="#000000" opacity="1" pointer-events="all"/></g><g id="665340cc-f642-4d2b-076a-35e2f1317d79_svg" class="tl-centered-g" transform="translate(201.34, 449.99) rotate(0.00, 26.66, 24.34)"><path d="M39.33,0.01 Q34.70,1.04 29.83,2.25 T20.86,5.60 13.78,10.19 8.72,16.33 6.62,24.02 8.92,31.81 14.35,38.61 21.13,42.48 28.50,43.13 35.77,40.58 42.35,34.71 46.81,27.19 47.50,19.47 44.74,12.80 39.87,9.44 36.46,8.81 35.40,8.29 34.55,7.46 34.02,6.40 33.86,5.23 34.07,4.06 34.65,3.03 35.53,2.23 36.62,1.76 37.80,1.66 38.95,1.94 39.95,2.57 40.70,3.49 41.11,4.60 41.15,5.78 40.81,6.92 40.12,7.88 39.16,8.58 38.03,8.93 36.84,8.91 35.73,8.50 34.80,7.77 34.16,6.77 33.87,5.62 33.96,4.44 34.42,3.35 35.21,2.46 36.24,1.88 37.40,1.65 38.00,1.63 40.83,2.04 46.79,4.65 51.80,9.72 54.86,16.32 55.59,23.71 53.41,31.51 49.41,38.41 44.25,43.88 37.20,48.53 29.25,50.75 21.66,50.60 14.26,48.23 7.87,43.24 2.65,36.03 -0.13,26.70 0.74,17.75 4.54,11.04 10.81,5.75 19.39,1.70 29.42,-0.32 36.98,-0.35 Z" fill="#000000" opacity="1" pointer-events="all"/></g><g id="f8abd10d-dc5a-4008-3858-8f293a839a6b_svg" class="tl-centered-g" transform="translate(274.65, 449.99) rotate(0.00, 26.66, 24.34)"><path d="M39.33,0.01 Q34.70,1.04 29.83,2.25 T20.86,5.60 13.78,10.19 8.72,16.33 6.62,24.02 8.92,31.81 14.35,38.61 21.13,42.48 28.50,43.13 35.77,40.58 42.35,34.71 46.81,27.19 47.50,19.47 44.74,12.80 39.87,9.44 36.46,8.81 35.40,8.29 34.55,7.46 34.02,6.40 33.86,5.23 34.07,4.06 34.65,3.03 35.53,2.23 36.62,1.76 37.80,1.66 38.95,1.94 39.95,2.57 40.70,3.49 41.11,4.60 41.15,5.78 40.81,6.92 40.12,7.88 39.16,8.58 38.03,8.93 36.84,8.91 35.73,8.50 34.80,7.77 34.16,6.77 33.87,5.62 33.96,4.44 34.42,3.35 35.21,2.46 36.24,1.88 37.40,1.65 38.00,1.63 40.83,2.04 46.79,4.65 51.80,9.72 54.86,16.32 55.59,23.71 53.41,31.51 49.41,38.41 44.25,43.88 37.20,48.53 29.25,50.75 21.66,50.60 14.26,48.23 7.87,43.24 2.65,36.03 -0.13,26.70 0.74,17.75 4.54,11.04 10.81,5.75 19.39,1.70 29.42,-0.32 36.98,-0.35 Z" fill="#000000" opacity="1" pointer-events="all"/></g><g id="d17da41a-55a9-4dfd-1f32-4ce98a37b3a3_svg" class="tl-centered-g" transform="translate(348.66, 449.99) rotate(0.00, 26.66, 24.34)"><path d="M39.33,0.01 Q34.70,1.04 29.83,2.25 T20.86,5.60 13.78,10.19 8.72,16.33 6.62,24.02 8.92,31.81 14.35,38.61 21.13,42.48 28.50,43.13 35.77,40.58 42.35,34.71 46.81,27.19 47.50,19.47 44.74,12.80 39.87,9.44 36.46,8.81 35.40,8.29 34.55,7.46 34.02,6.40 33.86,5.23 34.07,4.06 34.65,3.03 35.53,2.23 36.62,1.76 37.80,1.66 38.95,1.94 39.95,2.57 40.70,3.49 41.11,4.60 41.15,5.78 40.81,6.92 40.12,7.88 39.16,8.58 38.03,8.93 36.84,8.91 35.73,8.50 34.80,7.77 34.16,6.77 33.87,5.62 33.96,4.44 34.42,3.35 35.21,2.46 36.24,1.88 37.40,1.65 38.00,1.63 40.83,2.04 46.79,4.65 51.80,9.72 54.86,16.32 55.59,23.71 53.41,31.51 49.41,38.41 44.25,43.88 37.20,48.53 29.25,50.75 21.66,50.60 14.26,48.23 7.87,43.24 2.65,36.03 -0.13,26.70 0.74,17.75 4.54,11.04 10.81,5.75 19.39,1.70 29.42,-0.32 36.98,-0.35 Z" fill="#000000" opacity="1" pointer-events="all"/></g><g id="d879e23d-0ce0-4808-24f9-a1427ad859ff_svg" class="tl-centered-g" transform="translate(16.00, 332.99) rotate(0.00, 26.66, 24.34)"><path d="M39.33,0.01 Q34.70,1.04 29.83,2.25 T20.86,5.60 13.78,10.19 8.72,16.33 6.62,24.02 8.92,31.81 14.35,38.61 21.13,42.48 28.50,43.13 35.77,40.58 42.35,34.71 46.81,27.19 47.50,19.47 44.74,12.80 39.87,9.44 36.46,8.81 35.40,8.29 34.55,7.46 34.02,6.40 33.86,5.23 34.07,4.06 34.65,3.03 35.53,2.23 36.62,1.76 37.80,1.66 38.95,1.94 39.95,2.57 40.70,3.49 41.11,4.60 41.15,5.78 40.81,6.92 40.12,7.88 39.16,8.58 38.03,8.93 36.84,8.91 35.73,8.50 34.80,7.77 34.16,6.77 33.87,5.62 33.96,4.44 34.42,3.35 35.21,2.46 36.24,1.88 37.40,1.65 38.00,1.63 40.83,2.04 46.79,4.65 51.80,9.72 54.86,16.32 55.59,23.71 53.41,31.51 49.41,38.41 44.25,43.88 37.20,48.53 29.25,50.75 21.66,50.60 14.26,48.23 7.87,43.24 2.65,36.03 -0.13,26.70 0.74,17.75 4.54,11.04 10.81,5.75 19.39,1.70 29.42,-0.32 36.98,-0.35 Z" fill="#000000" opacity="1" pointer-events="all"/></g><g id="b3a3b54e-38e7-434e-3ce4-7249f18a618f_svg" class="tl-centered-g" transform="translate(41.00, 382.66) rotate(0.00, 39.33, 38.34)"><path d="M0.01,-0.00 Q2.20,2.28 4.42,5.53 T8.88,12.54 13.27,20.34 17.73,28.84 21.64,36.34 24.79,42.49 28.76,49.53 33.43,56.14 39.71,61.24 47.80,65.39 56.35,68.74 64.88,71.24 72.44,72.00 76.56,71.90 77.76,72.12 78.82,72.70 79.64,73.60 80.13,74.71 80.24,75.91 79.96,77.09 79.31,78.12 78.38,78.89 77.24,79.32 76.03,79.36 74.87,79.02 73.88,78.32 73.16,77.34 72.80,76.19 72.82,74.98 73.22,73.84 73.97,72.88 74.99,72.22 76.16,71.92 77.37,72.00 78.49,72.47 79.40,73.27 80.00,74.32 80.24,75.51 80.09,76.71 79.57,77.80 78.72,78.67 77.64,79.22 77.05,79.40 73.47,79.66 66.37,79.44 59.21,77.83 52.27,75.47 44.68,72.44 36.38,68.35 29.42,62.97 23.98,55.86 20.01,48.72 16.43,40.79 12.45,31.34 8.95,22.45 5.64,14.20 2.30,6.64 0.33,1.55 Z" fill="#000000" opacity="1" pointer-events="all"/></g><g id="4bca1a74-f536-4ba8-07a6-d3be43efe584_svg" class="tl-centered-g" transform="translate(95.66, 441.33) rotate(0.00, 14.34, 12.66)"><path d="M3.35,-0.01 Q7.27,1.06 10.73,3.00 T17.20,6.92 23.15,11.62 28.17,17.70 28.61,24.09 22.54,27.26 13.97,27.64 6.74,28.28 3.07,28.64 1.94,28.36 0.95,27.74 0.22,26.83 -0.19,25.74 -0.22,24.57 0.12,23.46 0.79,22.51 1.74,21.82 2.85,21.48 4.02,21.50 5.11,21.90 6.02,22.63 6.66,23.61 6.94,24.74 6.85,25.90 6.39,26.98 5.62,27.85 4.60,28.42 3.46,28.65 2.30,28.49 1.26,27.98 0.43,27.16 -0.09,26.11 -0.25,24.96 -0.04,23.81 0.53,22.80 1.40,22.02 2.47,21.55 3.04,21.41 5.14,21.24 11.54,20.88 19.31,19.57 20.18,15.44 14.89,10.05 9.21,5.27 4.78,1.44 Z" fill="#000000" opacity="1" pointer-events="all"/></g><g id="b36f1f20-ed89-4e8d-10ea-cf7421635404_svg" class="tl-centered-g" transform="translate(462.67, 572.33) rotate(0.00, 26.66, 24.34)"><path d="M39.33,0.01 Q34.70,1.04 29.83,2.25 T20.86,5.60 13.78,10.19 8.72,16.33 6.62,24.02 8.92,31.81 14.35,38.61 21.13,42.48 28.50,43.13 35.77,40.58 42.35,34.71 46.81,27.19 47.50,19.47 44.74,12.80 39.87,9.44 36.46,8.81 35.40,8.29 34.55,7.46 34.02,6.40 33.86,5.23 34.07,4.06 34.65,3.03 35.53,2.23 36.62,1.76 37.80,1.66 38.95,1.94 39.95,2.57 40.70,3.49 41.11,4.60 41.15,5.78 40.81,6.92 40.12,7.88 39.16,8.58 38.03,8.93 36.84,8.91 35.73,8.50 34.80,7.77 34.16,6.77 33.87,5.62 33.96,4.44 34.42,3.35 35.21,2.46 36.24,1.88 37.40,1.65 38.00,1.63 40.83,2.04 46.79,4.65 51.80,9.72 54.86,16.32 55.59,23.71 53.41,31.51 49.41,38.41 44.25,43.88 37.20,48.53 29.25,50.75 21.66,50.60 14.26,48.23 7.87,43.24 2.65,36.03 -0.13,26.70 0.74,17.75 4.54,11.04 10.81,5.75 19.39,1.70 29.42,-0.32 36.98,-0.35 Z" fill="#000000" opacity="1" pointer-events="all"/></g><g id="ca347bcc-52a6-4f34-0753-b9a791e0c688_svg" class="tl-centered-g" transform="translate(420.33, 489.99) rotate(0.00, 27.66, 40.34)"><path d="M0.01,-0.01 Q2.27,0.57 5.21,2.43 T11.82,6.77 18.19,11.54 24.06,16.72 30.49,22.77 36.76,29.22 42.38,35.09 47.70,41.08 52.66,48.10 56.13,55.06 58.00,61.89 58.81,69.14 58.20,77.33 56.97,82.15 55.95,82.78 54.78,83.05 53.59,82.94 52.49,82.45 51.61,81.64 51.04,80.58 50.83,79.41 51.01,78.22 51.55,77.15 52.41,76.32 53.49,75.80 54.68,75.66 55.86,75.90 56.89,76.50 57.68,77.41 58.14,78.51 58.22,79.71 57.91,80.87 57.25,81.87 56.31,82.61 55.18,83.00 53.98,83.02 52.84,82.65 51.88,81.94 51.19,80.95 50.86,79.80 50.91,78.61 51.33,77.49 51.64,76.96 51.47,73.27 50.89,65.97 49.19,58.74 45.95,52.05 41.64,45.95 36.72,40.10 31.41,33.86 25.85,27.09 20.25,20.61 15.15,14.87 9.65,9.43 3.90,4.26 0.65,0.98 Z" fill="#000000" opacity="1" pointer-events="all"/></g><g id="a581fd45-404e-4f20-03b1-fd0b68ed2f66_svg" class="tl-centered-g" transform="translate(457.00, 556.66) rotate(0.00, 15.33, 8.34)"><path d="M0.00,6.66 Q2.23,5.89 5.94,7.10 T12.33,10.47 18.44,11.62 23.98,7.01 26.58,2.14 27.35,0.45 28.06,-0.26 28.96,-0.71 29.96,-0.84 30.94,-0.66 31.82,-0.16 32.49,0.59 32.89,1.51 32.97,2.51 32.72,3.49 32.18,4.34 31.40,4.97 30.46,5.31 29.45,5.34 28.49,5.04 27.67,4.46 27.09,3.64 26.79,2.68 26.82,1.67 27.17,0.73 27.80,-0.05 28.64,-0.59 29.62,-0.84 30.62,-0.75 31.54,-0.36 32.29,0.32 32.79,1.19 32.98,2.18 32.84,3.17 32.69,3.66 30.24,7.73 25.15,14.52 18.53,17.22 11.67,14.56 5.44,9.87 1.03,7.24 Z" fill="#000000" opacity="1" pointer-events="all"/></g><g text-align="left" text-anchor="start" fill="#000000" transform="translate(80.16, 397.66) rotate(0.00, 32.00, 19.00)"><text y="14" letter-spacing="0" font-size="28px" font-family="&quot;Amatic SC&quot;, cursive" text-align="start" alignment-baseline="central">equeue</text></g><g text-align="left" text-anchor="start" fill="#000000" transform="translate(487.50, 498.33) rotate(0.00, 36.50, 19.00)"><text y="14" letter-spacing="0" font-size="28px" font-family="&quot;Amatic SC&quot;, cursive" text-align="start" alignment-baseline="central">dequeue</text></g><g id="c3daefc2-ae2f-4c31-34d9-1e7d929c9ab6_svg" class="tl-centered-g" transform="translate(706.00, 417.99) rotate(0.00, 26.66, 24.34)"><path d="M39.33,0.01 Q34.70,1.04 29.83,2.25 T20.86,5.60 13.78,10.19 8.72,16.33 6.62,24.02 8.92,31.81 14.35,38.61 21.13,42.48 28.50,43.13 35.77,40.58 42.35,34.71 46.81,27.19 47.50,19.47 44.74,12.80 39.87,9.44 36.46,8.81 35.40,8.29 34.55,7.46 34.02,6.40 33.86,5.23 34.07,4.06 34.65,3.03 35.53,2.23 36.62,1.76 37.80,1.66 38.95,1.94 39.95,2.57 40.70,3.49 41.11,4.60 41.15,5.78 40.81,6.92 40.12,7.88 39.16,8.58 38.03,8.93 36.84,8.91 35.73,8.50 34.80,7.77 34.16,6.77 33.87,5.62 33.96,4.44 34.42,3.35 35.21,2.46 36.24,1.88 37.40,1.65 38.00,1.63 40.83,2.04 46.79,4.65 51.80,9.72 54.86,16.32 55.59,23.71 53.41,31.51 49.41,38.41 44.25,43.88 37.20,48.53 29.25,50.75 21.66,50.60 14.26,48.23 7.87,43.24 2.65,36.03 -0.13,26.70 0.74,17.75 4.54,11.04 10.81,5.75 19.39,1.70 29.42,-0.32 36.98,-0.35 Z" fill="#000000" opacity="1" pointer-events="all"/></g><g id="210d5178-cac8-4cf4-394e-0a85e5851789_svg" class="tl-centered-g" transform="translate(1040.00, 412.66) rotate(0.00, 26.66, 24.34)"><path d="M39.33,0.01 Q34.70,1.04 29.83,2.25 T20.86,5.60 13.78,10.19 8.72,16.33 6.62,24.02 8.92,31.81 14.35,38.61 21.13,42.48 28.50,43.13 35.77,40.58 42.35,34.71 46.81,27.19 47.50,19.47 44.74,12.80 39.87,9.44 36.46,8.81 35.40,8.29 34.55,7.46 34.02,6.40 33.86,5.23 34.07,4.06 34.65,3.03 35.53,2.23 36.62,1.76 37.80,1.66 38.95,1.94 39.95,2.57 40.70,3.49 41.11,4.60 41.15,5.78 40.81,6.92 40.12,7.88 39.16,8.58 38.03,8.93 36.84,8.91 35.73,8.50 34.80,7.77 34.16,6.77 33.87,5.62 33.96,4.44 34.42,3.35 35.21,2.46 36.24,1.88 37.40,1.65 38.00,1.63 40.83,2.04 46.79,4.65 51.80,9.72 54.86,16.32 55.59,23.71 53.41,31.51 49.41,38.41 44.25,43.88 37.20,48.53 29.25,50.75 21.66,50.60 14.26,48.23 7.87,43.24 2.65,36.03 -0.13,26.70 0.74,17.75 4.54,11.04 10.81,5.75 19.39,1.70 29.42,-0.32 36.98,-0.35 Z" fill="#000000" opacity="1" pointer-events="all"/></g><g id="9b0e74e2-29cb-4ccf-0040-bb4f36a99d32_svg" class="tl-centered-g" transform="translate(1361.34, 417.99) rotate(0.00, 26.66, 24.34)"><path d="M39.33,0.01 Q34.70,1.04 29.83,2.25 T20.86,5.60 13.78,10.19 8.72,16.33 6.62,24.02 8.92,31.81 14.35,38.61 21.13,42.48 28.50,43.13 35.77,40.58 42.35,34.71 46.81,27.19 47.50,19.47 44.74,12.80 39.87,9.44 36.46,8.81 35.40,8.29 34.55,7.46 34.02,6.40 33.86,5.23 34.07,4.06 34.65,3.03 35.53,2.23 36.62,1.76 37.80,1.66 38.95,1.94 39.95,2.57 40.70,3.49 41.11,4.60 41.15,5.78 40.81,6.92 40.12,7.88 39.16,8.58 38.03,8.93 36.84,8.91 35.73,8.50 34.80,7.77 34.16,6.77 33.87,5.62 33.96,4.44 34.42,3.35 35.21,2.46 36.24,1.88 37.40,1.65 38.00,1.63 40.83,2.04 46.79,4.65 51.80,9.72 54.86,16.32 55.59,23.71 53.41,31.51 49.41,38.41 44.25,43.88 37.20,48.53 29.25,50.75 21.66,50.60 14.26,48.23 7.87,43.24 2.65,36.03 -0.13,26.70 0.74,17.75 4.54,11.04 10.81,5.75 19.39,1.70 29.42,-0.32 36.98,-0.35 Z" fill="#000000" opacity="1" pointer-events="all"/></g><g id="cd71f821-dbe4-4b47-0557-847b14eab9ca_svg" class="tl-centered-g" transform="translate(1286.01, 421.00) rotate(0.00, 26.66, 24.34)"><path d="M39.33,0.01 Q34.70,1.04 29.83,2.25 T20.86,5.60 13.78,10.19 8.72,16.33 6.62,24.02 8.92,31.81 14.35,38.61 21.13,42.48 28.50,43.13 35.77,40.58 42.35,34.71 46.81,27.19 47.50,19.47 44.74,12.80 39.87,9.44 36.46,8.81 35.40,8.29 34.55,7.46 34.02,6.40 33.86,5.23 34.07,4.06 34.65,3.03 35.53,2.23 36.62,1.76 37.80,1.66 38.95,1.94 39.95,2.57 40.70,3.49 41.11,4.60 41.15,5.78 40.81,6.92 40.12,7.88 39.16,8.58 38.03,8.93 36.84,8.91 35.73,8.50 34.80,7.77 34.16,6.77 33.87,5.62 33.96,4.44 34.42,3.35 35.21,2.46 36.24,1.88 37.40,1.65 38.00,1.63 40.83,2.04 46.79,4.65 51.80,9.72 54.86,16.32 55.59,23.71 53.41,31.51 49.41,38.41 44.25,43.88 37.20,48.53 29.25,50.75 21.66,50.60 14.26,48.23 7.87,43.24 2.65,36.03 -0.13,26.70 0.74,17.75 4.54,11.04 10.81,5.75 19.39,1.70 29.42,-0.32 36.98,-0.35 Z" fill="#f20c0c" opacity="1" pointer-events="all"/></g><g id="10944640-c0f8-4d2f-266a-5fb8df5f97c4_svg" class="tl-centered-g" transform="translate(1206.00, 421.00) rotate(0.00, 26.66, 24.34)"><path d="M39.33,0.01 Q34.70,1.04 29.83,2.25 T20.86,5.60 13.78,10.19 8.72,16.33 6.62,24.02 8.92,31.81 14.35,38.61 21.13,42.48 28.50,43.13 35.77,40.58 42.35,34.71 46.81,27.19 47.50,19.47 44.74,12.80 39.87,9.44 36.46,8.81 35.40,8.29 34.55,7.46 34.02,6.40 33.86,5.23 34.07,4.06 34.65,3.03 35.53,2.23 36.62,1.76 37.80,1.66 38.95,1.94 39.95,2.57 40.70,3.49 41.11,4.60 41.15,5.78 40.81,6.92 40.12,7.88 39.16,8.58 38.03,8.93 36.84,8.91 35.73,8.50 34.80,7.77 34.16,6.77 33.87,5.62 33.96,4.44 34.42,3.35 35.21,2.46 36.24,1.88 37.40,1.65 38.00,1.63 40.83,2.04 46.79,4.65 51.80,9.72 54.86,16.32 55.59,23.71 53.41,31.51 49.41,38.41 44.25,43.88 37.20,48.53 29.25,50.75 21.66,50.60 14.26,48.23 7.87,43.24 2.65,36.03 -0.13,26.70 0.74,17.75 4.54,11.04 10.81,5.75 19.39,1.70 29.42,-0.32 36.98,-0.35 Z" fill="#000000" opacity="1" pointer-events="all"/></g><g id="b9fccca3-9dfd-45a1-3165-5aff4da94b77_svg" class="tl-centered-g" transform="translate(956.00, 412.66) rotate(0.00, 26.66, 24.34)"><path d="M39.33,0.01 Q34.70,1.04 29.83,2.25 T20.86,5.60 13.78,10.19 8.72,16.33 6.62,24.02 8.92,31.81 14.35,38.61 21.13,42.48 28.50,43.13 35.77,40.58 42.35,34.71 46.81,27.19 47.50,19.47 44.74,12.80 39.87,9.44 36.46,8.81 35.40,8.29 34.55,7.46 34.02,6.40 33.86,5.23 34.07,4.06 34.65,3.03 35.53,2.23 36.62,1.76 37.80,1.66 38.95,1.94 39.95,2.57 40.70,3.49 41.11,4.60 41.15,5.78 40.81,6.92 40.12,7.88 39.16,8.58 38.03,8.93 36.84,8.91 35.73,8.50 34.80,7.77 34.16,6.77 33.87,5.62 33.96,4.44 34.42,3.35 35.21,2.46 36.24,1.88 37.40,1.65 38.00,1.63 40.83,2.04 46.79,4.65 51.80,9.72 54.86,16.32 55.59,23.71 53.41,31.51 49.41,38.41 44.25,43.88 37.20,48.53 29.25,50.75 21.66,50.60 14.26,48.23 7.87,43.24 2.65,36.03 -0.13,26.70 0.74,17.75 4.54,11.04 10.81,5.75 19.39,1.70 29.42,-0.32 36.98,-0.35 Z" fill="#f1130b" opacity="1" pointer-events="all"/></g><g id="ad222e28-dc49-45ad-32a8-1e9edc339927_svg" class="tl-centered-g" transform="translate(589.34, 295.00) rotate(0.00, 26.66, 24.34)"><path d="M39.33,0.01 Q34.70,1.04 29.83,2.25 T20.86,5.60 13.78,10.19 8.72,16.33 6.62,24.02 8.92,31.81 14.35,38.61 21.13,42.48 28.50,43.13 35.77,40.58 42.35,34.71 46.81,27.19 47.50,19.47 44.74,12.80 39.87,9.44 36.46,8.81 35.40,8.29 34.55,7.46 34.02,6.40 33.86,5.23 34.07,4.06 34.65,3.03 35.53,2.23 36.62,1.76 37.80,1.66 38.95,1.94 39.95,2.57 40.70,3.49 41.11,4.60 41.15,5.78 40.81,6.92 40.12,7.88 39.16,8.58 38.03,8.93 36.84,8.91 35.73,8.50 34.80,7.77 34.16,6.77 33.87,5.62 33.96,4.44 34.42,3.35 35.21,2.46 36.24,1.88 37.40,1.65 38.00,1.63 40.83,2.04 46.79,4.65 51.80,9.72 54.86,16.32 55.59,23.71 53.41,31.51 49.41,38.41 44.25,43.88 37.20,48.53 29.25,50.75 21.66,50.60 14.26,48.23 7.87,43.24 2.65,36.03 -0.13,26.70 0.74,17.75 4.54,11.04 10.81,5.75 19.39,1.70 29.42,-0.32 36.98,-0.35 Z" fill="#f1130c" opacity="1" pointer-events="all"/></g><g id="4a027972-44e2-4fea-03f6-e87e78bc3137_svg" class="tl-centered-g" transform="translate(876.67, 295.00) rotate(0.00, 26.66, 24.34)"><path d="M39.33,0.01 Q34.70,1.04 29.83,2.25 T20.86,5.60 13.78,10.19 8.72,16.33 6.62,24.02 8.92,31.81 14.35,38.61 21.13,42.48 28.50,43.13 35.77,40.58 42.35,34.71 46.81,27.19 47.50,19.47 44.74,12.80 39.87,9.44 36.46,8.81 35.40,8.29 34.55,7.46 34.02,6.40 33.86,5.23 34.07,4.06 34.65,3.03 35.53,2.23 36.62,1.76 37.80,1.66 38.95,1.94 39.95,2.57 40.70,3.49 41.11,4.60 41.15,5.78 40.81,6.92 40.12,7.88 39.16,8.58 38.03,8.93 36.84,8.91 35.73,8.50 34.80,7.77 34.16,6.77 33.87,5.62 33.96,4.44 34.42,3.35 35.21,2.46 36.24,1.88 37.40,1.65 38.00,1.63 40.83,2.04 46.79,4.65 51.80,9.72 54.86,16.32 55.59,23.71 53.41,31.51 49.41,38.41 44.25,43.88 37.20,48.53 29.25,50.75 21.66,50.60 14.26,48.23 7.87,43.24 2.65,36.03 -0.13,26.70 0.74,17.75 4.54,11.04 10.81,5.75 19.39,1.70 29.42,-0.32 36.98,-0.35 Z" fill="#0a06f4" opacity="1" pointer-events="all"/></g><g id="3be46100-42d3-4b5b-1be4-067f60bc8d33_svg" class="tl-centered-g" transform="translate(793.00, 702.82) rotate(0.00, 26.66, 24.34)"><path d="M39.33,0.01 Q34.70,1.04 29.83,2.25 T20.86,5.60 13.78,10.19 8.72,16.33 6.62,24.02 8.92,31.81 14.35,38.61 21.13,42.48 28.50,43.13 35.77,40.58 42.35,34.71 46.81,27.19 47.50,19.47 44.74,12.80 39.87,9.44 36.46,8.81 35.40,8.29 34.55,7.46 34.02,6.40 33.86,5.23 34.07,4.06 34.65,3.03 35.53,2.23 36.62,1.76 37.80,1.66 38.95,1.94 39.95,2.57 40.70,3.49 41.11,4.60 41.15,5.78 40.81,6.92 40.12,7.88 39.16,8.58 38.03,8.93 36.84,8.91 35.73,8.50 34.80,7.77 34.16,6.77 33.87,5.62 33.96,4.44 34.42,3.35 35.21,2.46 36.24,1.88 37.40,1.65 38.00,1.63 40.83,2.04 46.79,4.65 51.80,9.72 54.86,16.32 55.59,23.71 53.41,31.51 49.41,38.41 44.25,43.88 37.20,48.53 29.25,50.75 21.66,50.60 14.26,48.23 7.87,43.24 2.65,36.03 -0.13,26.70 0.74,17.75 4.54,11.04 10.81,5.75 19.39,1.70 29.42,-0.32 36.98,-0.35 Z" fill="#000000" opacity="1" pointer-events="all"/></g><g id="b7c09c5e-2ba3-4087-35e3-2afccd1254b0_svg" class="tl-centered-g" transform="translate(717.67, 705.83) rotate(0.00, 26.66, 24.34)"><path d="M39.33,0.01 Q34.70,1.04 29.83,2.25 T20.86,5.60 13.78,10.19 8.72,16.33 6.62,24.02 8.92,31.81 14.35,38.61 21.13,42.48 28.50,43.13 35.77,40.58 42.35,34.71 46.81,27.19 47.50,19.47 44.74,12.80 39.87,9.44 36.46,8.81 35.40,8.29 34.55,7.46 34.02,6.40 33.86,5.23 34.07,4.06 34.65,3.03 35.53,2.23 36.62,1.76 37.80,1.66 38.95,1.94 39.95,2.57 40.70,3.49 41.11,4.60 41.15,5.78 40.81,6.92 40.12,7.88 39.16,8.58 38.03,8.93 36.84,8.91 35.73,8.50 34.80,7.77 34.16,6.77 33.87,5.62 33.96,4.44 34.42,3.35 35.21,2.46 36.24,1.88 37.40,1.65 38.00,1.63 40.83,2.04 46.79,4.65 51.80,9.72 54.86,16.32 55.59,23.71 53.41,31.51 49.41,38.41 44.25,43.88 37.20,48.53 29.25,50.75 21.66,50.60 14.26,48.23 7.87,43.24 2.65,36.03 -0.13,26.70 0.74,17.75 4.54,11.04 10.81,5.75 19.39,1.70 29.42,-0.32 36.98,-0.35 Z" fill="#ef0a0a" opacity="1" pointer-events="all"/></g><g id="2e481913-641f-4ecf-16c2-9d9e0d41dcdb_svg" class="tl-centered-g" transform="translate(637.66, 705.83) rotate(0.00, 26.66, 24.34)"><path d="M39.33,0.01 Q34.70,1.04 29.83,2.25 T20.86,5.60 13.78,10.19 8.72,16.33 6.62,24.02 8.92,31.81 14.35,38.61 21.13,42.48 28.50,43.13 35.77,40.58 42.35,34.71 46.81,27.19 47.50,19.47 44.74,12.80 39.87,9.44 36.46,8.81 35.40,8.29 34.55,7.46 34.02,6.40 33.86,5.23 34.07,4.06 34.65,3.03 35.53,2.23 36.62,1.76 37.80,1.66 38.95,1.94 39.95,2.57 40.70,3.49 41.11,4.60 41.15,5.78 40.81,6.92 40.12,7.88 39.16,8.58 38.03,8.93 36.84,8.91 35.73,8.50 34.80,7.77 34.16,6.77 33.87,5.62 33.96,4.44 34.42,3.35 35.21,2.46 36.24,1.88 37.40,1.65 38.00,1.63 40.83,2.04 46.79,4.65 51.80,9.72 54.86,16.32 55.59,23.71 53.41,31.51 49.41,38.41 44.25,43.88 37.20,48.53 29.25,50.75 21.66,50.60 14.26,48.23 7.87,43.24 2.65,36.03 -0.13,26.70 0.74,17.75 4.54,11.04 10.81,5.75 19.39,1.70 29.42,-0.32 36.98,-0.35 Z" fill="#0a43f0" opacity="1" pointer-events="all"/></g><g id="8ec554ec-e53f-4970-3f16-56294b76ee85_svg" class="tl-centered-g" transform="translate(1023.66, 702.82) rotate(0.00, 26.66, 24.34)"><path d="M39.33,0.01 Q34.70,1.04 29.83,2.25 T20.86,5.60 13.78,10.19 8.72,16.33 6.62,24.02 8.92,31.81 14.35,38.61 21.13,42.48 28.50,43.13 35.77,40.58 42.35,34.71 46.81,27.19 47.50,19.47 44.74,12.80 39.87,9.44 36.46,8.81 35.40,8.29 34.55,7.46 34.02,6.40 33.86,5.23 34.07,4.06 34.65,3.03 35.53,2.23 36.62,1.76 37.80,1.66 38.95,1.94 39.95,2.57 40.70,3.49 41.11,4.60 41.15,5.78 40.81,6.92 40.12,7.88 39.16,8.58 38.03,8.93 36.84,8.91 35.73,8.50 34.80,7.77 34.16,6.77 33.87,5.62 33.96,4.44 34.42,3.35 35.21,2.46 36.24,1.88 37.40,1.65 38.00,1.63 40.83,2.04 46.79,4.65 51.80,9.72 54.86,16.32 55.59,23.71 53.41,31.51 49.41,38.41 44.25,43.88 37.20,48.53 29.25,50.75 21.66,50.60 14.26,48.23 7.87,43.24 2.65,36.03 -0.13,26.70 0.74,17.75 4.54,11.04 10.81,5.75 19.39,1.70 29.42,-0.32 36.98,-0.35 Z" fill="#fa0a0a" opacity="1" pointer-events="all"/></g><g id="5156cf8c-1fef-4e40-356c-3e4562eb5869_svg" class="tl-centered-g" transform="translate(943.65, 702.82) rotate(0.00, 26.66, 24.34)"><path d="M39.33,0.01 Q34.70,1.04 29.83,2.25 T20.86,5.60 13.78,10.19 8.72,16.33 6.62,24.02 8.92,31.81 14.35,38.61 21.13,42.48 28.50,43.13 35.77,40.58 42.35,34.71 46.81,27.19 47.50,19.47 44.74,12.80 39.87,9.44 36.46,8.81 35.40,8.29 34.55,7.46 34.02,6.40 33.86,5.23 34.07,4.06 34.65,3.03 35.53,2.23 36.62,1.76 37.80,1.66 38.95,1.94 39.95,2.57 40.70,3.49 41.11,4.60 41.15,5.78 40.81,6.92 40.12,7.88 39.16,8.58 38.03,8.93 36.84,8.91 35.73,8.50 34.80,7.77 34.16,6.77 33.87,5.62 33.96,4.44 34.42,3.35 35.21,2.46 36.24,1.88 37.40,1.65 38.00,1.63 40.83,2.04 46.79,4.65 51.80,9.72 54.86,16.32 55.59,23.71 53.41,31.51 49.41,38.41 44.25,43.88 37.20,48.53 29.25,50.75 21.66,50.60 14.26,48.23 7.87,43.24 2.65,36.03 -0.13,26.70 0.74,17.75 4.54,11.04 10.81,5.75 19.39,1.70 29.42,-0.32 36.98,-0.35 Z" fill="#0c44eb" opacity="1" pointer-events="all"/></g><g id="7c2ffcd9-0936-4fe1-1823-8606f7426e79_svg" class="tl-centered-g" transform="translate(1143.34, 777.00) rotate(0.00, 26.66, 24.34)"><path d="M39.33,0.01 Q34.70,1.04 29.83,2.25 T20.86,5.60 13.78,10.19 8.72,16.33 6.62,24.02 8.92,31.81 14.35,38.61 21.13,42.48 28.50,43.13 35.77,40.58 42.35,34.71 46.81,27.19 47.50,19.47 44.74,12.80 39.87,9.44 36.46,8.81 35.40,8.29 34.55,7.46 34.02,6.40 33.86,5.23 34.07,4.06 34.65,3.03 35.53,2.23 36.62,1.76 37.80,1.66 38.95,1.94 39.95,2.57 40.70,3.49 41.11,4.60 41.15,5.78 40.81,6.92 40.12,7.88 39.16,8.58 38.03,8.93 36.84,8.91 35.73,8.50 34.80,7.77 34.16,6.77 33.87,5.62 33.96,4.44 34.42,3.35 35.21,2.46 36.24,1.88 37.40,1.65 38.00,1.63 40.83,2.04 46.79,4.65 51.80,9.72 54.86,16.32 55.59,23.71 53.41,31.51 49.41,38.41 44.25,43.88 37.20,48.53 29.25,50.75 21.66,50.60 14.26,48.23 7.87,43.24 2.65,36.03 -0.13,26.70 0.74,17.75 4.54,11.04 10.81,5.75 19.39,1.70 29.42,-0.32 36.98,-0.35 Z" fill="#000000" opacity="1" pointer-events="all"/></g><g id="9d49e21d-11b4-41e9-151a-318c1ea2777a_svg" class="tl-centered-g" transform="translate(1254.01, 702.82) rotate(0.00, 26.66, 24.34)"><path d="M39.33,0.01 Q34.70,1.04 29.83,2.25 T20.86,5.60 13.78,10.19 8.72,16.33 6.62,24.02 8.92,31.81 14.35,38.61 21.13,42.48 28.50,43.13 35.77,40.58 42.35,34.71 46.81,27.19 47.50,19.47 44.74,12.80 39.87,9.44 36.46,8.81 35.40,8.29 34.55,7.46 34.02,6.40 33.86,5.23 34.07,4.06 34.65,3.03 35.53,2.23 36.62,1.76 37.80,1.66 38.95,1.94 39.95,2.57 40.70,3.49 41.11,4.60 41.15,5.78 40.81,6.92 40.12,7.88 39.16,8.58 38.03,8.93 36.84,8.91 35.73,8.50 34.80,7.77 34.16,6.77 33.87,5.62 33.96,4.44 34.42,3.35 35.21,2.46 36.24,1.88 37.40,1.65 38.00,1.63 40.83,2.04 46.79,4.65 51.80,9.72 54.86,16.32 55.59,23.71 53.41,31.51 49.41,38.41 44.25,43.88 37.20,48.53 29.25,50.75 21.66,50.60 14.26,48.23 7.87,43.24 2.65,36.03 -0.13,26.70 0.74,17.75 4.54,11.04 10.81,5.75 19.39,1.70 29.42,-0.32 36.98,-0.35 Z" fill="#100ceb" opacity="1" pointer-events="all"/></g><g id="e5d83af6-0ce3-44d6-283b-dd15afd7385b_svg" class="tl-centered-g" transform="translate(1361.34, 810.99) rotate(0.00, 26.66, 24.34)"><path d="M39.33,0.01 Q34.70,1.04 29.83,2.25 T20.86,5.60 13.78,10.19 8.72,16.33 6.62,24.02 8.92,31.81 14.35,38.61 21.13,42.48 28.50,43.13 35.77,40.58 42.35,34.71 46.81,27.19 47.50,19.47 44.74,12.80 39.87,9.44 36.46,8.81 35.40,8.29 34.55,7.46 34.02,6.40 33.86,5.23 34.07,4.06 34.65,3.03 35.53,2.23 36.62,1.76 37.80,1.66 38.95,1.94 39.95,2.57 40.70,3.49 41.11,4.60 41.15,5.78 40.81,6.92 40.12,7.88 39.16,8.58 38.03,8.93 36.84,8.91 35.73,8.50 34.80,7.77 34.16,6.77 33.87,5.62 33.96,4.44 34.42,3.35 35.21,2.46 36.24,1.88 37.40,1.65 38.00,1.63 40.83,2.04 46.79,4.65 51.80,9.72 54.86,16.32 55.59,23.71 53.41,31.51 49.41,38.41 44.25,43.88 37.20,48.53 29.25,50.75 21.66,50.60 14.26,48.23 7.87,43.24 2.65,36.03 -0.13,26.70 0.74,17.75 4.54,11.04 10.81,5.75 19.39,1.70 29.42,-0.32 36.98,-0.35 Z" fill="#fa0a0a" opacity="1" pointer-events="all"/></g><g id="6dba82c7-442e-45a8-3af7-3d3cadaf86db_svg" class="tl-centered-g" transform="translate(622.33, 356.66) rotate(0.00, 30.34, 36.00)"><path d="M0.01,-0.00 Q2.83,3.11 5.57,6.43 T11.42,13.19 17.56,20.30 23.69,27.95 29.73,35.66 35.01,42.12 40.70,48.00 46.99,54.05 52.65,59.55 57.53,64.11 60.07,66.54 60.69,67.60 60.95,68.80 60.81,70.02 60.28,71.13 59.43,72.01 58.35,72.58 57.13,72.77 55.92,72.56 54.84,71.98 54.01,71.08 53.50,69.97 53.37,68.75 53.65,67.55 54.29,66.50 55.23,65.71 56.37,65.27 57.60,65.21 58.78,65.55 59.79,66.24 60.52,67.22 60.91,68.39 60.90,69.62 60.50,70.78 59.75,71.75 58.73,72.43 57.54,72.75 56.32,72.68 55.18,72.21 54.65,71.89 51.20,68.75 44.69,62.73 39.07,57.51 33.95,52.60 28.97,46.94 23.84,39.87 18.44,31.62 13.27,23.49 8.16,15.69 3.32,7.91 0.55,2.03 Z" fill="#000000" opacity="1" pointer-events="all"/></g><g id="e70bbd76-ae82-4e42-250f-acaed90dd03c_svg" class="tl-centered-g" transform="translate(665.66, 418.66) rotate(0.00, 9.67, 8.00)"><path d="M0.00,8.66 Q2.61,8.49 6.14,9.57 T13.18,11.97 16.66,9.60 16.58,4.19 16.60,2.02 16.89,1.18 17.44,0.47 18.18,-0.02 19.04,-0.25 19.93,-0.20 20.76,0.14 21.43,0.73 21.89,1.50 22.07,2.37 21.96,3.26 21.58,4.06 20.96,4.70 20.17,5.11 19.29,5.25 18.41,5.10 17.62,4.67 17.02,4.02 16.65,3.20 16.56,2.31 16.76,1.44 17.23,0.69 17.92,0.11 18.75,-0.21 19.64,-0.25 20.50,0.00 21.23,0.51 21.76,1.23 22.04,2.07 22.11,2.52 21.60,7.10 18.94,14.52 13.17,15.75 5.80,12.21 1.03,9.48 Z" fill="#000000" opacity="1" pointer-events="all"/></g><g id="0aa54ce8-e865-4679-37c9-bcc6580fc3d0_svg" class="tl-centered-g" transform="translate(897.66, 349.99) rotate(0.00, 21.67, 32.34)"><path d="M0.01,-0.00 Q2.40,3.23 4.35,6.48 T8.29,12.82 12.35,19.11 16.43,25.41 20.46,31.33 24.93,36.94 30.28,42.98 35.94,49.57 41.02,55.85 43.67,59.33 44.14,60.47 44.22,61.69 43.91,62.88 43.23,63.91 42.25,64.67 41.09,65.07 39.86,65.08 38.69,64.70 37.70,63.97 37.00,62.96 36.66,61.77 36.71,60.54 37.16,59.39 37.94,58.45 38.99,57.80 40.19,57.53 41.42,57.65 42.54,58.15 43.44,58.99 44.03,60.07 44.24,61.28 44.05,62.50 43.49,63.59 42.60,64.45 41.49,64.98 40.27,65.12 39.06,64.87 38.00,64.25 37.52,63.85 34.95,60.56 30.02,54.33 24.80,47.85 19.50,41.11 15.26,34.79 11.70,28.24 8.32,21.34 5.12,14.45 2.21,7.50 0.41,1.97 Z" fill="#000000" opacity="1" pointer-events="all"/></g><g id="26eb1b7a-1771-4902-16d5-3fef88797428_svg" class="tl-centered-g" transform="translate(921.00, 400.66) rotate(0.00, 13.33, 11.00)"><path d="M0.00,14.66 Q3.28,14.78 7.80,16.24 T15.78,17.78 21.42,14.98 23.55,7.29 23.58,1.98 23.92,1.04 24.53,0.25 25.37,-0.31 26.33,-0.56 27.33,-0.50 28.26,-0.11 29.01,0.54 29.52,1.41 29.72,2.39 29.60,3.38 29.17,4.28 28.47,5.00 27.58,5.46 26.59,5.61 25.61,5.43 24.73,4.96 24.05,4.22 23.64,3.31 23.54,2.31 23.77,1.34 24.30,0.49 25.07,-0.15 26.00,-0.51 27.00,-0.55 27.96,-0.27 28.78,0.30 29.38,1.10 29.69,2.05 29.76,2.55 29.68,4.12 29.29,9.29 27.52,16.34 22.68,21.08 15.21,21.53 6.97,18.52 1.41,15.52 Z" fill="#000000" opacity="1" pointer-events="all"/></g><g id="008c46b6-435d-4cf7-1863-a13012727621_svg" class="tl-centered-g" transform="translate(1087.00, 741.33) rotate(0.00, 22.66, 24.00)"><path d="M0.01,-0.01 Q3.79,1.05 7.45,3.48 T14.63,8.55 21.24,13.82 27.05,18.91 33.18,24.48 39.43,30.86 44.89,38.78 47.65,44.05 47.75,45.26 47.47,46.44 46.82,47.47 45.87,48.23 44.74,48.66 43.52,48.70 42.36,48.35 41.37,47.64 40.65,46.66 40.29,45.50 40.32,44.29 40.73,43.14 41.49,42.19 42.51,41.53 43.68,41.23 44.89,41.33 46.01,41.80 46.92,42.61 47.53,43.66 47.76,44.85 47.60,46.06 47.07,47.15 46.22,48.01 45.13,48.56 43.93,48.73 42.73,48.51 41.67,47.91 40.86,47.01 40.52,46.50 38.41,42.48 33.95,35.54 28.43,29.29 22.79,23.26 17.65,17.68 11.89,11.71 5.72,5.76 1.33,1.45 Z" fill="#000000" opacity="1" pointer-events="all"/></g><g id="f440a65f-f28a-456b-23f2-04e944dc2467_svg" class="tl-centered-g" transform="translate(1115.00, 773.99) rotate(0.00, 10.66, 9.67)"><path d="M0.00,13.33 Q3.11,13.09 6.69,13.91 T14.12,15.70 17.88,12.59 17.99,5.73 18.28,2.48 18.65,1.62 19.27,0.92 20.08,0.45 21.00,0.27 21.92,0.40 22.76,0.81 23.43,1.46 23.85,2.30 23.98,3.22 23.81,4.14 23.35,4.96 22.66,5.59 21.80,5.96 20.87,6.04 19.96,5.82 19.17,5.32 18.58,4.60 18.25,3.72 18.22,2.79 18.49,1.89 19.04,1.13 19.79,0.58 20.68,0.30 21.62,0.32 22.50,0.64 23.23,1.22 23.74,2.01 23.97,2.91 24.01,3.38 23.58,6.05 22.56,12.44 19.00,18.18 12.69,18.97 5.98,16.38 1.31,14.18 Z" fill="#000000" opacity="1" pointer-events="all"/></g><g id="de27ec1a-9f25-480a-3ac2-0d2986483b1e_svg" class="tl-centered-g" transform="translate(1305.66, 745.99) rotate(0.00, 27.34, 27.67)"><path d="M0.00,-0.01 Q4.21,1.38 8.61,3.46 T17.35,7.76 25.34,12.33 31.89,17.15 37.32,22.16 42.68,27.65 48.02,33.79 52.49,40.29 55.96,47.57 57.57,52.18 57.54,53.40 57.13,54.54 56.37,55.49 55.35,56.15 54.17,56.45 52.96,56.36 51.84,55.88 50.93,55.07 50.33,54.02 50.09,52.83 50.25,51.62 50.79,50.53 51.64,49.67 52.73,49.12 53.93,48.95 55.13,49.17 56.19,49.77 57.00,50.67 57.49,51.78 57.59,52.99 57.30,54.17 56.65,55.20 55.71,55.97 54.57,56.39 53.36,56.43 52.19,56.08 51.20,55.37 50.49,54.39 50.21,53.84 48.79,50.16 45.40,43.33 40.92,37.00 35.37,30.34 28.95,23.14 22.37,16.76 15.22,11.31 7.30,5.71 1.66,1.47 Z" fill="#000000" opacity="1" pointer-events="all"/></g><g id="6045a903-de59-49b9-03df-5adcda4891d3_svg" class="tl-centered-g" transform="translate(1347.66, 789.99) rotate(0.00, 10.00, 10.67)"><path d="M0.01,5.99 Q2.83,7.93 5.91,10.48 T11.84,15.10 15.58,13.65 16.61,6.56 16.87,2.51 17.23,1.60 17.87,0.85 18.71,0.34 19.66,0.13 20.64,0.24 21.53,0.65 22.24,1.33 22.70,2.19 22.86,3.16 22.70,4.13 22.24,5.00 21.53,5.67 20.64,6.08 19.66,6.19 18.71,5.98 17.87,5.47 17.23,4.72 16.87,3.81 16.82,2.83 17.08,1.89 17.63,1.08 18.41,0.48 19.34,0.17 20.32,0.17 21.25,0.48 22.03,1.08 22.58,1.89 22.84,2.83 22.90,3.33 22.18,8.19 20.11,16.38 15.30,19.89 9.34,17.67 4.16,12.19 0.73,7.55 Z" fill="#000000" opacity="1" pointer-events="all"/></g><g text-align="left" text-anchor="start" fill="#000000" transform="translate(669.50, 364.33) rotate(0.00, 38.50, 19.00)"><text y="14" letter-spacing="0" font-size="28px" font-family="&quot;Amatic SC&quot;, cursive" text-align="start" alignment-baseline="central">enqueue</text></g><g text-align="left" text-anchor="start" fill="#000000" transform="translate(954.83, 354.99) rotate(0.00, 32.00, 19.00)"><text y="14" letter-spacing="0" font-size="28px" font-family="&quot;Amatic SC&quot;, cursive" text-align="start" alignment-baseline="central">equeue</text></g><g text-align="left" text-anchor="start" fill="#000000" transform="translate(1002.83, 771.66) rotate(0.00, 36.50, 19.00)"><text y="14" letter-spacing="0" font-size="28px" font-family="&quot;Amatic SC&quot;, cursive" text-align="start" alignment-baseline="central">dequeue</text></g><g text-align="left" text-anchor="start" fill="#000000" transform="translate(1276.16, 779.66) rotate(0.00, 36.50, 19.00)"><text y="14" letter-spacing="0" font-size="28px" font-family="&quot;Amatic SC&quot;, cursive" text-align="start" alignment-baseline="central">dequeue</text></g><g transform="translate(55.16, 16.00) rotate(0.00, 85.00, 50.00)"><rect width="170" height="100" fill="#000000" rx="20" ry="20"/><g text-align="center" text-anchor="middle" fill="#FFFFFF" transform="translate(20, 39)"><text y="11" letter-spacing="0" font-size="22px" font-family="&quot;Amatic SC&quot;, cursive" text-align="center" alignment-baseline="central" x="65">queue</text></g></g><g text-align="left" text-anchor="start" fill="rgba(0, 0, 0, .2)" transform="translate(692.3349999999999, 849.66)"><text y="5" letter-spacing="0" font-size="10px" font-family="&quot;Amatic SC&quot;, cursive" text-align="start" alignment-baseline="central">okso.app</text></g></svg>