<svg xmlns="http://www.w3.org/2000/svg" viewBox="0 0 1740 776.66" width="1708" height="744.66" style="background-color: rgb(255, 255, 255);"><defs><style>@import url('https://fonts.googleapis.com/css2?family=Amatic+SC:wght@400;700&amp;display=swap');
@import url('https://fonts.googleapis.com/css2?family=Indie+Flower&amp;display=swap');
@import url('https://fonts.googleapis.com/css2?family=Roboto:wght@400;700;900&amp;display=swap');
@import url('https://fonts.googleapis.com/css2?family=Roboto+Mono:wght@400;700&amp;display=swap');</style></defs><g id="33b8f205-85b1-4df3-324d-5e2a4c4edf68_svg" class="tl-centered-g" transform="translate(172.16, 315.49) rotate(0.00, 37.67, 42.00)"><path d="M17.35,0.01 Q15.85,2.02 13.42,5.14 T9.04,13.08 6.25,21.72 5.04,29.80 5.07,38.80 7.34,48.36 12.93,57.86 21.55,66.27 31.78,70.66 43.35,67.82 52.29,61.67 57.05,56.15 61.14,47.32 62.68,35.99 60.12,26.52 54.82,19.77 47.78,15.57 40.44,12.82 33.42,10.50 26.24,8.81 18.80,9.00 14.03,10.31 12.42,11.20 11.25,11.60 10.02,11.60 8.86,11.21 7.88,10.46 7.18,9.44 6.85,8.26 6.92,7.03 7.37,5.89 8.17,4.95 9.22,4.31 10.42,4.05 11.65,4.18 12.77,4.69 13.66,5.54 14.24,6.63 14.44,7.84 14.24,9.05 13.66,10.14 12.77,10.99 11.65,11.51 10.43,11.64 9.23,11.38 8.17,10.74 7.38,9.81 6.92,8.66 6.85,7.44 7.18,6.25 7.87,5.23 8.30,4.78 12.55,3.05 20.96,0.83 28.65,0.92 35.78,2.58 43.10,4.84 51.48,7.93 60.78,13.75 68.15,23.29 71.53,32.40 72.07,39.64 71.02,47.23 68.25,54.82 63.83,62.08 57.87,68.67 50.55,74.30 42.15,78.43 33.33,80.07 25.34,78.68 18.54,75.08 12.76,70.48 7.88,65.24 2.45,56.28 -1.47,44.39 -1.69,33.65 0.03,24.31 2.92,16.19 6.56,9.38 11.67,3.43 16.11,0.24 Z" fill="#000000" opacity="1" pointer-events="all"/></g><g id="75cdc002-6b36-46b2-1620-9ffe31b8366a_svg" class="tl-centered-g" transform="translate(170.83, 224.83) rotate(0.00, 34.34, 32.33)"><path d="M17.34,0.01 Q14.90,4.02 12.45,7.91 T8.39,15.61 6.11,22.81 6.42,30.83 9.58,39.11 15.31,46.15 23.13,51.94 31.96,55.72 40.19,56.39 47.86,52.54 54.65,45.15 58.92,36.35 60.13,28.22 58.03,21.32 52.34,15.61 43.52,11.64 34.39,9.04 26.26,6.97 18.76,5.67 13.88,6.15 11.95,7.14 10.73,7.41 9.48,7.28 8.35,6.75 7.44,5.89 6.85,4.78 6.65,3.55 6.85,2.31 7.44,1.20 8.34,0.34 9.48,-0.18 10.73,-0.32 11.95,-0.05 13.03,0.59 13.84,1.55 14.30,2.71 14.37,3.97 14.03,5.17 13.33,6.21 12.33,6.97 11.15,7.37 9.89,7.37 8.70,6.97 7.71,6.21 7.00,5.17 6.67,3.97 6.74,2.71 7.20,1.55 8.01,0.60 8.50,0.18 11.33,-1.12 18.07,-2.40 25.55,-1.64 32.61,-0.02 41.25,2.22 52.31,6.33 62.23,13.62 67.57,23.34 68.00,33.95 64.39,44.99 57.06,55.28 46.41,62.73 34.77,64.63 23.71,61.38 13.64,55.18 5.82,46.55 1.29,37.37 -0.15,29.04 0.97,21.26 4.53,13.56 10.07,6.06 15.31,1.21 Z" fill="#000000" opacity="1" pointer-events="all"/></g><g id="4f0d05f1-8cb0-46f5-0c7c-d5e7d53ec972_svg" class="tl-centered-g" transform="translate(140.83, 408.83) rotate(0.00, 45.00, 33.33)"><path d="M50.00,6.67 Q46.29,6.93 42.49,6.92 T34.90,7.11 27.15,8.16 19.78,10.90 13.82,15.59 9.72,22.35 7.99,30.24 9.65,38.83 14.31,45.92 22.89,50.93 32.28,54.64 39.37,56.65 48.97,58.50 59.59,58.85 67.90,56.48 74.65,52.49 79.96,46.34 83.16,38.82 83.92,31.72 82.08,23.73 76.98,15.62 69.47,9.92 61.41,6.97 52.84,6.26 43.75,6.77 38.74,7.11 37.47,6.80 36.38,6.11 35.56,5.10 35.10,3.88 35.06,2.58 35.44,1.34 36.19,0.28 37.24,-0.48 38.48,-0.87 39.78,-0.84 41.00,-0.40 42.02,0.41 42.72,1.50 43.04,2.76 42.94,4.06 42.43,5.25 41.57,6.22 40.44,6.87 39.17,7.12 37.88,6.95 36.72,6.38 35.79,5.46 35.21,4.30 35.03,3.02 35.27,1.74 35.90,0.61 36.87,-0.27 38.06,-0.78 38.69,-0.95 40.59,-1.12 47.92,-1.68 58.60,-1.46 68.06,0.60 75.67,4.09 81.90,8.94 87.11,15.47 90.74,23.49 92.00,32.20 91.03,41.01 87.99,49.47 82.81,56.51 75.45,62.09 65.73,66.28 54.02,67.61 44.24,66.66 36.92,64.98 29.39,62.68 21.89,59.86 12.92,54.78 4.97,47.44 1.03,39.01 0.42,29.00 3.51,18.77 9.62,10.66 17.72,5.66 26.63,3.54 35.00,3.59 42.73,4.64 48.27,5.98 Z" fill="#000000" opacity="1" pointer-events="all"/></g><g id="6327032b-1fa5-48e4-115a-28c8149a57a0_svg" class="tl-centered-g" transform="translate(57.50, 97.49) rotate(0.00, 31.00, 27.34)"><path d="M11.33,17.35 Q9.34,19.12 6.77,22.20 T3.75,29.06 4.47,36.98 8.83,43.65 15.42,47.14 22.53,48.91 29.70,49.44 36.94,47.50 44.16,42.69 49.83,35.70 52.92,28.13 53.16,20.97 50.47,14.50 43.92,9.36 35.18,6.40 27.24,5.32 21.21,7.71 16.63,14.18 12.92,20.69 10.93,23.72 9.95,24.42 8.79,24.76 7.59,24.72 6.46,24.30 5.53,23.53 4.89,22.51 4.60,21.34 4.71,20.14 5.20,19.04 6.01,18.15 7.06,17.56 8.25,17.34 9.44,17.52 10.52,18.06 11.36,18.92 11.89,20.00 12.04,21.20 11.81,22.38 11.20,23.43 10.30,24.22 9.19,24.69 7.99,24.78 6.82,24.48 5.81,23.82 5.06,22.88 4.65,21.74 4.63,20.53 5.00,19.39 5.27,18.84 6.14,17.39 9.08,12.21 13.10,5.18 18.50,-0.36 25.68,-2.61 33.83,-1.94 42.22,-0.01 50.10,3.50 56.41,8.81 60.18,16.05 61.31,25.45 58.90,35.56 52.94,44.88 44.19,52.34 34.22,56.34 25.40,56.87 18.07,55.18 10.56,52.36 3.48,46.94 -0.44,39.58 -0.88,32.49 1.10,25.38 5.66,19.59 9.99,17.34 Z" fill="#000000" opacity="1" pointer-events="all"/></g><g id="78e38c9d-27be-4453-2dd4-1547afdfd4b5_svg" class="tl-centered-g" transform="translate(297.50, 89.49) rotate(0.00, 22.66, 35.00)"><path d="M20.01,12.01 Q16.58,17.05 13.77,22.36 T9.34,33.14 6.90,43.66 6.50,52.25 8.97,58.62 15.40,59.87 23.32,56.72 29.70,51.18 34.38,42.53 37.36,33.12 38.67,24.56 37.54,17.49 33.65,11.15 27.20,7.07 19.16,6.26 14.25,10.07 13.48,14.29 13.22,15.49 12.60,16.54 11.67,17.33 10.54,17.79 9.32,17.86 8.14,17.54 7.13,16.86 6.38,15.89 5.98,14.74 5.98,13.52 6.36,12.36 7.10,11.38 8.10,10.69 9.28,10.36 10.50,10.42 11.64,10.86 12.57,11.65 13.21,12.69 13.48,13.88 13.35,15.10 12.84,16.21 12.01,17.10 10.93,17.68 9.73,17.88 8.52,17.69 7.44,17.13 6.59,16.24 6.07,15.14 5.91,14.54 5.60,9.79 7.61,2.35 13.30,-1.03 20.58,-1.79 28.50,-0.92 35.78,2.13 41.27,7.40 45.25,15.32 46.76,25.09 45.20,35.35 41.61,45.99 36.85,54.98 30.00,61.72 22.07,66.02 13.90,68.19 5.72,66.77 0.74,60.64 -0.80,52.18 0.45,42.09 4.41,31.08 10.88,20.32 17.40,13.60 Z" fill="#000000" opacity="1" pointer-events="all"/></g><g id="de6989f7-20c3-4b75-0ef5-679ba56ac287_svg" class="tl-centered-g" transform="translate(118.16, 132.16) rotate(0.00, 25.67, 41.34)"><path d="M0.00,0.66 Q3.25,0.52 7.60,1.70 T15.46,4.80 22.52,9.98 28.96,17.04 34.21,24.46 38.24,31.15 41.49,38.17 44.24,45.96 46.79,53.92 49.21,62.04 51.07,69.66 52.60,76.03 53.54,79.35 53.80,80.50 53.67,81.67 53.17,82.74 52.35,83.60 51.31,84.15 50.15,84.34 48.98,84.14 47.94,83.59 47.13,82.73 46.64,81.66 46.51,80.49 46.77,79.33 47.38,78.32 48.28,77.56 49.38,77.13 50.56,77.07 51.69,77.39 52.67,78.05 53.38,78.99 53.75,80.11 53.75,81.29 53.37,82.41 52.66,83.34 51.68,84.00 50.54,84.32 49.36,84.25 48.27,83.81 47.37,83.04 46.98,82.59 45.44,77.51 43.11,68.77 41.33,61.69 38.91,54.02 36.30,45.68 33.44,37.63 29.93,30.28 25.83,22.95 20.93,15.54 14.59,9.03 6.87,4.10 1.42,1.47 Z" fill="#000000" opacity="1" pointer-events="all"/></g><g id="be7bec8c-9839-49b4-0fb1-d50353c3a653_svg" class="tl-centered-g" transform="translate(153.50, 194.83) rotate(0.00, 14.00, 11.00)"><path d="M0.01,9.99 Q2.62,10.45 6.46,12.20 T13.29,15.68 18.71,14.26 22.67,6.73 24.38,1.88 24.90,0.99 25.69,0.31 26.64,-0.08 27.68,-0.14 28.68,0.13 29.54,0.70 30.17,1.52 30.51,2.50 30.52,3.53 30.19,4.52 29.57,5.34 28.72,5.93 27.73,6.22 26.69,6.17 25.73,5.79 24.93,5.13 24.39,4.25 24.16,3.24 24.27,2.21 24.69,1.26 25.40,0.51 26.31,0.02 27.33,-0.16 28.35,-0.00 29.27,0.48 29.99,1.22 30.43,2.16 30.55,3.19 30.53,3.71 29.52,6.60 26.83,12.70 23.13,18.97 17.66,21.60 11.52,18.99 5.25,14.43 0.84,11.03 Z" fill="#000000" opacity="1" pointer-events="all"/></g><g id="4af23f23-1891-4ed3-3149-612607d8fa4b_svg" class="tl-centered-g" transform="translate(227.50, 170.83) rotate(0.00, 38.33, 28.33)"><path d="M-0.01,56.65 Q2.72,53.75 6.53,50.09 T15.11,41.75 24.00,32.97 31.59,25.48 38.16,19.32 45.01,13.77 52.24,8.85 59.25,4.64 66.19,0.87 71.11,-1.54 73.23,-2.44 74.45,-2.64 75.67,-2.44 76.76,-1.87 77.61,-0.97 78.13,0.15 78.26,1.37 78.00,2.58 77.37,3.64 76.43,4.44 75.28,4.90 74.05,4.97 72.86,4.64 71.84,3.95 71.09,2.97 70.69,1.80 70.69,0.57 71.08,-0.60 71.83,-1.59 72.85,-2.28 74.04,-2.62 75.27,-2.55 76.42,-2.10 77.36,-1.30 78.00,-0.24 78.26,0.96 78.13,2.19 77.62,3.31 76.77,4.21 76.27,4.59 71.49,7.02 63.17,11.54 56.43,15.70 49.80,20.19 43.31,25.17 36.52,30.83 28.16,37.67 18.05,45.35 8.16,52.28 1.87,55.97 Z" fill="#000000" opacity="1" pointer-events="all"/></g><g id="27b2816a-1381-4ee4-2420-54b2986957bf_svg" class="tl-centered-g" transform="translate(283.50, 164.16) rotate(0.00, 15.66, 11.66)"><path d="M-0.00,2.66 Q2.07,1.10 6.23,0.36 T14.05,-0.64 21.34,-0.96 28.22,0.55 30.83,6.16 28.75,13.66 25.44,20.20 23.19,23.68 22.30,24.31 21.25,24.63 20.16,24.60 19.14,24.22 18.29,23.53 17.70,22.61 17.44,21.55 17.53,20.46 17.97,19.46 18.70,18.65 19.65,18.12 20.72,17.91 21.80,18.06 22.78,18.55 23.55,19.32 24.03,20.30 24.18,21.38 23.97,22.46 23.43,23.40 22.62,24.13 21.61,24.56 20.52,24.65 19.47,24.38 18.55,23.79 17.87,22.94 17.49,21.91 17.47,20.82 17.79,19.78 18.03,19.28 20.44,15.33 23.68,7.66 21.06,3.58 14.10,2.98 6.59,2.76 1.30,2.74 Z" fill="#000000" opacity="1" pointer-events="all"/></g><g text-align="left" text-anchor="start" fill="#000000" transform="translate(20.00, 49.83) rotate(0.00, 22.00, 19.00)"><text y="14" letter-spacing="0" font-size="28px" font-family="&quot;Amatic SC&quot;, cursive" text-align="start" alignment-baseline="central">push</text></g><g text-align="left" text-anchor="start" fill="#000000" transform="translate(324.00, 37.16) rotate(0.00, 17.50, 19.00)"><text y="14" letter-spacing="0" font-size="28px" font-family="&quot;Amatic SC&quot;, cursive" text-align="start" alignment-baseline="central">pop</text></g><g id="d232de9d-68c4-43a8-084f-812c5bfe321b_svg" class="tl-centered-g" transform="translate(965.49, 205.33) rotate(0.00, 22.50, 19.50)"><ellipse rx="22.5" ry="19.5" cx="22.5" cy="19.5" stroke="#000000" stroke-width="8" opacity="1" fill="none" pointer-events="all"/></g><g id="eddafdaf-65c3-49be-213c-4058ca10170b_svg" class="tl-centered-g" transform="translate(980.33, 709.66) rotate(0.00, 22.50, 19.50)"><ellipse rx="22.5" ry="19.5" cx="22.5" cy="19.5" stroke="#000000" stroke-width="8" opacity="1" fill="none" pointer-events="all"/></g><g id="e203c0d5-3b1f-48d6-17f8-ba5f3f379761_svg" class="tl-centered-g" transform="translate(1193.66, 257.16) rotate(0.00, 22.50, 19.50)"><ellipse rx="22.5" ry="19.5" cx="22.5" cy="19.5" stroke="#000000" stroke-width="8" opacity="1" fill="none" pointer-events="all"/></g><g id="13a57e7c-6250-439d-1452-5e2fb64fa409_svg" class="tl-centered-g" transform="translate(1435.00, 296.16) rotate(0.00, 22.50, 19.50)"><ellipse rx="22.5" ry="19.5" cx="22.5" cy="19.5" stroke="#000000" stroke-width="8" opacity="1" fill="none" pointer-events="all"/></g><g id="8ff4f8c7-b353-4304-304c-5c7e99174724_svg" class="tl-centered-g" transform="translate(1193.66, 670.66) rotate(0.00, 22.50, 19.50)"><ellipse rx="22.5" ry="19.5" cx="22.5" cy="19.5" stroke="#000000" stroke-width="8" opacity="1" fill="none" pointer-events="all"/></g><g id="f02d710b-105c-4769-3766-1d53f5c6846a_svg" class="tl-centered-g" transform="translate(1457.50, 631.66) rotate(0.00, 22.50, 19.50)"><ellipse rx="22.5" ry="19.5" cx="22.5" cy="19.5" stroke="#000000" stroke-width="8" opacity="1" fill="none" pointer-events="all"/></g><g id="bafef5a1-c3c8-446d-2554-d64321738aeb_svg" class="tl-centered-g" transform="translate(814.16, 139.00) rotate(0.00, 25.16, 25.16)"><ellipse rx="25.16" ry="25.16" cx="25.16" cy="25.16" stroke="#d34242" stroke-width="8" opacity="1" fill="none" pointer-events="all"/></g><g id="ae69b60d-29b1-49a1-1ab9-6e58ffc56b17_svg" class="tl-centered-g" transform="translate(1188.33, 187.49) rotate(0.00, 25.16, 25.16)"><ellipse rx="25.16" ry="25.16" cx="25.16" cy="25.16" stroke="#d34242" stroke-width="8" opacity="1" fill="none" pointer-events="all"/></g><g id="0ecd9c0e-9047-4cee-1ac8-9d5b4401424d_svg" class="tl-centered-g" transform="translate(1432.34, 219.17) rotate(0.00, 25.16, 25.16)"><ellipse rx="25.16" ry="25.16" cx="25.16" cy="25.16" stroke="#d34242" stroke-width="8" opacity="1" fill="none" pointer-events="all"/></g><g id="ab0f83e8-2e6c-4209-0ba6-7151535a5ecf_svg" class="tl-centered-g" transform="translate(876.16, 161.49) rotate(0.00, 41.00, 24.67)"><path d="M0.00,-0.01 Q3.79,0.81 8.46,2.60 T19.96,6.70 30.65,10.13 38.23,12.34 47.70,15.53 57.64,20.02 65.71,25.35 72.22,30.70 76.93,35.96 80.60,45.07 81.70,51.72 80.57,52.26 79.33,52.42 78.10,52.18 77.02,51.55 76.19,50.62 75.70,49.46 75.61,48.21 75.92,47.00 76.60,45.95 77.59,45.18 78.76,44.75 80.02,44.73 81.21,45.10 82.22,45.84 82.94,46.86 83.30,48.06 83.26,49.31 82.82,50.49 82.03,51.46 80.97,52.12 79.75,52.42 78.50,52.30 77.36,51.80 76.43,50.96 75.82,49.86 75.60,48.63 75.77,47.39 76.34,46.28 76.71,45.76 75.48,45.85 72.12,42.93 67.01,37.25 60.61,32.04 53.65,27.37 44.78,22.93 35.81,19.13 28.44,16.00 18.14,10.95 7.30,4.98 1.51,1.21 Z" fill="#d34242" opacity="1" pointer-events="all"/></g><g id="d0e3d1aa-b782-4660-0c0f-6e4748e151fb_svg" class="tl-centered-g" transform="translate(936.83, 194.16) rotate(0.00, 11.66, 10.34)"><path d="M0.00,12.66 Q2.23,11.94 6.39,13.24 T14.33,15.84 18.98,13.13 19.27,6.38 18.58,3.16 18.56,2.16 18.85,1.20 19.43,0.39 20.25,-0.19 21.20,-0.48 22.20,-0.45 23.14,-0.11 23.91,0.52 24.45,1.36 24.69,2.33 24.61,3.32 24.22,4.24 23.55,4.98 22.68,5.47 21.70,5.66 20.71,5.53 19.81,5.08 19.11,4.38 18.66,3.48 18.53,2.49 18.72,1.51 19.21,0.64 19.96,-0.02 20.87,-0.42 21.87,-0.50 22.84,-0.26 23.68,0.28 24.30,1.06 24.55,1.50 25.04,6.08 24.82,14.40 20.35,19.66 12.86,19.28 5.60,15.57 1.04,13.22 Z" fill="#d34242" opacity="1" pointer-events="all"/></g><g text-align="left" text-anchor="start" fill="#020101" transform="translate(825.33, 85.83) rotate(0.00, 22.00, 19.00)"><text y="14" letter-spacing="0" font-size="28px" font-family="&quot;Amatic SC&quot;, cursive" text-align="start" alignment-baseline="central">push</text></g><g id="ad6563f7-d226-4832-383c-4ad85d1c1fe3_svg" class="tl-centered-g" transform="translate(975.00, 631.66) rotate(0.00, 25.16, 25.16)"><ellipse rx="25.16" ry="25.16" cx="25.16" cy="25.16" stroke="#d34242" stroke-width="8" opacity="1" fill="none" pointer-events="all"/></g><g id="036305c5-310e-44a5-1088-5985a49f5c46_svg" class="tl-centered-g" transform="translate(973.66, 546.83) rotate(0.00, 25.84, 29.16)"><ellipse rx="25.83" ry="29.16" cx="25.83" cy="29.16" stroke="#09e83a" stroke-width="8" opacity="1" fill="none" pointer-events="all"/></g><g id="01431675-f7be-4137-0ac2-86e741b43d15_svg" class="tl-centered-g" transform="translate(1065.66, 81.83) rotate(0.00, 25.84, 29.16)"><ellipse rx="25.83" ry="29.16" cx="25.83" cy="29.16" stroke="#09e83a" stroke-width="8" opacity="1" fill="none" pointer-events="all"/></g><g id="96eb07dd-cf43-41a5-32f5-98ff64e2dc61_svg" class="tl-centered-g" transform="translate(1432.34, 129.16) rotate(0.00, 25.84, 29.16)"><ellipse rx="25.83" ry="29.16" cx="25.83" cy="29.16" stroke="#09e83a" stroke-width="8" opacity="1" fill="none" pointer-events="all"/></g><g id="442740bf-0ab8-4ef8-0463-fc7a259d8003_svg" class="tl-centered-g" transform="translate(1188.33, 589.34) rotate(0.00, 25.16, 25.16)"><ellipse rx="25.16" ry="25.16" cx="25.16" cy="25.16" stroke="#d34242" stroke-width="8" opacity="1" fill="none" pointer-events="all"/></g><g id="77c4b89d-8a45-4148-2b59-8eed2cfb0483_svg" class="tl-centered-g" transform="translate(1130.16, 132.16) rotate(0.00, 19.34, 25.34)"><path d="M0.01,-0.01 Q3.03,1.31 6.87,4.10 T14.45,10.05 21.62,16.63 27.55,23.05 32.18,28.85 36.24,35.10 39.81,42.97 41.54,47.97 41.55,49.15 41.19,50.27 40.48,51.22 39.51,51.89 38.38,52.22 37.20,52.16 36.10,51.74 35.19,50.99 34.58,49.98 34.31,48.83 34.43,47.66 34.91,46.58 35.71,45.72 36.75,45.15 37.91,44.95 39.08,45.13 40.12,45.67 40.94,46.52 41.45,47.59 41.59,48.76 41.35,49.91 40.75,50.93 39.86,51.70 38.77,52.15 37.59,52.22 36.45,51.92 35.47,51.27 34.74,50.34 34.46,49.81 33.21,46.03 30.37,38.93 26.84,32.66 22.81,26.69 17.78,20.00 11.75,12.87 5.32,6.02 0.99,1.32 Z" fill="#09e83a" opacity="1" pointer-events="all"/></g><g id="247a6e78-30c6-4718-1617-633ec04e31ef_svg" class="tl-centered-g" transform="translate(1157.50, 169.49) rotate(0.00, 9.33, 9.67)"><path d="M0.00,9.99 Q2.60,9.86 5.88,11.14 T12.24,14.17 15.49,12.31 15.67,5.62 15.78,2.09 16.09,1.22 16.67,0.49 17.45,-0.01 18.36,-0.24 19.28,-0.16 20.14,0.20 20.83,0.82 21.29,1.63 21.47,2.54 21.34,3.46 20.93,4.29 20.28,4.95 19.45,5.37 18.53,5.49 17.62,5.32 16.81,4.87 16.18,4.18 15.81,3.33 15.74,2.40 15.96,1.50 16.46,0.71 17.18,0.13 18.05,-0.19 18.98,-0.22 19.87,0.05 20.62,0.59 21.16,1.34 21.44,2.23 21.51,2.69 21.33,4.86 20.61,10.83 17.54,17.59 12.05,18.28 5.57,13.79 1.03,10.79 Z" fill="#09e83a" opacity="1" pointer-events="all"/></g><g id="19431150-eb34-4ca2-2e89-53382203dfea_svg" class="tl-centered-g" transform="translate(1151.50, 178.16) rotate(0.00, 7.00, 2.67)"><path d="M0.00,-0.01 Q2.31,-0.56 5.97,0.37 T11.40,2.17 13.42,3.19 13.86,3.56 14.16,4.06 14.28,4.63 14.22,5.21 13.97,5.74 13.57,6.16 13.06,6.43 12.48,6.52 11.91,6.42 11.40,6.15 11.00,5.73 10.76,5.20 10.70,4.62 10.82,4.05 11.12,3.55 11.57,3.18 12.11,2.97 12.69,2.94 13.25,3.09 13.73,3.42 14.08,3.89 14.26,4.44 14.26,5.02 14.07,5.57 13.72,6.03 13.24,6.36 12.68,6.51 12.10,6.48 11.81,6.41 10.45,5.42 5.54,2.86 1.00,0.64 Z" fill="#09e83a" opacity="1" pointer-events="all"/></g><g id="3c54c68f-1de3-4218-1cb3-111898c26d8e_svg" class="tl-centered-g" transform="translate(1297.50, 35.00) rotate(0.00, 29.83, 29.84)"><ellipse rx="29.83" ry="29.83" cx="29.83" cy="29.83" stroke="#0962e8" stroke-width="8" opacity="1" fill="none" pointer-events="all"/></g><g id="50669caa-9799-40fc-2c2a-feea62b204a8_svg" class="tl-centered-g" transform="translate(1359.50, 88.16) rotate(0.00, 23.00, 27.34)"><path d="M0.01,-0.01 Q3.52,1.25 6.60,2.99 T13.64,7.10 21.42,12.33 28.10,17.17 33.85,21.32 39.65,26.42 44.46,32.65 47.10,39.54 48.41,47.14 49.03,51.76 48.94,52.95 48.47,54.06 47.68,54.96 46.64,55.55 45.46,55.79 44.27,55.63 43.20,55.10 42.34,54.26 41.80,53.19 41.63,52.00 41.85,50.82 42.44,49.78 43.33,48.97 44.42,48.49 45.62,48.39 46.78,48.67 47.80,49.31 48.56,50.24 48.98,51.36 49.02,52.56 48.67,53.71 47.98,54.69 47.01,55.39 45.86,55.75 44.66,55.73 43.53,55.32 42.60,54.57 41.94,53.57 41.70,53.01 41.01,48.22 39.53,39.87 36.52,33.47 30.78,27.30 24.51,21.63 18.31,15.98 11.44,9.90 5.31,4.92 1.29,1.35 Z" fill="#0962e8" opacity="1" pointer-events="all"/></g><g id="ef82fae1-a171-40f0-0377-3ea1da40b5d4_svg" class="tl-centered-g" transform="translate(1393.50, 130.83) rotate(0.00, 11.33, 9.00)"><path d="M0.00,9.32 Q2.90,9.49 6.33,11.05 T12.95,10.79 17.49,5.27 18.99,1.13 19.43,0.34 20.10,-0.27 20.92,-0.63 21.82,-0.71 22.70,-0.50 23.47,-0.02 24.04,0.68 24.36,1.53 24.39,2.43 24.13,3.30 23.61,4.04 22.88,4.57 22.02,4.84 21.11,4.82 20.26,4.52 19.55,3.96 19.06,3.20 18.84,2.32 18.90,1.42 19.25,0.59 19.85,-0.09 20.64,-0.54 21.52,-0.71 22.42,-0.60 23.23,-0.20 23.87,0.43 24.28,1.24 24.41,2.13 24.40,2.59 22.40,6.86 18.19,13.85 12.06,15.96 5.13,13.33 1.06,10.33 Z" fill="#0962e8" opacity="1" pointer-events="all"/></g><g id="71dc8a18-44ee-4d3e-32d4-d1a176f01a67_svg" class="tl-centered-g" transform="translate(1384.16, 138.16) rotate(0.00, 10.34, 4.00)"><path d="M0.00,-0.01 Q2.79,-0.24 6.65,0.88 T14.53,3.41 18.85,5.00 19.40,5.45 19.78,6.05 19.94,6.74 19.87,7.44 19.59,8.09 19.11,8.61 18.49,8.96 17.79,9.08 17.09,8.98 16.46,8.66 15.96,8.15 15.65,7.51 15.56,6.81 15.71,6.11 16.06,5.50 16.59,5.03 17.25,4.76 17.96,4.71 18.64,4.89 19.23,5.28 19.67,5.83 19.91,6.50 19.92,7.21 19.70,7.89 19.28,8.46 18.70,8.87 18.02,9.07 17.32,9.04 16.96,8.97 13.12,7.00 5.76,3.36 1.12,0.85 Z" fill="#0962e8" opacity="1" pointer-events="all"/></g><g id="d8ad8fb0-cd90-4c5d-2dfb-906eca7ee654_svg" class="tl-centered-g" transform="translate(846.33, 460.00) rotate(0.00, 29.83, 29.84)"><ellipse rx="29.83" ry="29.83" cx="29.83" cy="29.83" stroke="#0962e8" stroke-width="8" opacity="1" fill="none" pointer-events="all"/></g><g id="e2a30455-b7f5-4ca0-3db9-733df189d4e7_svg" class="tl-centered-g" transform="translate(1084.33, 468.00) rotate(0.00, 25.84, 29.16)"><ellipse rx="25.83" ry="29.16" cx="25.83" cy="29.16" stroke="#09e83a" stroke-width="8" opacity="1" fill="none" pointer-events="all"/></g><g id="4cf60e28-af08-4a61-2227-9339709efcd7_svg" class="tl-centered-g" transform="translate(1379.67, 539.01) rotate(0.00, 25.16, 25.16)"><ellipse rx="25.16" ry="25.16" cx="25.16" cy="25.16" stroke="#d34242" stroke-width="8" opacity="1" fill="none" pointer-events="all"/></g><g text-align="left" text-anchor="start" fill="#000000" transform="translate(1144.00, 97.16) rotate(0.00, 22.00, 19.00)"><text y="14" letter-spacing="0" font-size="28px" font-family="&quot;Amatic SC&quot;, cursive" text-align="start" alignment-baseline="central">push</text></g><g text-align="left" text-anchor="start" fill="#000000" transform="translate(1402.66, 73.83) rotate(0.00, 22.00, 19.00)"><text y="14" letter-spacing="0" font-size="28px" font-family="&quot;Amatic SC&quot;, cursive" text-align="start" alignment-baseline="central">push</text></g><g id="a0ebed2e-e9d4-44c6-07ed-dfa56f6dc8cf_svg" class="tl-centered-g" transform="translate(918.16, 514.16) rotate(0.00, 32.34, 11.00)"><path d="M64.66,22.01 Q61.41,20.80 58.39,18.91 T52.06,15.31 45.07,12.14 37.36,10.07 29.53,8.66 22.29,7.02 15.39,5.91 8.58,4.85 3.46,3.90 1.12,3.62 0.03,3.20 -0.87,2.45 -1.49,1.46 -1.75,0.31 -1.64,-0.85 -1.16,-1.92 -0.36,-2.78 0.67,-3.33 1.82,-3.54 2.98,-3.36 4.02,-2.82 4.83,-1.98 5.33,-0.92 5.47,0.24 5.23,1.39 4.64,2.39 3.76,3.16 2.67,3.61 1.50,3.68 0.37,3.38 -0.60,2.73 -1.32,1.81 -1.71,0.70 -1.72,-0.47 -1.35,-1.58 -0.66,-2.52 0.31,-3.19 1.43,-3.51 2.02,-3.58 4.03,-3.38 9.61,-2.33 16.77,-1.02 24.12,0.55 31.77,2.70 39.49,4.78 47.12,7.91 54.03,12.23 59.85,16.87 63.61,20.62 Z" fill="#000000" opacity="1" pointer-events="all"/></g><g id="a0e81586-b593-49a1-21d3-d7d944b9d57f_svg" class="tl-centered-g" transform="translate(916.16, 514.16) rotate(0.00, 3.33, 9.66)"><path d="M0.01,-0.00 Q1.49,2.09 2.81,5.33 T5.35,11.41 6.63,14.53 6.67,15.13 6.52,15.70 6.19,16.20 5.73,16.57 5.17,16.77 4.57,16.78 4.00,16.60 3.52,16.25 3.18,15.76 3.01,15.19 3.03,14.60 3.24,14.04 3.62,13.58 4.13,13.26 4.70,13.13 5.30,13.18 5.84,13.42 6.28,13.82 6.57,14.34 6.68,14.93 6.59,15.52 6.32,16.05 5.90,16.46 5.36,16.72 4.77,16.80 4.19,16.68 3.67,16.38 3.28,15.94 3.12,15.68 2.29,12.52 0.71,5.96 -0.03,1.29 Z" fill="#000000" opacity="1" pointer-events="all"/></g><g id="05d8d7f0-e5ee-4ab8-2e57-7ab0e306fd7c_svg" class="tl-centered-g" transform="translate(919.50, 493.49) rotate(0.00, 17.00, 8.67)"><path d="M-0.00,17.33 Q3.79,14.77 8.69,11.90 T17.80,6.39 22.39,3.60 23.20,3.46 24.00,3.57 24.73,3.94 25.31,4.52 25.66,5.25 25.77,6.06 25.61,6.87 25.20,7.57 24.59,8.11 23.84,8.43 23.02,8.49 22.23,8.29 21.55,7.84 21.04,7.20 20.76,6.44 20.75,5.62 20.99,4.84 21.48,4.18 22.14,3.71 22.92,3.48 23.74,3.50 24.50,3.79 25.14,4.31 25.57,5.00 25.76,5.79 25.69,6.61 25.36,7.35 24.81,7.96 24.49,8.21 19.82,10.29 9.81,14.34 2.23,16.84 Z" fill="#000000" opacity="1" pointer-events="all"/></g><g id="bfe6f050-57c9-4284-0246-658dde82ec63_svg" class="tl-centered-g" transform="translate(1128.16, 534.16) rotate(0.00, 23.67, 29.34)"><path d="M47.33,58.67 Q43.84,54.28 40.38,49.14 T33.74,39.25 27.90,30.77 22.24,23.60 16.08,16.68 10.23,10.08 4.91,5.86 1.70,4.49 0.63,3.78 -0.15,2.77 -0.57,1.56 -0.58,0.29 -0.19,-0.93 0.58,-1.95 1.63,-2.68 2.86,-3.04 4.14,-2.98 5.33,-2.52 6.31,-1.70 6.98,-0.61 7.27,0.64 7.14,1.91 6.61,3.08 5.74,4.01 4.62,4.62 3.36,4.84 2.09,4.65 0.96,4.06 0.07,3.14 -0.48,1.98 -0.63,0.71 -0.36,-0.54 0.29,-1.64 1.25,-2.48 2.44,-2.96 3.71,-3.04 4.36,-2.98 8.91,-0.71 16.19,4.84 21.90,11.79 27.79,19.42 33.04,27.53 37.90,36.87 42.93,47.72 46.40,56.02 Z" fill="#000000" opacity="1" pointer-events="all"/></g><g id="d55fa2e9-d980-479a-3e94-0d3eb6106dfb_svg" class="tl-centered-g" transform="translate(1124.83, 534.16) rotate(0.00, 1.67, 13.34)"><path d="M3.34,0.00 Q4.04,3.45 3.97,6.95 T3.30,13.86 2.62,20.27 2.47,23.62 2.19,24.31 1.70,24.88 1.06,25.26 0.33,25.41 -0.41,25.32 -1.09,25.00 -1.62,24.49 -1.97,23.82 -2.08,23.09 -1.95,22.35 -1.60,21.70 -1.05,21.19 -0.37,20.88 0.37,20.81 1.10,20.97 1.73,21.36 2.21,21.94 2.48,22.63 2.51,23.38 2.31,24.09 1.88,24.71 1.29,25.15 0.58,25.38 -0.17,25.38 -0.87,25.13 -1.46,24.68 -1.88,24.06 -2.07,23.34 -2.11,22.96 -1.79,20.67 -0.50,15.02 1.36,7.52 2.79,1.68 Z" fill="#000000" opacity="1" pointer-events="all"/></g><g id="817438c1-c107-41c0-20c2-6439be1a1200_svg" class="tl-centered-g" transform="translate(1130.83, 528.16) rotate(0.00, 13.00, 2.00)"><path d="M-0.00,3.99 Q4.13,2.21 8.11,1.29 T17.02,-0.66 22.33,-1.70 23.08,-1.59 23.76,-1.24 24.30,-0.70 24.63,-0.01 24.73,0.75 24.58,1.50 24.19,2.16 23.62,2.66 22.92,2.96 22.16,3.01 21.42,2.82 20.78,2.40 20.30,1.81 20.05,1.09 20.03,0.32 20.26,-0.41 20.72,-1.02 21.34,-1.46 22.07,-1.68 22.83,-1.65 23.55,-1.38 24.14,-0.90 24.54,-0.25 24.72,0.49 24.65,1.25 24.34,1.95 23.83,2.52 23.16,2.89 22.80,3.02 17.68,3.41 8.52,4.08 2.24,4.18 Z" fill="#000000" opacity="1" pointer-events="all"/></g><g id="11795387-c783-4d6b-0e13-43ff6c6b5b80_svg" class="tl-centered-g" transform="translate(1434.16, 586.83) rotate(0.00, 14.00, 18.66)"><path d="M27.99,37.33 Q25.57,32.97 23.50,28.76 T19.53,21.17 14.91,13.74 9.48,7.19 4.20,4.16 1.09,3.48 0.08,3.05 -0.75,2.30 -1.30,1.34 -1.51,0.25 -1.36,-0.85 -0.86,-1.84 -0.08,-2.63 0.91,-3.12 2.01,-3.27 3.10,-3.06 4.07,-2.52 4.81,-1.69 5.25,-0.67 5.34,0.43 5.07,1.51 4.47,2.45 3.61,3.14 2.57,3.52 1.46,3.55 0.40,3.23 -0.50,2.58 -1.15,1.68 -1.48,0.62 -1.45,-0.49 -1.06,-1.53 -0.37,-2.40 0.57,-2.99 1.64,-3.26 2.20,-3.31 5.56,-2.43 11.66,0.55 16.60,6.07 20.33,12.57 23.33,19.38 26.17,27.73 27.78,34.84 Z" fill="#000000" opacity="1" pointer-events="all"/></g><g id="c979f99c-ec66-4c18-035f-ff65ea7718f3_svg" class="tl-centered-g" transform="translate(1429.50, 586.83) rotate(0.00, 1.33, 10.00)"><path d="M2.67,0.00 Q3.32,4.80 3.11,8.36 T2.81,12.19 2.56,12.70 2.16,13.10 1.65,13.35 1.09,13.43 0.53,13.32 0.03,13.04 -0.35,12.62 -0.57,12.10 -0.62,11.53 -0.48,10.98 -0.17,10.50 0.27,10.14 0.80,9.95 1.37,9.93 1.91,10.10 2.38,10.43 2.71,10.89 2.87,11.44 2.86,12.00 2.66,12.54 2.31,12.98 1.83,13.29 1.28,13.42 0.71,13.38 0.19,13.15 -0.23,12.77 -0.51,12.28 -0.62,11.72 -0.63,11.43 0.15,7.98 1.79,2.26 Z" fill="#000000" opacity="1" pointer-events="all"/></g><g id="21a8fe38-3f74-4d6e-37d8-39c5e0b6ce30_svg" class="tl-centered-g" transform="translate(1434.16, 579.49) rotate(0.00, 20.67, 2.67)"><path d="M-0.00,5.33 Q5.76,3.40 9.50,2.55 T16.80,1.03 23.10,-0.19 26.28,-0.72 27.13,-0.55 27.88,-0.12 28.46,0.53 28.79,1.33 28.86,2.20 28.64,3.04 28.17,3.77 27.49,4.31 26.67,4.60 25.80,4.62 24.98,4.36 24.27,3.85 23.77,3.14 23.52,2.31 23.55,1.44 23.86,0.63 24.41,-0.05 25.14,-0.51 25.99,-0.71 26.85,-0.64 27.65,-0.29 28.29,0.30 28.71,1.05 28.87,1.91 28.75,2.77 28.35,3.54 27.74,4.15 26.95,4.53 26.53,4.66 23.69,4.83 17.28,5.09 9.89,5.32 3.04,5.41 Z" fill="#000000" opacity="1" pointer-events="all"/></g><g text-align="left" text-anchor="start" fill="#000000" transform="translate(939.33, 453.83) rotate(0.00, 17.50, 19.00)"><text y="14" letter-spacing="0" font-size="28px" font-family="&quot;Amatic SC&quot;, cursive" text-align="start" alignment-baseline="central">pop</text></g><g text-align="left" text-anchor="start" fill="#000000" transform="translate(1184.66, 490.49) rotate(0.00, 17.50, 19.00)"><text y="14" letter-spacing="0" font-size="28px" font-family="&quot;Amatic SC&quot;, cursive" text-align="start" alignment-baseline="central">pop</text></g><g text-align="left" text-anchor="start" fill="#000000" transform="translate(1488.66, 563.83) rotate(0.00, 17.50, 19.00)"><text y="14" letter-spacing="0" font-size="28px" font-family="&quot;Amatic SC&quot;, cursive" text-align="start" alignment-baseline="central">pop</text></g><g id="1bbd025d-9196-46d0-2e25-39d121a8678d_svg" class="tl-centered-g" transform="translate(1679.00, 651.16) rotate(0.00, 22.50, 19.50)"><ellipse rx="22.5" ry="19.5" cx="22.5" cy="19.5" stroke="#000000" stroke-width="8" opacity="1" fill="none" pointer-events="all"/></g><g id="b001e10d-8576-4c7b-3c71-96eec83fb941_svg" class="tl-centered-g" transform="translate(1634.00, 296.16) rotate(0.00, 22.50, 19.50)"><ellipse rx="22.5" ry="19.5" cx="22.5" cy="19.5" stroke="#000000" stroke-width="8" opacity="1" fill="none" pointer-events="all"/></g><g id="6759ac6e-0099-4a61-0558-b1bab9de47c2_svg" class="tl-centered-g" transform="translate(1634.00, 204.50) rotate(0.00, 25.16, 25.16)"><ellipse rx="25.16" ry="25.16" cx="25.16" cy="25.16" stroke="#d34242" stroke-width="8" opacity="1" fill="none" pointer-events="all"/></g><g id="c4951d5c-d4be-45fa-1000-6808857f7978_svg" class="tl-centered-g" transform="translate(1627.33, 117.49) rotate(0.00, 25.84, 29.16)"><ellipse rx="25.83" ry="29.16" cx="25.83" cy="29.16" stroke="#09e83a" stroke-width="8" opacity="1" fill="none" pointer-events="all"/></g><g id="c140ab8e-cc1b-4a75-0713-850a6470f372_svg" class="tl-centered-g" transform="translate(1623.34, 16.00) rotate(0.00, 29.83, 29.84)"><ellipse rx="29.83" ry="29.83" cx="29.83" cy="29.83" stroke="#0962e8" stroke-width="8" opacity="1" fill="none" pointer-events="all"/></g><g id="b63a18a5-a344-4ec7-1212-dab489574f68_svg" class="tl-centered-g" transform="translate(667.66, 721.66) rotate(0.00, 22.50, 19.50)"><ellipse rx="22.5" ry="19.5" cx="22.5" cy="19.5" stroke="#000000" stroke-width="8" opacity="1" fill="none" pointer-events="all"/></g><g id="b852e4e0-5a52-483e-1038-d4096df66f8e_svg" class="tl-centered-g" transform="translate(661.33, 639.83) rotate(0.00, 25.16, 25.16)"><ellipse rx="25.16" ry="25.16" cx="25.16" cy="25.16" stroke="#d34242" stroke-width="8" opacity="1" fill="none" pointer-events="all"/></g><g id="1348d89d-0ee7-4bfe-211b-4de71e74699f_svg" class="tl-centered-g" transform="translate(657.99, 557.67) rotate(0.00, 25.84, 29.16)"><ellipse rx="25.83" ry="29.16" cx="25.83" cy="29.16" stroke="#09e83a" stroke-width="8" opacity="1" fill="none" pointer-events="all"/></g><g id="02330012-f26b-4918-25f2-bcdddde3ac4e_svg" class="tl-centered-g" transform="translate(653.00, 463.66) rotate(0.00, 29.83, 29.84)"><ellipse rx="29.83" ry="29.83" cx="29.83" cy="29.83" stroke="#0962e8" stroke-width="8" opacity="1" fill="none" pointer-events="all"/></g><g text-align="left" text-anchor="start" fill="rgba(0, 0, 0, .2)" transform="translate(847, 750.66)"><text y="5" letter-spacing="0" font-size="10px" font-family="&quot;Amatic SC&quot;, cursive" text-align="start" alignment-baseline="central">okso.app</text></g></svg>