<svg xmlns="http://www.w3.org/2000/svg" viewBox="0 0 1509.34 1354.34" width="1477.34" height="1322.34" style="background-color: rgb(255, 255, 255);"><defs><style>@import url('https://fonts.googleapis.com/css2?family=Amatic+SC:wght@400;700&amp;display=swap');
@import url('https://fonts.googleapis.com/css2?family=Indie+Flower&amp;display=swap');
@import url('https://fonts.googleapis.com/css2?family=Roboto:wght@400;700;900&amp;display=swap');
@import url('https://fonts.googleapis.com/css2?family=Roboto+Mono:wght@400;700&amp;display=swap');</style></defs><g transform="translate(63.33, 16.00) rotate(0.00, 119.00, 50.00)"><rect width="238" height="100" fill="#000000" rx="20" ry="20"/><g text-align="center" text-anchor="middle" fill="#FFFFFF" transform="translate(20, 39)"><text y="11" letter-spacing="0" font-size="22px" font-family="&quot;Amatic SC&quot;, cursive" text-align="center" alignment-baseline="central" x="99">设计模式之间的关系</text></g></g><g transform="translate(581.67, 467.99) rotate(0.00, 68.00, 30.00)"><rect width="136" height="60" fill="#f701f5" rx="20" ry="20"/><g text-align="center" text-anchor="middle" fill="#FFFFFF" transform="translate(20, 19)"><text y="11" letter-spacing="0" font-size="22px" font-family="&quot;Amatic SC&quot;, cursive" text-align="center" alignment-baseline="central" x="48">Composite</text></g></g><g transform="translate(388.67, 619.66) rotate(0.00, 68.00, 30.00)"><rect width="136" height="60" fill="#f701f5" rx="20" ry="20"/><g text-align="center" text-anchor="middle" fill="#FFFFFF" transform="translate(20, 19)"><text y="11" letter-spacing="0" font-size="22px" font-family="&quot;Amatic SC&quot;, cursive" text-align="center" alignment-baseline="central" x="48">Flyweight</text></g></g><g transform="translate(643.34, 693.66) rotate(0.00, 73.00, 30.00)"><rect width="146" height="60" fill="#f701f5" rx="20" ry="20"/><g text-align="center" text-anchor="middle" fill="#FFFFFF" transform="translate(20, 19)"><text y="11" letter-spacing="0" font-size="22px" font-family="&quot;Amatic SC&quot;, cursive" text-align="center" alignment-baseline="central" x="53">Interpreter</text></g></g><g transform="translate(212.00, 271.66) rotate(0.00, 68.00, 30.00)"><rect width="136" height="60" fill="#f701f5" rx="20" ry="20"/><g text-align="center" text-anchor="middle" fill="#FFFFFF" transform="translate(20, 19)"><text y="11" letter-spacing="0" font-size="22px" font-family="&quot;Amatic SC&quot;, cursive" text-align="center" alignment-baseline="central" x="48">Builder</text></g></g><g transform="translate(717.67, 323.00) rotate(0.00, 68.00, 30.00)"><rect width="136" height="60" fill="#f701f5" rx="20" ry="20"/><g text-align="center" text-anchor="middle" fill="#FFFFFF" transform="translate(20, 19)"><text y="11" letter-spacing="0" font-size="22px" font-family="&quot;Amatic SC&quot;, cursive" text-align="center" alignment-baseline="central" x="48">Iterator</text></g></g><g transform="translate(718.67, 156.33) rotate(0.00, 68.00, 30.00)"><rect width="136" height="60" fill="#f701f5" rx="20" ry="20"/><g text-align="center" text-anchor="middle" fill="#FFFFFF" transform="translate(20, 18.99)"><text y="11" letter-spacing="0" font-size="22px" font-family="&quot;Amatic SC&quot;, cursive" text-align="center" alignment-baseline="central" x="48">Memento</text></g></g><g transform="translate(1046.68, 145.66) rotate(0.00, 68.00, 30.00)"><rect width="136" height="60" fill="#f701f5" rx="20" ry="20"/><g text-align="center" text-anchor="middle" fill="#FFFFFF" transform="translate(20, 19)"><text y="11" letter-spacing="0" font-size="22px" font-family="&quot;Amatic SC&quot;, cursive" text-align="center" alignment-baseline="central" x="48">Adapter</text></g></g><g transform="translate(1265.34, 149.33) rotate(0.00, 68.00, 30.00)"><rect width="136" height="60" fill="#f701f5" rx="20" ry="20"/><g text-align="center" text-anchor="middle" fill="#FFFFFF" transform="translate(20, 18.99)"><text y="11" letter-spacing="0" font-size="22px" font-family="&quot;Amatic SC&quot;, cursive" text-align="center" alignment-baseline="central" x="48">Proxy</text></g></g><g transform="translate(1272.00, 263.00) rotate(0.00, 68.00, 30.00)"><rect width="136" height="60" fill="#f701f5" rx="20" ry="20"/><g text-align="center" text-anchor="middle" fill="#FFFFFF" transform="translate(20, 19)"><text y="11" letter-spacing="0" font-size="22px" font-family="&quot;Amatic SC&quot;, cursive" text-align="center" alignment-baseline="central" x="48">Bridge</text></g></g><g transform="translate(1210.67, 443.33) rotate(0.00, 68.00, 30.00)"><rect width="136" height="60" fill="#f701f5" rx="20" ry="20"/><g text-align="center" text-anchor="middle" fill="#FFFFFF" transform="translate(20, 19)"><text y="11" letter-spacing="0" font-size="22px" font-family="&quot;Amatic SC&quot;, cursive" text-align="center" alignment-baseline="central" x="48">Command</text></g></g><g transform="translate(853.67, 559.66) rotate(0.00, 68.00, 30.00)"><rect width="136" height="60" fill="#f701f5" rx="20" ry="20"/><g text-align="center" text-anchor="middle" fill="#FFFFFF" transform="translate(20, 19)"><text y="11" letter-spacing="0" font-size="22px" font-family="&quot;Amatic SC&quot;, cursive" text-align="center" alignment-baseline="central" x="48">Visitor</text></g></g><g transform="translate(1223.00, 626.16) rotate(0.00, 135.17, 30.00)"><rect width="270.34" height="60" fill="#f701f5" rx="20" ry="20"/><g text-align="center" text-anchor="middle" fill="#FFFFFF" transform="translate(20, 19)"><text y="11" letter-spacing="0" font-size="22px" font-family="&quot;Amatic SC&quot;, cursive" text-align="center" alignment-baseline="central" x="115.16">Chain of Responsibility</text></g></g><g transform="translate(794.67, 806.33) rotate(0.00, 68.00, 30.00)"><rect width="136" height="60" fill="#f701f5" rx="20" ry="20"/><g text-align="center" text-anchor="middle" fill="#FFFFFF" transform="translate(20, 19)"><text y="11" letter-spacing="0" font-size="22px" font-family="&quot;Amatic SC&quot;, cursive" text-align="center" alignment-baseline="central" x="48">Mediator</text></g></g><g transform="translate(1155.00, 795.66) rotate(0.00, 68.00, 30.00)"><rect width="136" height="60" fill="#f701f5" rx="20" ry="20"/><g text-align="center" text-anchor="middle" fill="#FFFFFF" transform="translate(20, 19)"><text y="11" letter-spacing="0" font-size="22px" font-family="&quot;Amatic SC&quot;, cursive" text-align="center" alignment-baseline="central" x="48">Observer</text></g></g><g transform="translate(63.33, 519.66) rotate(0.00, 68.00, 30.00)"><rect width="136" height="60" fill="#f701f5" rx="20" ry="20"/><g text-align="center" text-anchor="middle" fill="#FFFFFF" transform="translate(20, 19)"><text y="11" letter-spacing="0" font-size="22px" font-family="&quot;Amatic SC&quot;, cursive" text-align="center" alignment-baseline="central" x="48">Decorator</text></g></g><g transform="translate(32.67, 746.33) rotate(0.00, 68.00, 30.00)"><rect width="136" height="60" fill="#f701f5" rx="20" ry="20"/><g text-align="center" text-anchor="middle" fill="#FFFFFF" transform="translate(20, 19)"><text y="11" letter-spacing="0" font-size="22px" font-family="&quot;Amatic SC&quot;, cursive" text-align="center" alignment-baseline="central" x="48">Strategy</text></g></g><g transform="translate(330.00, 839.00) rotate(0.00, 68.00, 30.00)"><rect width="136" height="60" fill="#f701f5" rx="20" ry="20"/><g text-align="center" text-anchor="middle" fill="#FFFFFF" transform="translate(20, 19)"><text y="11" letter-spacing="0" font-size="22px" font-family="&quot;Amatic SC&quot;, cursive" text-align="center" alignment-baseline="central" x="48">State</text></g></g><g transform="translate(522.34, 987.99) rotate(0.00, 96.00, 30.00)"><rect width="192" height="60" fill="#f701f5" rx="20" ry="20"/><g text-align="center" text-anchor="middle" fill="#FFFFFF" transform="translate(20, 19)"><text y="11" letter-spacing="0" font-size="22px" font-family="&quot;Amatic SC&quot;, cursive" text-align="center" alignment-baseline="central" x="76">template method</text></g></g><g transform="translate(898.34, 986.67) rotate(0.00, 112.33, 30.00)"><rect width="224.67" height="60" fill="#f701f5" rx="20" ry="20"/><g text-align="center" text-anchor="middle" fill="#FFFFFF" transform="translate(20, 19)"><text y="11" letter-spacing="0" font-size="22px" font-family="&quot;Amatic SC&quot;, cursive" text-align="center" alignment-baseline="central" x="92.33">Factory Method</text></g></g><g transform="translate(176.67, 1079.66) rotate(0.00, 68.00, 30.00)"><rect width="136" height="60" fill="#f701f5" rx="20" ry="20"/><g text-align="center" text-anchor="middle" fill="#FFFFFF" transform="translate(20, 19)"><text y="11" letter-spacing="0" font-size="22px" font-family="&quot;Amatic SC&quot;, cursive" text-align="center" alignment-baseline="central" x="48">Prototype</text></g></g><g transform="translate(635.84, 1173.67) rotate(0.00, 92.83, 30.00)"><rect width="185.66" height="60" fill="#f701f5" rx="20" ry="20"/><g text-align="center" text-anchor="middle" fill="#FFFFFF" transform="translate(20, 19)"><text y="11" letter-spacing="0" font-size="22px" font-family="&quot;Amatic SC&quot;, cursive" text-align="center" alignment-baseline="central" x="72.83">Abstract factory</text></g></g><g transform="translate(307.67, 1278.34) rotate(0.00, 68.00, 30.00)"><rect width="136" height="60" fill="#f701f5" rx="20" ry="20"/><g text-align="center" text-anchor="middle" fill="#FFFFFF" transform="translate(20, 19)"><text y="11" letter-spacing="0" font-size="22px" font-family="&quot;Amatic SC&quot;, cursive" text-align="center" alignment-baseline="central" x="48">Singleton</text></g></g><g transform="translate(884.67, 1270.99) rotate(0.00, 68.00, 30.00)"><rect width="136" height="60" fill="#f701f5" rx="20" ry="20"/><g text-align="center" text-anchor="middle" fill="#FFFFFF" transform="translate(20, 19)"><text y="11" letter-spacing="0" font-size="22px" font-family="&quot;Amatic SC&quot;, cursive" text-align="center" alignment-baseline="central" x="48">facade</text></g></g><g id="94384746-d40f-49e0-3650-dd8128200500_svg" class="tl-centered-g" transform="translate(351.23, 298.33) rotate(0.00, 120.05, 83.50)"><path d="M 240.10,166.99999999999994 L 0,0 M 17.93,1.5123503337424982 L 0,0 7.65,16.289513422089335" stroke-width="8" stroke="none" fill="none" pointer-events="all"/><path d="M 240.10,166.99999999999994 L 0,0 M 17.93,1.5123503337424982 L 0,0 7.65,16.289513422089335" stroke="#000000" stroke-width="2" stroke-linejoin="round" stroke-linecap="round" fill="none" pointer-events="none" opacity="1"/></g><g text-align="left" text-anchor="start" fill="#000000" transform="translate(379.67, 366.67) rotate(0.00, 32.50, 11.50)"><text y="14" letter-spacing="0" font-size="28px" font-family="&quot;Amatic SC&quot;, cursive" text-align="start" alignment-baseline="central" transform="scale(0.49206459744990966)">创建组合</text></g><g id="1695343c-eefe-40f1-0278-1125f1d79c2c_svg" class="tl-centered-g" transform="translate(164.00, 463.99) rotate(0.00, 208.00, 26.67)"><path d="M415.46,32.99 Q413.49,31.92 412.22,31.48 T408.97,30.32 404.34,28.83 398.20,27.22 391.11,25.59 383.86,24.03 376.49,22.54 368.86,20.99 361.03,19.42 353.00,17.91 344.63,16.54 335.99,15.18 326.89,13.73 317.28,12.23 307.21,10.77 296.92,9.53 286.62,8.53 276.30,7.62 265.86,6.51 255.37,5.33 244.95,4.39 234.56,3.70 224.37,3.19 214.41,2.82 204.88,2.55 195.86,2.36 187.19,2.12 178.87,1.86 171.11,1.67 164.08,1.53 157.69,1.43 151.77,1.35 146.00,1.30 140.09,1.26 134.23,1.23 128.70,1.21 123.54,1.37 118.63,1.85 113.89,2.55 109.26,3.42 104.70,4.41 100.40,5.49 96.44,6.55 92.84,7.59 89.52,8.70 86.55,9.78 83.84,10.84 81.23,11.89 78.59,12.93 75.84,14.27 72.86,15.97 69.36,17.87 65.36,19.98 61.07,22.07 56.79,24.13 52.59,26.16 48.43,28.11 44.51,29.97 40.92,31.69 37.50,33.39 34.08,35.01 30.65,36.47 27.48,37.88 24.72,39.17 22.33,40.30 20.19,41.46 18.18,42.66 15.88,44.09 13.28,45.67 11.12,47.01 9.37,48.12 7.71,49.08 5.90,50.17 3.74,51.62 2.46,52.52 2.16,52.64 1.84,52.66 1.52,52.58 1.25,52.40 1.05,52.14 0.94,51.83 0.94,51.51 1.04,51.20 1.23,50.94 1.50,50.75 1.81,50.66 2.14,50.68 2.44,50.80 2.69,51.00 2.86,51.28 2.93,51.60 2.90,51.92 2.77,52.21 2.55,52.45 2.26,52.61 1.94,52.66 1.62,52.62 1.33,52.47 1.11,52.23 0.97,51.94 0.93,51.62 1.00,51.30 1.16,51.02 1.27,50.89 2.65,49.92 4.97,48.33 7.04,47.06 8.98,45.80 10.97,44.47 13.35,43.04 15.28,41.79 17.00,40.69 19.10,39.44 21.35,38.22 23.74,37.09 26.55,35.78 29.75,34.35 33.10,32.93 36.48,31.33 39.93,29.62 43.52,27.90 47.45,26.03 51.59,24.09 55.79,22.05 60.07,20.00 64.29,17.95 68.26,15.85 71.72,13.97 74.84,12.21 77.74,10.79 80.37,9.75 83.01,8.70 85.76,7.62 88.79,6.52 92.20,5.38 95.85,4.33 99.84,3.26 104.21,2.16 108.83,1.16 113.55,0.27 118.41,-0.44 123.46,-0.93 128.71,-1.09 134.25,-1.07 140.10,-1.04 146.03,-1.00 151.80,-0.95 157.73,-0.87 164.13,-0.77 171.16,-0.63 178.95,-0.44 187.25,-0.18 195.91,0.06 204.95,0.26 214.49,0.53 224.48,0.90 234.72,1.40 245.16,2.10 255.62,3.05 266.11,4.22 276.50,5.33 286.84,6.24 297.19,7.25 307.55,8.50 317.63,9.96 327.25,11.46 336.35,12.91 345.00,14.27 353.42,15.65 361.49,17.16 369.31,18.74 376.95,20.28 384.34,21.79 391.63,23.35 398.79,25.01 405.05,26.66 409.74,28.17 413.14,29.41 415.56,30.47 416.65,31.09 416.85,31.27 417.00,31.49 417.09,31.75 417.12,32.02 417.08,32.29 416.98,32.54 416.83,32.76 416.62,32.93 416.38,33.06 416.12,33.12 415.85,33.11 415.59,33.04 Z" fill="#000000" opacity="1" pointer-events="all"/></g><g id="f91f9e4c-d1a3-4cd2-0891-c75ac125c4d5_svg" class="tl-centered-g" transform="translate(160.00, 503.33) rotate(0.00, 8.34, 7.33)"><path d="M3.70,0.17 Q3.51,1.25 3.24,2.35 T2.68,4.93 2.23,7.49 1.82,9.62 1.64,11.54 2.51,12.75 4.47,13.24 6.50,13.33 8.33,13.18 11.54,12.81 13.97,12.47 14.29,12.48 14.59,12.59 14.84,12.79 15.01,13.06 15.08,13.37 15.06,13.68 14.93,13.98 14.72,14.21 14.44,14.37 14.12,14.43 13.81,14.39 13.52,14.25 13.30,14.02 13.16,13.73 13.11,13.42 13.17,13.10 13.33,12.83 13.57,12.61 13.86,12.49 14.18,12.46 14.49,12.54 14.76,12.71 14.96,12.96 15.07,13.26 15.08,13.58 14.98,13.88 14.80,14.14 14.54,14.33 14.39,14.40 11.88,14.75 8.46,15.16 6.49,15.30 4.53,15.28 2.70,14.92 0.92,14.14 -0.26,12.53 -0.40,10.28 -0.01,8.16 0.42,6.04 0.80,3.94 1.21,1.96 1.55,0.37 1.68,-0.29 1.78,-0.52 1.93,-0.72 2.12,-0.88 2.35,-0.98 2.59,-1.03 2.84,-1.02 3.08,-0.95 3.30,-0.83 3.48,-0.65 3.61,-0.44 3.69,-0.20 3.70,0.05 Z" fill="#000000" opacity="1" pointer-events="all"/></g><g text-align="left" text-anchor="start" fill="#000000" transform="translate(209.17, 448.99) rotate(0.00, 50.50, 11.50)"><text y="14" letter-spacing="0" font-size="28px" font-family="&quot;Amatic SC&quot;, cursive" text-align="start" alignment-baseline="central" transform="scale(0.46922330097087417)">给对象添加职责</text></g><g id="8a1f48ec-bcb1-4750-3ef5-4691e35c757a_svg" class="tl-centered-g" transform="translate(84.67, 581.99) rotate(0.00, 20.34, 78.00)"><path d="M41.79,0.00 Q41.78,1.44 41.69,2.38 T41.34,4.40 40.73,6.77 40.03,9.59 39.16,13.09 38.07,17.37 36.82,22.10 35.46,26.85 34.20,31.27 33.20,35.37 32.28,39.36 31.15,43.50 29.79,48.05 28.16,53.00 26.34,58.23 24.57,63.46 22.92,68.28 21.44,72.69 20.10,76.98 18.85,81.35 17.58,85.83 16.18,90.21 14.90,94.19 13.89,97.70 13.16,101.02 12.43,104.48 11.53,107.97 10.51,111.41 9.60,114.77 8.85,118.01 8.12,121.13 7.30,124.16 6.53,126.90 5.98,129.37 5.58,131.96 5.29,134.48 4.88,136.95 4.40,139.22 4.06,141.08 3.72,143.32 3.32,145.87 2.85,148.45 2.12,151.62 1.58,153.56 1.41,153.85 1.15,154.08 0.83,154.20 0.49,154.23 0.16,154.14 -0.12,153.95 -0.33,153.68 -0.44,153.35 -0.44,153.01 -0.34,152.69 -0.13,152.42 0.15,152.22 0.48,152.13 0.82,152.15 1.14,152.27 1.40,152.49 1.58,152.78 1.65,153.11 1.62,153.45 1.48,153.76 1.24,154.01 0.94,154.17 0.61,154.23 0.27,154.18 -0.03,154.02 -0.27,153.77 -0.41,153.47 -0.45,153.13 -0.45,152.95 0.02,151.15 0.73,147.97 1.15,145.50 1.49,143.00 1.81,140.67 2.15,138.75 2.62,136.58 3.00,134.22 3.31,131.60 3.74,128.87 4.31,126.28 5.08,123.56 5.88,120.60 6.61,117.49 7.38,114.17 8.31,110.76 9.31,107.39 10.18,104.01 10.91,100.53 11.68,97.06 12.71,93.49 13.99,89.51 15.36,85.20 16.64,80.72 17.90,76.29 19.26,71.96 20.74,67.54 22.39,62.72 24.17,57.47 25.98,52.28 27.59,47.39 28.94,42.90 30.04,38.85 30.97,34.82 31.99,30.65 33.26,26.21 34.61,21.52 35.86,16.80 36.95,12.54 37.83,9.03 38.55,6.20 39.23,3.19 39.55,0.72 39.56,-0.13 39.63,-0.40 39.75,-0.63 39.93,-0.84 40.15,-0.99 40.40,-1.08 40.67,-1.12 40.94,-1.08 41.19,-0.99 41.41,-0.84 41.59,-0.63 41.71,-0.40 41.78,-0.13 Z" fill="#000000" opacity="1" pointer-events="all"/></g><g id="2872f604-36ef-455d-121a-d76d632b2808_svg" class="tl-centered-g" transform="translate(77.34, 728.66) rotate(0.00, 9.33, 9.00)"><path d="M1.05,-0.30 Q1.40,0.96 1.96,2.64 T2.86,5.19 3.55,7.10 4.15,8.99 4.72,11.44 5.26,14.07 6.31,15.70 8.16,16.05 10.45,15.09 12.59,13.34 14.83,10.29 16.32,8.17 16.60,7.97 16.92,7.87 17.26,7.88 17.58,7.99 17.84,8.20 18.02,8.49 18.10,8.82 18.08,9.15 17.94,9.46 17.72,9.72 17.43,9.88 17.09,9.95 16.76,9.90 16.46,9.75 16.22,9.51 16.07,9.21 16.02,8.88 16.08,8.55 16.25,8.25 16.50,8.02 16.81,7.89 17.15,7.86 17.47,7.94 17.76,8.12 17.97,8.39 18.09,8.70 18.10,9.04 18.00,9.37 17.92,9.52 16.58,11.49 14.08,14.78 11.49,16.88 8.64,18.07 6.41,18.20 4.77,17.32 3.51,15.69 2.83,13.33 2.18,10.41 1.44,7.85 0.78,5.95 -0.12,3.29 -0.87,0.93 -1.07,0.17 -1.08,-0.09 -1.03,-0.35 -0.91,-0.58 -0.75,-0.79 -0.54,-0.94 -0.30,-1.04 -0.04,-1.08 0.22,-1.06 0.47,-0.98 0.69,-0.84 0.87,-0.65 1.00,-0.42 Z" fill="#000000" opacity="1" pointer-events="all"/></g><g text-align="left" text-anchor="start" fill="#000000" transform="translate(20.00, 637.66) rotate(0.00, 40.00, 22.50)"><text y="14" letter-spacing="0" font-size="28px" font-family="&quot;Amatic SC&quot;, cursive" text-align="start" alignment-baseline="central" transform="scale(0.6262121212121219)">改变外表</text><text y="42" letter-spacing="0" font-size="28px" font-family="&quot;Amatic SC&quot;, cursive" text-align="start" alignment-baseline="central" transform="scale(0.6262121212121219)">改变内容</text></g><g id="41f4149a-f8fc-4f80-2f80-1020e7235186_svg" class="tl-centered-g" transform="translate(489.34, 526.66) rotate(0.00, 49.00, 44.66)"><path d="M98.98,0.56 Q98.25,1.81 97.61,2.76 T95.93,4.88 93.73,7.39 91.06,10.29 87.83,13.50 84.32,16.91 80.58,20.48 76.50,24.26 71.97,28.13 67.21,31.86 62.40,35.55 57.75,39.31 53.37,43.04 49.08,46.75 44.77,50.38 40.51,53.68 36.50,56.63 32.88,59.31 29.73,61.86 26.87,64.28 24.24,66.50 21.85,68.49 19.84,70.13 18.20,71.49 16.24,73.01 14.28,74.63 12.83,76.13 11.26,77.81 9.43,79.57 7.70,81.31 6.32,82.87 5.02,84.18 3.23,86.26 2.02,87.83 1.78,88.04 1.48,88.16 1.16,88.18 0.85,88.10 0.59,87.92 0.39,87.67 0.29,87.36 0.28,87.05 0.38,86.74 0.57,86.49 0.84,86.30 1.14,86.22 1.46,86.23 1.76,86.35 2.01,86.55 2.17,86.82 2.25,87.14 2.21,87.45 2.08,87.75 1.86,87.98 1.58,88.13 1.27,88.19 0.95,88.14 0.67,87.99 0.45,87.76 0.31,87.47 0.27,87.15 0.34,86.84 0.40,86.69 1.45,85.29 3.35,83.04 5.03,81.22 6.56,79.48 8.02,78.02 9.62,76.45 11.23,74.68 12.82,72.97 14.82,71.25 16.73,69.73 18.39,68.35 20.38,66.73 22.75,64.75 25.39,62.52 28.28,60.08 31.51,57.46 35.14,54.78 39.10,51.87 43.29,48.62 47.58,45.01 51.88,41.28 56.31,37.52 61.00,33.73 65.79,30.05 70.48,26.38 74.94,22.58 79.00,18.83 82.72,15.27 86.22,11.89 89.38,8.75 92.03,5.89 94.16,3.49 95.71,1.57 96.67,0.07 97.10,-0.67 97.29,-0.86 97.52,-1.01 97.77,-1.10 98.04,-1.12 98.31,-1.08 98.56,-0.97 98.77,-0.81 98.94,-0.60 99.06,-0.36 99.11,-0.09 99.10,0.17 99.03,0.43 Z" fill="#000000" opacity="1" pointer-events="all"/></g><g id="2b016aeb-c2fa-49d8-23e6-36da2b8220d9_svg" class="tl-centered-g" transform="translate(486.67, 605.33) rotate(0.00, 9.00, 6.00)"><path d="M1.05,0.00 Q1.04,1.25 1.04,2.45 T1.04,4.83 1.03,7.13 1.20,9.13 2.37,10.37 4.90,10.67 7.39,10.48 9.40,10.06 12.52,9.06 14.78,8.30 15.12,8.27 15.46,8.35 15.75,8.53 15.97,8.79 16.09,9.11 16.11,9.46 16.01,9.79 15.82,10.07 15.54,10.28 15.22,10.38 14.87,10.38 14.55,10.27 14.27,10.06 14.08,9.77 13.99,9.44 14.01,9.09 14.15,8.77 14.37,8.51 14.67,8.34 15.00,8.27 15.35,8.31 15.66,8.46 15.91,8.70 16.06,9.00 16.12,9.34 16.06,9.68 15.89,9.98 15.64,10.22 15.50,10.31 13.23,11.10 9.81,12.17 7.60,12.57 5.60,12.73 3.42,12.66 1.20,12.09 -0.30,10.95 -0.92,9.24 -1.03,7.13 -1.04,4.83 -1.04,2.45 -1.04,0.63 -1.03,-0.13 -0.97,-0.37 -0.85,-0.59 -0.69,-0.78 -0.48,-0.92 -0.25,-1.01 0.00,-1.04 0.25,-1.01 0.48,-0.92 0.69,-0.78 0.85,-0.59 0.97,-0.37 1.03,-0.12 Z" fill="#000000" opacity="1" pointer-events="all"/></g><g text-align="left" text-anchor="start" fill="#000000" transform="translate(482.67, 551.33) rotate(0.00, 33.50, 12.00)"><text y="14" letter-spacing="0" font-size="28px" font-family="&quot;Amatic SC&quot;, cursive" text-align="start" alignment-baseline="central" transform="scale(0.5102392344497622)">共享组合</text></g><g id="5e4e9798-9a42-4f49-3e52-742ae11b4897_svg" class="tl-centered-g" transform="translate(682.00, 391.33) rotate(0.00, 36.67, 32.33)"><path d="M-0.74,63.81 Q0.69,62.55 1.76,61.64 T4.23,59.53 7.19,56.99 10.44,54.25 13.80,51.43 17.26,48.64 20.75,45.73 24.27,42.62 27.85,39.45 31.28,36.48 34.44,33.94 37.27,31.65 40.01,29.21 42.90,26.36 45.85,23.44 48.55,20.85 50.79,18.70 52.71,16.92 54.39,15.44 56.34,13.70 58.55,11.79 60.39,10.44 61.90,9.36 63.52,7.95 65.40,6.16 67.22,4.32 69.43,2.34 70.86,1.15 71.15,0.99 71.48,0.94 71.81,0.99 72.10,1.15 72.33,1.39 72.47,1.69 72.50,2.02 72.43,2.35 72.26,2.63 72.01,2.85 71.70,2.97 71.37,2.99 71.05,2.90 70.77,2.71 70.57,2.45 70.46,2.13 70.46,1.80 70.57,1.49 70.77,1.22 71.05,1.03 71.37,0.95 71.70,0.96 72.01,1.09 72.26,1.30 72.43,1.59 72.50,1.91 72.47,2.24 72.33,2.54 72.23,2.68 70.45,4.20 67.85,6.67 65.92,8.62 64.00,10.30 62.39,11.63 60.83,12.81 59.01,14.33 57.31,15.91 55.91,17.17 54.27,18.61 52.38,20.35 50.14,22.51 47.46,25.08 44.51,28.00 41.54,30.93 38.71,33.44 35.88,35.73 32.78,38.22 29.37,41.16 25.79,44.35 22.22,47.49 18.70,50.43 15.28,53.19 11.92,55.99 8.67,58.73 5.71,61.26 3.24,63.36 1.46,64.88 0.63,65.59 0.39,65.71 0.13,65.77 -0.14,65.77 -0.41,65.71 -0.64,65.58 -0.84,65.40 -1.00,65.17 -1.09,64.92 -1.12,64.65 -1.09,64.38 -0.99,64.13 -0.83,63.91 Z" fill="#000000" opacity="1" pointer-events="all"/></g><g id="b91cc32e-ce9e-4e25-1f1f-e94469839346_svg" class="tl-centered-g" transform="translate(736.67, 387.99) rotate(0.00, 11.34, 2.33)"><path d="M22.78,1.09 Q20.99,1.28 19.34,1.39 T16.26,1.65 13.94,1.96 11.30,2.60 8.08,3.52 4.38,4.47 1.95,4.99 1.61,5.01 1.28,4.93 0.99,4.74 0.78,4.47 0.66,4.15 0.66,3.80 0.76,3.47 0.97,3.20 1.25,3.00 1.58,2.90 1.92,2.91 2.24,3.04 2.51,3.25 2.69,3.55 2.77,3.88 2.74,4.22 2.60,4.54 2.37,4.79 2.06,4.96 1.73,5.02 1.39,4.97 1.08,4.81 0.84,4.57 0.69,4.26 0.65,3.92 0.72,3.58 0.89,3.28 1.15,3.05 1.29,2.96 3.09,2.56 6.10,1.82 8.14,1.19 9.95,0.67 11.78,0.20 13.56,-0.19 16.02,-0.53 19.16,-0.80 21.66,-1.01 22.69,-1.09 22.95,-1.05 23.20,-0.95 23.41,-0.80 23.58,-0.60 23.70,-0.37 23.75,-0.11 23.75,0.15 23.68,0.41 23.55,0.64 23.38,0.83 23.16,0.98 22.91,1.06 Z" fill="#000000" opacity="1" pointer-events="all"/></g><g id="75dcae55-2e5b-4cd0-1d6e-308032998fe4_svg" class="tl-centered-g" transform="translate(754.67, 386.66) rotate(0.00, 4.00, 10.00)"><path d="M9.07,0.27 Q8.71,1.70 8.39,2.63 T7.65,4.60 6.77,6.74 5.85,8.83 5.00,10.71 3.44,14.39 2.20,17.33 1.97,17.60 1.67,17.79 1.32,17.87 0.97,17.83 0.64,17.69 0.38,17.44 0.21,17.13 0.15,16.78 0.21,16.43 0.37,16.11 0.63,15.86 0.95,15.71 1.30,15.67 1.65,15.74 1.96,15.92 2.19,16.19 2.33,16.52 2.35,16.88 2.26,17.22 2.06,17.52 1.78,17.74 1.44,17.86 1.08,17.86 0.75,17.75 0.46,17.53 0.26,17.24 0.16,16.90 0.18,16.54 0.21,16.37 1.05,14.39 2.21,11.54 2.94,9.78 3.78,7.92 4.70,5.87 5.57,3.81 6.28,2.00 6.75,0.45 6.98,-0.39 7.10,-0.63 7.27,-0.82 7.49,-0.97 7.74,-1.07 8.00,-1.10 8.27,-1.06 8.51,-0.97 8.73,-0.82 8.90,-0.62 9.03,-0.39 9.09,-0.13 9.09,0.14 Z" fill="#000000" opacity="1" pointer-events="all"/></g><g text-align="left" text-anchor="start" fill="#000000" transform="translate(651.67, 415.16) rotate(0.00, 35.50, 12.50)"><text y="14" letter-spacing="0" font-size="28px" font-family="&quot;Amatic SC&quot;, cursive" text-align="start" alignment-baseline="central" transform="scale(0.5487081339712921)">枚举子女</text></g><g id="fdbbd30b-732f-4a1c-354f-c11c1398e1c3_svg" class="tl-centered-g" transform="translate(566.67, 179.99) rotate(0.00, 75.33, 88.67)"><path d="M150.57,178.47 Q146.44,178.11 143.58,177.80 T137.53,176.99 130.77,175.95 123.45,174.93 115.76,173.91 108.06,172.81 100.81,171.64 94.15,170.42 87.84,169.09 81.50,167.47 75.04,165.48 68.44,163.12 61.81,160.50 55.51,157.67 49.89,154.69 45.04,151.69 40.60,148.60 36.27,145.25 32.20,141.81 28.52,138.49 25.18,135.24 22.09,131.85 19.11,128.30 16.21,124.42 13.38,120.44 10.76,116.53 8.39,112.57 6.28,108.47 4.46,104.30 2.95,100.15 1.84,96.09 1.03,91.94 0.52,87.35 0.43,82.34 0.91,77.11 1.89,71.75 3.34,66.21 5.31,60.52 7.65,54.92 10.36,49.55 13.44,44.44 17.06,39.50 21.45,34.70 26.47,30.19 31.94,25.99 37.73,21.95 43.95,18.09 50.88,14.53 58.19,11.39 65.15,8.74 71.57,6.45 77.43,4.51 82.64,2.99 87.09,1.88 90.79,1.06 93.95,0.47 96.81,0.03 99.73,-0.29 102.80,-0.43 105.80,-0.36 108.53,-0.12 111.24,0.24 114.23,0.77 117.48,1.43 120.73,2.09 123.72,2.66 126.24,3.07 128.44,3.37 130.74,3.78 133.21,4.26 135.75,4.59 138.12,4.94 140.81,5.50 144.23,6.39 146.21,6.98 146.51,7.17 146.73,7.44 146.86,7.78 146.88,8.13 146.78,8.47 146.57,8.76 146.29,8.97 145.95,9.08 145.60,9.07 145.26,8.96 144.98,8.74 144.79,8.44 144.70,8.10 144.72,7.75 144.86,7.42 145.09,7.15 145.40,6.97 145.74,6.90 146.09,6.95 146.41,7.10 146.67,7.35 146.83,7.66 146.88,8.01 146.82,8.36 146.65,8.67 146.39,8.91 146.07,9.06 145.71,9.09 145.54,9.08 143.02,8.38 139.64,7.54 137.78,7.21 135.44,6.87 132.77,6.51 130.34,6.04 128.13,5.65 125.87,5.34 123.29,4.92 120.27,4.34 117.02,3.69 113.83,3.04 110.94,2.52 108.33,2.17 105.73,1.94 102.91,1.86 99.98,2.00 97.16,2.31 94.37,2.73 91.28,3.31 87.64,4.11 83.28,5.20 78.16,6.69 72.34,8.62 65.97,10.89 59.10,13.50 51.93,16.58 45.17,20.05 39.05,23.84 33.34,27.82 28.00,31.90 23.14,36.24 18.91,40.86 15.41,45.62 12.41,50.59 9.77,55.81 7.48,61.27 5.56,66.79 4.15,72.17 3.19,77.32 2.72,82.30 2.81,87.10 3.28,91.50 4.06,95.49 5.11,99.37 6.57,103.38 8.32,107.42 10.36,111.38 12.67,115.25 15.25,119.10 18.05,123.04 20.88,126.82 23.79,130.30 26.78,133.59 30.06,136.78 33.69,140.06 37.68,143.43 41.92,146.71 46.26,149.74 50.97,152.66 56.46,155.58 62.66,158.36 69.21,160.96 75.72,163.28 82.06,165.25 88.31,166.84 94.57,168.17 101.18,169.37 108.39,170.54 116.06,171.64 123.77,172.66 131.12,173.69 137.83,174.73 143.80,175.54 148.71,176.03 150.90,176.24 151.16,176.33 151.39,176.48 151.57,176.67 151.71,176.91 151.78,177.17 151.79,177.44 151.73,177.70 151.61,177.95 151.44,178.15 151.22,178.32 150.97,178.42 150.71,178.46 Z" fill="#000000" opacity="1" pointer-events="all"/></g><g id="e82cf1e0-021f-49d5-2e98-71767cb80071_svg" class="tl-centered-g" transform="translate(707.34, 179.33) rotate(0.00, 5.33, 8.00)"><path d="M0.47,-0.94 Q1.54,-0.40 2.77,0.25 T5.03,1.52 6.87,3.16 8.28,5.04 9.30,6.82 10.10,8.83 10.77,10.95 11.10,12.86 10.76,14.56 9.42,15.82 5.85,16.59 3.07,16.89 2.76,16.80 2.51,16.62 2.32,16.37 2.23,16.07 2.23,15.76 2.33,15.46 2.53,15.21 2.79,15.04 3.09,14.96 3.40,14.98 3.69,15.10 3.93,15.31 4.09,15.58 4.15,15.89 4.11,16.20 3.98,16.48 3.76,16.70 3.48,16.85 3.17,16.89 2.86,16.84 2.59,16.69 2.37,16.46 2.25,16.17 2.22,15.86 2.29,15.55 2.45,15.29 2.70,15.09 2.99,14.98 3.14,14.95 4.82,14.81 7.51,14.45 8.79,13.33 8.83,11.55 8.23,9.62 7.50,7.78 6.56,6.17 5.45,4.63 4.00,3.34 1.85,2.13 0.07,1.21 -0.57,0.87 -0.77,0.71 -0.91,0.50 -1.01,0.27 -1.04,0.02 -1.02,-0.23 -0.93,-0.47 -0.79,-0.67 -0.61,-0.84 -0.39,-0.97 -0.15,-1.03 0.11,-1.04 0.35,-0.98 Z" fill="#000000" opacity="1" pointer-events="all"/></g><g text-align="left" text-anchor="start" fill="#000000" transform="translate(571.67, 253.66) rotate(0.00, 54.50, 13.00)"><text y="14" letter-spacing="0" font-size="28px" font-family="&quot;Amatic SC&quot;, cursive" text-align="start" alignment-baseline="central" transform="scale(0.5930407697368434)">保存迭代状态</text></g><g id="b3ba4e7e-c5e5-4001-04d8-c4b1d8b2727e_svg" class="tl-centered-g" transform="translate(705.34, 525.66) rotate(0.00, 71.67, 34.00)"><path d="M0.72,-0.87 Q2.69,0.74 4.14,1.96 T7.54,4.88 11.81,8.53 16.90,12.81 22.50,17.46 28.28,22.01 34.02,26.32 39.49,30.48 44.75,34.50 49.99,38.22 55.49,41.64 61.36,44.65 67.52,47.31 73.82,49.70 80.23,52.00 86.90,54.30 93.73,56.52 100.58,58.50 107.10,60.12 112.72,61.58 117.28,62.83 120.85,63.74 123.60,64.50 125.70,65.15 127.99,65.77 130.40,66.31 133.07,66.59 136.66,66.73 138.78,66.81 139.11,66.93 139.38,67.15 139.57,67.45 139.66,67.79 139.63,68.14 139.49,68.46 139.26,68.73 138.95,68.90 138.60,68.97 138.26,68.92 137.94,68.77 137.69,68.52 137.53,68.20 137.48,67.85 137.55,67.51 137.72,67.20 137.98,66.96 138.31,66.82 138.66,66.79 139.00,66.88 139.30,67.07 139.52,67.34 139.64,67.67 139.65,68.03 139.55,68.36 139.34,68.65 139.06,68.85 138.72,68.96 138.54,68.98 136.59,68.93 132.86,68.77 129.99,68.48 127.42,67.96 125.02,67.35 122.97,66.71 120.29,65.97 116.67,65.05 112.14,63.81 106.55,62.35 99.95,60.71 93.02,58.71 86.14,56.48 79.46,54.16 73.00,51.85 66.61,49.42 60.31,46.70 54.28,43.59 48.66,40.09 43.36,36.32 38.11,32.31 32.64,28.16 26.86,23.82 21.03,19.23 15.42,14.56 10.32,10.27 6.05,6.61 2.68,3.71 0.27,1.68 -0.81,0.78 -0.97,0.56 -1.08,0.31 -1.12,0.04 -1.10,-0.23 -1.01,-0.48 -0.87,-0.71 -0.67,-0.90 -0.44,-1.03 -0.18,-1.11 0.09,-1.12 0.36,-1.06 0.60,-0.95 Z" fill="#000000" opacity="1" pointer-events="all"/></g><g id="f2b2148a-02e8-4470-0e29-881b72f5a393_svg" class="tl-centered-g" transform="translate(832.67, 580.99) rotate(0.00, 9.00, 10.00)"><path d="M0.57,-0.95 Q1.46,-0.40 2.68,0.29 T4.60,1.58 6.01,2.74 7.42,4.06 9.59,6.07 11.87,8.13 13.31,9.61 15.01,11.36 16.70,13.40 17.17,15.47 16.11,17.29 14.04,18.35 10.78,19.29 8.53,19.90 8.20,19.88 7.89,19.77 7.63,19.56 7.46,19.28 7.38,18.96 7.41,18.63 7.54,18.33 7.76,18.08 8.05,17.92 8.38,17.86 8.71,17.91 9.00,18.06 9.23,18.29 9.38,18.59 9.42,18.92 9.36,19.24 9.19,19.53 8.94,19.75 8.64,19.88 8.31,19.90 7.99,19.82 7.71,19.64 7.51,19.38 7.39,19.07 7.39,18.74 7.49,18.42 7.68,18.15 7.95,17.96 8.10,17.89 10.80,17.13 14.46,15.93 14.95,14.75 13.41,12.93 11.69,11.19 10.32,9.76 8.81,8.31 6.69,6.31 4.05,3.91 1.54,2.14 -0.12,1.21 -0.68,0.87 -0.86,0.68 -1.00,0.45 -1.08,0.20 -1.10,-0.06 -1.05,-0.32 -0.94,-0.57 -0.78,-0.77 -0.57,-0.94 -0.33,-1.05 -0.07,-1.10 0.20,-1.08 0.45,-1.00 Z" fill="#000000" opacity="1" pointer-events="all"/></g><g text-align="left" text-anchor="start" fill="#000000" transform="translate(752.01, 542.66) rotate(0.00, 29.00, 11.00)"><text y="14" letter-spacing="0" font-size="28px" font-family="&quot;Amatic SC&quot;, cursive" text-align="start" alignment-baseline="central" transform="scale(0.42105263157894735)">增加操作</text></g><g id="9a4b2920-9fec-4137-323c-c1cfd2d2e2c2_svg" class="tl-centered-g" transform="translate(162.67, 662.99) rotate(0.00, 112.00, 45.00)"><path d="M0.00,88.89 Q0.90,88.90 1.91,88.83 T3.88,88.51 6.41,87.90 9.91,87.09 14.35,86.05 19.75,84.83 25.86,83.50 32.38,82.08 39.03,80.68 45.49,79.21 51.63,77.69 57.46,76.14 63.07,74.55 68.42,72.95 73.30,71.33 77.85,69.70 82.24,67.98 86.60,66.10 91.31,63.92 96.47,61.51 101.85,58.95 107.29,56.18 112.73,53.44 118.16,50.88 123.49,48.55 128.53,46.41 133.12,44.49 137.16,42.74 140.82,41.01 144.41,39.30 148.11,37.51 151.96,35.58 155.95,33.54 160.01,31.34 164.15,29.01 168.27,26.76 172.27,24.58 175.97,22.46 179.67,20.28 183.64,17.97 187.53,15.73 190.92,13.83 193.68,12.34 195.86,11.17 197.64,10.23 199.83,8.94 202.25,7.45 204.51,6.22 206.97,5.05 209.40,4.02 211.60,3.10 213.48,2.34 215.71,1.61 218.13,0.99 220.57,0.33 222.11,-0.18 222.45,-0.23 222.79,-0.18 223.09,-0.02 223.32,0.23 223.47,0.54 223.50,0.88 223.43,1.21 223.26,1.51 223.00,1.73 222.68,1.85 222.34,1.87 222.01,1.78 221.72,1.59 221.52,1.32 221.41,0.99 221.41,0.65 221.52,0.33 221.72,0.06 222.01,-0.14 222.34,-0.23 222.68,-0.21 222.99,-0.08 223.25,0.14 223.43,0.43 223.50,0.77 223.47,1.11 223.32,1.42 223.09,1.66 222.95,1.77 221.28,2.33 218.64,3.12 216.42,3.74 214.34,4.46 212.48,5.22 210.29,6.13 207.94,7.12 205.59,8.22 203.47,9.35 201.00,10.88 198.72,12.25 196.95,13.20 194.77,14.37 192.05,15.83 188.68,17.73 184.80,19.95 180.84,22.26 177.11,24.46 173.37,26.60 169.38,28.78 165.28,31.02 161.11,33.36 157.00,35.58 152.99,37.63 149.11,39.58 145.40,41.37 141.80,43.09 138.08,44.84 134.00,46.61 129.43,48.53 124.40,50.66 119.14,52.96 113.76,55.49 108.33,58.24 102.84,61.02 97.44,63.60 92.27,66.01 87.51,68.21 83.08,70.12 78.62,71.87 74.02,73.51 69.08,75.14 63.70,76.76 58.06,78.35 52.18,79.92 45.99,81.45 39.50,82.92 32.86,84.31 26.34,85.72 20.25,87.05 14.86,88.24 10.41,89.26 6.91,90.05 4.28,90.65 2.05,90.99 0.45,91.11 -0.13,91.10 -0.39,91.03 -0.63,90.91 -0.83,90.73 -0.98,90.51 -1.07,90.26 -1.11,90.00 -1.07,89.74 -0.98,89.49 -0.83,89.27 -0.63,89.09 -0.39,88.97 -0.13,88.90 Z" fill="#000000" opacity="1" pointer-events="all"/></g><g id="078f0e44-fe5a-4cc1-241c-6b6b4a01c11b_svg" class="tl-centered-g" transform="translate(374.00, 656.33) rotate(0.00, 6.67, 9.33)"><path d="M2.23,-1.03 Q3.84,-0.68 5.28,-0.18 T7.74,0.73 9.94,1.52 11.88,2.53 13.03,4.02 12.93,6.18 11.12,9.06 8.81,11.60 6.26,14.17 4.52,15.89 4.20,16.03 3.86,16.07 3.51,15.99 3.21,15.81 2.98,15.54 2.86,15.21 2.84,14.86 2.93,14.52 3.13,14.23 3.41,14.02 3.75,13.91 4.10,13.91 4.43,14.03 4.71,14.24 4.91,14.53 5.00,14.87 4.98,15.22 4.85,15.55 4.62,15.81 4.32,15.99 3.97,16.07 3.62,16.03 3.30,15.88 3.05,15.64 2.89,15.32 2.83,14.98 2.89,14.63 3.06,14.32 3.17,14.18 4.75,12.59 7.24,10.16 8.97,8.31 10.60,6.26 10.83,4.51 9.12,3.45 6.91,2.68 4.62,1.83 2.58,1.21 1.65,0.98 1.43,0.87 1.23,0.71 1.09,0.51 0.99,0.27 0.96,0.02 0.98,-0.23 1.06,-0.46 1.20,-0.67 1.39,-0.85 1.61,-0.97 1.85,-1.03 2.10,-1.04 Z" fill="#000000" opacity="1" pointer-events="all"/></g><g text-align="left" text-anchor="start" fill="#000000" transform="translate(220.00, 697.66) rotate(0.00, 32.00, 11.50)"><text y="14" letter-spacing="0" font-size="28px" font-family="&quot;Amatic SC&quot;, cursive" text-align="start" alignment-baseline="central" transform="scale(0.48283077496273796)">共享策略</text></g><g id="5a2eb7b1-dc05-4dd2-338d-f002991061f6_svg" class="tl-centered-g" transform="translate(400.67, 682.33) rotate(0.00, 14.66, 79.33)"><path d="M-0.98,158.10 Q-0.25,156.85 0.16,155.91 T1.15,153.53 2.43,150.16 3.70,145.96 4.81,141.11 5.71,135.79 6.37,130.11 6.86,124.25 7.39,117.97 8.24,110.92 9.31,103.43 10.44,95.82 11.54,88.21 12.61,80.58 13.85,73.18 15.21,66.58 16.37,60.98 17.31,56.26 18.18,52.26 19.00,48.62 19.77,45.15 20.42,42.01 21.00,39.33 21.50,36.94 22.05,34.46 22.74,31.97 23.31,29.76 23.72,27.82 24.23,25.27 24.79,22.07 25.32,19.28 25.84,16.18 26.17,13.17 26.45,11.01 26.75,9.06 27.14,6.77 27.62,4.49 27.89,2.69 27.14,2.63 24.82,4.59 22.49,6.25 19.52,8.09 17.21,9.48 16.88,9.58 16.53,9.57 16.21,9.45 15.94,9.23 15.75,8.94 15.67,8.60 15.70,8.26 15.83,7.94 16.06,7.68 16.37,7.51 16.71,7.45 17.05,7.50 17.36,7.65 17.60,7.89 17.76,8.20 17.80,8.55 17.74,8.89 17.57,9.19 17.31,9.42 16.99,9.56 16.65,9.58 16.31,9.50 16.02,9.31 15.80,9.04 15.68,8.72 15.67,8.37 15.78,8.04 15.98,7.76 16.10,7.64 18.30,6.28 21.29,4.43 22.93,3.38 25.23,1.86 27.87,0.62 29.60,1.30 30.04,3.12 29.74,4.98 29.32,7.23 28.98,9.41 28.68,11.31 28.39,13.44 28.11,15.64 27.73,18.29 27.28,21.09 26.90,23.21 26.46,25.73 25.97,28.30 25.54,30.34 24.95,32.58 24.30,34.96 23.75,37.42 23.24,39.82 22.68,42.48 22.02,45.66 21.24,49.12 20.43,52.75 19.57,56.72 18.62,61.44 17.46,67.04 16.12,73.56 14.89,80.90 13.82,88.54 12.72,96.16 11.58,103.76 10.52,111.19 9.68,118.16 9.14,124.44 8.65,130.38 7.97,136.17 7.03,141.63 5.88,146.63 4.54,150.97 3.23,154.41 2.16,156.91 1.33,158.59 0.90,159.33 0.71,159.52 0.48,159.67 0.23,159.76 -0.04,159.78 -0.31,159.74 -0.56,159.63 -0.77,159.47 -0.94,159.26 -1.06,159.02 -1.11,158.75 -1.10,158.48 -1.03,158.22 Z" fill="#000000" opacity="1" pointer-events="all"/></g><g id="7d8e3d37-1852-4cd4-071d-dc00f787adff_svg" class="tl-centered-g" transform="translate(430.00, 684.33) rotate(0.00, 6.00, 6.33)"><path d="M0.51,-0.93 Q2.14,-0.04 2.88,0.50 T4.74,1.95 6.74,3.77 8.27,5.63 10.14,8.45 11.45,10.47 11.57,10.77 11.59,11.10 11.50,11.42 11.32,11.69 11.06,11.89 10.75,12.00 10.42,12.00 10.10,11.89 9.84,11.69 9.66,11.42 9.57,11.10 9.58,10.78 9.71,10.47 9.92,10.22 10.20,10.05 10.52,9.98 10.85,10.01 11.15,10.15 11.39,10.38 11.54,10.67 11.60,10.99 11.55,11.32 11.39,11.61 11.15,11.84 10.85,11.97 10.53,12.01 10.20,11.94 9.92,11.77 9.79,11.66 8.74,10.07 7.19,7.71 5.93,6.08 4.32,4.45 2.29,2.76 0.29,1.38 -0.62,0.85 -0.80,0.68 -0.94,0.47 -1.03,0.23 -1.05,-0.02 -1.01,-0.28 -0.92,-0.51 -0.77,-0.72 -0.58,-0.88 -0.35,-0.99 -0.10,-1.05 0.15,-1.04 0.40,-0.97 Z" fill="#000000" opacity="1" pointer-events="all"/></g><g text-align="left" text-anchor="start" fill="#000000" transform="translate(346.34, 757.66) rotate(0.00, 36.50, 12.50)"><text y="14" letter-spacing="0" font-size="28px" font-family="&quot;Amatic SC&quot;, cursive" text-align="start" alignment-baseline="central" transform="scale(0.561315789473685)">共享状态</text></g><g id="29d7b0ae-a0e2-46e4-039b-9e500ced730f_svg" class="tl-centered-g" transform="translate(654.67, 528.99) rotate(0.00, 21.66, 81.00)"><path d="M42.20,162.00 Q42.19,159.49 42.19,157.86 T42.10,154.34 41.68,150.40 40.85,146.21 39.53,141.74 37.94,137.01 36.32,132.37 34.77,127.69 33.27,122.73 31.74,117.51 30.16,111.79 28.64,105.62 27.35,99.30 26.23,93.07 25.24,86.99 24.15,80.87 22.91,74.71 21.82,68.55 21.02,62.58 20.43,57.14 19.92,52.39 19.45,48.20 19.03,44.42 18.62,40.84 18.32,37.49 18.11,34.31 17.95,31.18 17.75,28.31 17.42,25.52 17.01,22.76 16.53,20.22 16.08,17.99 15.67,16.10 15.10,13.87 14.36,11.64 13.72,9.68 13.34,6.99 13.15,4.35 12.06,3.38 9.72,3.75 7.30,4.46 5.32,5.45 3.30,6.89 2.02,7.83 1.71,7.91 1.39,7.89 1.10,7.77 0.86,7.56 0.70,7.29 0.64,6.98 0.68,6.66 0.81,6.38 1.03,6.15 1.32,6.00 1.63,5.96 1.94,6.01 2.22,6.17 2.44,6.40 2.57,6.69 2.59,7.01 2.52,7.31 2.35,7.58 2.11,7.79 1.81,7.90 1.50,7.91 1.19,7.82 0.93,7.64 0.74,7.38 0.65,7.08 0.65,6.77 0.76,6.47 0.95,6.22 1.07,6.11 2.61,5.05 5.08,3.39 6.87,2.44 8.82,1.77 11.01,1.36 13.48,1.84 15.09,3.83 15.46,6.75 15.77,9.09 16.42,10.87 17.28,13.24 17.92,15.61 18.34,17.54 18.79,19.80 19.28,22.42 19.70,25.25 20.04,28.14 20.25,31.06 20.40,34.16 20.62,37.28 20.91,40.58 21.31,44.16 21.74,47.94 22.21,52.14 22.72,56.90 23.30,62.27 24.09,68.15 25.17,74.26 26.42,80.47 27.50,86.62 28.50,92.66 29.61,98.84 30.88,105.07 32.38,111.18 33.94,116.86 35.47,122.07 36.95,126.97 38.49,131.61 40.12,136.28 41.73,141.10 43.09,145.77 43.95,150.16 44.38,154.28 44.47,157.86 44.46,160.75 44.44,162.14 44.38,162.40 44.25,162.64 44.07,162.84 43.85,162.99 43.60,163.09 43.33,163.12 43.06,163.09 42.81,162.99 42.59,162.84 42.41,162.64 42.28,162.40 42.22,162.14 Z" fill="#000000" opacity="1" pointer-events="all"/></g><g id="ed91597b-9254-4846-2c13-5dc4743a4a83_svg" class="tl-centered-g" transform="translate(668.67, 532.99) rotate(0.00, 8.66, 5.33)"><path d="M1.37,-0.82 Q2.63,0.25 3.41,0.79 T5.02,1.80 6.60,2.75 8.48,3.90 10.66,5.21 13.00,6.67 14.44,7.63 14.66,7.89 14.78,8.22 14.79,8.56 14.69,8.89 14.50,9.17 14.22,9.37 13.89,9.48 13.55,9.47 13.22,9.36 12.95,9.14 12.77,8.86 12.68,8.52 12.70,8.18 12.84,7.86 13.06,7.61 13.36,7.43 13.70,7.37 14.04,7.41 14.35,7.56 14.59,7.80 14.75,8.11 14.80,8.45 14.74,8.78 14.57,9.08 14.32,9.32 14.00,9.46 13.66,9.49 13.33,9.41 13.17,9.34 11.35,8.15 8.49,6.39 6.09,5.00 3.83,3.66 2.07,2.51 0.59,1.36 -0.12,0.72 -0.27,0.51 -0.37,0.27 -0.40,0.02 -0.38,-0.24 -0.29,-0.48 -0.14,-0.70 0.05,-0.87 0.27,-1.00 0.52,-1.06 0.78,-1.07 1.03,-1.01 1.27,-0.89 Z" fill="#000000" opacity="1" pointer-events="all"/></g><g text-align="left" text-anchor="start" fill="#000000" transform="translate(629.17, 604.99) rotate(0.00, 29.00, 11.00)"><text y="14" letter-spacing="0" font-size="28px" font-family="&quot;Amatic SC&quot;, cursive" text-align="start" alignment-baseline="central" transform="scale(0.3684210526315789)">定义语法</text></g><g id="37671858-b9ec-4996-2ffc-f89ebf1336c0_svg" class="tl-centered-g" transform="translate(500.00, 678.33) rotate(0.00, 72.67, 30.66)"><path d="M145.34,62.45 Q144.26,62.44 143.33,62.44 T140.64,62.45 136.24,62.37 130.12,62.04 122.50,61.35 113.69,60.21 104.55,58.75 95.90,57.14 87.65,55.15 80.07,52.79 73.36,50.34 67.28,47.83 61.83,45.17 56.86,42.52 52.23,39.85 47.93,37.08 44.00,34.44 40.40,31.87 36.93,29.16 33.53,26.49 30.43,24.10 27.87,22.06 25.75,20.41 23.84,18.93 22.12,17.45 20.16,15.73 18.16,13.86 16.54,11.89 15.12,10.05 13.88,8.62 12.69,7.22 11.45,5.59 9.96,3.87 8.37,3.86 7.04,5.76 5.98,7.96 4.98,10.64 4.19,13.03 3.45,15.17 2.42,17.89 1.82,19.46 1.68,19.77 1.45,20.01 1.16,20.17 0.83,20.23 0.50,20.17 0.20,20.02 -0.03,19.78 -0.18,19.47 -0.21,19.14 -0.14,18.81 0.03,18.52 0.28,18.30 0.59,18.18 0.93,18.16 1.25,18.25 1.53,18.43 1.73,18.70 1.84,19.02 1.85,19.35 1.74,19.67 1.54,19.94 1.26,20.13 0.94,20.22 0.60,20.20 0.29,20.08 0.03,19.87 -0.14,19.58 -0.21,19.25 -0.22,19.08 0.40,17.38 1.46,14.42 2.48,11.58 3.57,8.53 4.69,5.93 5.83,3.73 7.18,1.63 8.90,0.78 10.45,1.56 11.90,3.06 13.49,4.91 14.92,6.55 16.18,7.92 17.50,9.60 18.96,11.42 20.62,13.10 22.22,14.49 23.62,15.71 25.24,17.11 27.16,18.60 29.30,20.26 31.83,22.28 34.95,24.68 38.35,27.35 41.73,29.99 45.28,32.53 49.18,35.15 53.38,37.86 57.94,40.49 62.83,43.11 68.16,45.71 74.15,48.19 80.75,50.60 88.19,52.92 96.32,54.89 104.91,56.49 113.98,57.95 122.70,59.08 130.24,59.77 136.28,60.11 140.64,60.21 143.33,60.22 144.80,60.21 145.47,60.22 145.74,60.29 145.97,60.41 146.18,60.59 146.33,60.81 146.42,61.06 146.46,61.33 146.42,61.60 146.33,61.85 146.18,62.07 145.97,62.25 145.74,62.37 145.47,62.44 Z" fill="#000000" opacity="1" pointer-events="all"/></g><g id="ab633937-c6f4-4858-0803-f8554859c875_svg" class="tl-centered-g" transform="translate(507.34, 676.99) rotate(0.00, 15.00, 2.00)"><path d="M-0.31,2.92 Q0.95,2.58 2.50,2.34 T5.18,1.94 7.95,1.56 11.43,1.10 15.02,0.59 18.29,0.12 20.96,-0.22 23.89,-0.54 25.82,-0.70 26.17,-0.62 26.48,-0.43 26.71,-0.15 26.84,0.19 26.85,0.55 26.75,0.89 26.54,1.19 26.25,1.40 25.91,1.52 25.55,1.51 25.21,1.39 24.92,1.17 24.73,0.87 24.63,0.52 24.66,0.16 24.79,-0.17 25.03,-0.45 25.34,-0.63 25.70,-0.70 26.05,-0.66 26.38,-0.50 26.64,-0.25 26.80,0.07 26.86,0.43 26.80,0.78 26.62,1.10 26.36,1.34 26.03,1.49 25.85,1.54 24.14,1.72 21.25,2.05 18.61,2.38 15.34,2.83 11.71,3.33 8.25,3.77 5.46,4.12 2.93,4.49 0.93,4.89 0.17,5.10 -0.09,5.11 -0.36,5.05 -0.60,4.94 -0.80,4.77 -0.96,4.55 -1.07,4.30 -1.11,4.04 -1.09,3.77 -1.00,3.52 -0.86,3.29 -0.66,3.11 -0.43,2.98 Z" fill="#000000" opacity="1" pointer-events="all"/></g><g text-align="left" text-anchor="start" fill="#000000" transform="translate(532.67, 734.66) rotate(0.00, 38.00, 11.50)"><text y="14" letter-spacing="0" font-size="28px" font-family="&quot;Amatic SC&quot;, cursive" text-align="start" alignment-baseline="central" transform="scale(0.4736842105263152)">共享终结符</text></g><g id="1b273b85-481a-414d-26ff-baf0c37c1e0e_svg" class="tl-centered-g" transform="translate(780.00, 617.66) rotate(0.00, 67.00, 53.66)"><path d="M0.00,106.20 Q1.61,106.21 2.65,106.03 T5.47,105.46 9.83,104.50 15.46,103.26 21.87,101.64 28.52,99.74 34.90,97.73 41.14,95.38 47.47,92.50 54.15,88.98 61.28,84.87 68.28,80.53 74.65,76.29 80.34,71.96 85.45,67.23 90.18,62.32 94.73,57.38 99.14,52.42 103.45,47.61 107.48,42.95 111.12,38.40 114.44,34.25 117.31,30.67 119.66,27.62 121.54,24.97 123.09,22.60 124.40,20.42 125.53,18.31 126.73,16.10 128.07,13.76 129.19,11.56 130.13,9.74 131.04,7.93 131.42,5.75 131.21,3.62 129.99,2.85 127.48,3.72 125.21,4.85 123.02,6.06 119.53,7.88 117.24,8.94 116.90,8.96 116.56,8.86 116.28,8.66 116.07,8.39 115.97,8.06 115.97,7.72 116.08,7.39 116.29,7.12 116.58,6.92 116.91,6.83 117.26,6.86 117.58,6.99 117.84,7.21 118.01,7.51 118.09,7.85 118.05,8.19 117.90,8.50 117.66,8.75 117.35,8.91 117.01,8.96 116.67,8.90 116.37,8.74 116.13,8.49 115.99,8.17 115.96,7.83 116.03,7.49 116.21,7.20 116.48,6.98 116.63,6.89 118.61,5.92 122.00,4.16 124.29,2.92 126.67,1.79 129.67,0.78 132.11,1.25 133.28,3.16 133.58,5.35 133.45,7.56 132.50,10.11 131.24,12.61 130.06,14.89 128.75,17.20 127.55,19.40 126.37,21.60 125.02,23.85 123.42,26.30 121.48,29.03 119.10,32.11 116.23,35.68 112.92,39.84 109.22,44.46 105.16,49.15 100.86,53.94 96.43,58.93 91.84,63.92 87.01,68.91 81.73,73.79 75.93,78.20 69.50,82.49 62.43,86.87 55.22,91.01 48.42,94.59 41.95,97.52 35.59,99.92 29.15,101.94 22.43,103.86 15.95,105.48 10.32,106.72 5.89,107.68 2.83,108.27 0.81,108.45 -0.13,108.44 -0.40,108.38 -0.64,108.25 -0.84,108.07 -0.99,107.85 -1.09,107.60 -1.12,107.33 -1.09,107.06 -0.99,106.81 -0.84,106.59 -0.64,106.41 -0.40,106.28 -0.13,106.22 Z" fill="#000000" opacity="1" pointer-events="all"/></g><g id="68b360f3-1b71-4c22-295c-a3a0d3e7e054_svg" class="tl-centered-g" transform="translate(914.00, 618.33) rotate(0.00, 6.67, 8.00)"><path d="M0.71,-0.83 Q1.97,0.24 2.68,0.80 T4.09,2.10 6.03,4.02 7.96,5.94 9.53,8.04 11.46,11.10 12.57,12.98 12.66,13.31 12.64,13.66 12.52,13.99 12.29,14.25 11.99,14.43 11.65,14.51 11.31,14.47 10.99,14.32 10.74,14.08 10.58,13.78 10.52,13.43 10.57,13.09 10.74,12.78 10.99,12.54 11.30,12.40 11.65,12.36 11.99,12.43 12.29,12.61 12.51,12.88 12.64,13.20 12.66,13.55 12.57,13.88 12.38,14.17 12.10,14.38 11.77,14.49 11.42,14.49 11.09,14.38 10.81,14.17 10.69,14.04 9.59,12.25 7.73,9.32 6.36,7.50 5.10,6.20 3.25,4.34 1.29,2.50 -0.08,1.37 -0.80,0.73 -0.95,0.52 -1.05,0.28 -1.09,0.02 -1.06,-0.24 -0.97,-0.49 -0.82,-0.71 -0.63,-0.88 -0.40,-1.01 -0.15,-1.08 0.11,-1.08 0.37,-1.02 0.60,-0.90 Z" fill="#000000" opacity="1" pointer-events="all"/></g><g text-align="left" text-anchor="start" fill="#000000" transform="translate(803.17, 680.99) rotate(0.00, 33.50, 12.00)"><text y="14" letter-spacing="0" font-size="28px" font-family="&quot;Amatic SC&quot;, cursive" text-align="start" alignment-baseline="central" transform="scale(0.5086842105263165)">增加操作</text></g><g id="cf467ec0-216a-4bf1-196e-eb97da00bc5e_svg" class="tl-centered-g" transform="translate(855.34, 350.33) rotate(0.00, 41.00, 103.67)"><path d="M80.87,207.33 Q80.86,205.18 80.86,203.76 T80.86,200.51 80.86,196.42 80.85,191.29 80.85,185.02 80.85,177.66 80.76,169.43 80.34,159.67 79.67,149.03 78.91,139.29 77.91,130.12 76.73,121.00 75.34,111.92 73.69,103.05 71.86,94.61 69.81,86.76 67.60,79.22 65.26,71.73 62.75,64.21 60.03,56.94 57.23,50.19 54.56,44.00 51.98,38.41 49.47,33.24 47.02,28.50 44.52,24.06 42.13,19.80 39.95,15.98 38.01,12.85 36.40,10.28 35.05,8.13 33.47,6.04 31.69,4.18 29.97,2.98 28.22,2.16 26.50,1.65 24.29,1.38 21.62,1.23 18.96,1.15 16.26,1.10 13.98,1.09 12.10,1.10 9.62,1.10 5.43,1.08 2.60,1.04 2.28,0.93 2.01,0.73 1.82,0.44 1.72,0.12 1.74,-0.23 1.87,-0.54 2.09,-0.80 2.38,-0.98 2.72,-1.05 3.05,-1.01 3.36,-0.87 3.61,-0.63 3.77,-0.33 3.83,0.00 3.77,0.34 3.61,0.64 3.36,0.87 3.05,1.02 2.71,1.05 2.38,0.98 2.09,0.80 1.87,0.54 1.74,0.23 1.72,-0.11 1.82,-0.44 2.01,-0.72 2.28,-0.93 2.60,-1.04 2.77,-1.07 5.43,-1.07 9.63,-1.07 12.11,-1.06 14.78,-1.02 17.75,-0.98 20.37,-0.92 23.10,-0.80 25.82,-0.56 28.10,-0.13 30.09,0.65 32.15,1.84 34.17,3.48 35.78,5.19 36.99,6.90 38.35,9.06 39.96,11.64 41.94,14.83 44.14,18.67 46.52,22.93 49.06,27.44 51.54,32.24 54.07,37.44 56.67,43.09 59.36,49.31 62.18,56.13 64.93,63.48 67.46,71.05 69.81,78.57 72.04,86.18 74.11,94.12 75.95,102.63 77.61,111.57 79.01,120.70 80.20,129.87 81.20,139.11 81.96,148.89 82.63,159.57 83.06,169.40 83.15,177.66 83.15,185.02 83.15,191.29 83.14,196.42 83.14,200.51 83.14,203.76 83.13,206.25 83.11,207.47 83.05,207.73 82.92,207.97 82.74,208.17 82.52,208.32 82.27,208.42 82.00,208.45 81.73,208.42 81.48,208.32 81.26,208.17 81.08,207.97 80.95,207.73 80.89,207.47 Z" fill="#000000" opacity="1" pointer-events="all"/></g><g id="bd26d88e-5598-465d-38c9-fb64b786d335_svg" class="tl-centered-g" transform="translate(854.67, 342.99) rotate(0.00, 6.67, 9.00)"><path d="M6.84,1.02 Q5.77,1.20 4.70,1.66 T2.78,2.57 2.07,3.92 2.90,5.95 4.29,8.14 5.86,10.17 7.71,12.32 9.93,14.53 11.30,15.70 11.53,15.94 11.66,16.25 11.69,16.58 11.61,16.91 11.43,17.19 11.17,17.40 10.86,17.52 10.52,17.53 10.20,17.43 9.93,17.23 9.74,16.96 9.64,16.65 9.65,16.31 9.76,16.00 9.97,15.74 10.25,15.56 10.57,15.47 10.91,15.50 11.21,15.63 11.46,15.85 11.63,16.14 11.69,16.47 11.65,16.80 11.50,17.10 11.26,17.34 10.97,17.49 10.64,17.53 10.31,17.47 10.15,17.41 8.11,15.54 5.12,12.57 3.39,10.35 1.88,8.12 0.50,5.74 -0.05,3.36 0.87,1.63 2.56,0.50 4.42,-0.41 5.96,-0.93 6.62,-1.02 6.87,-1.01 7.11,-0.93 7.32,-0.80 7.49,-0.62 7.61,-0.41 7.68,-0.17 7.69,0.08 7.64,0.32 7.54,0.54 7.38,0.74 7.19,0.89 6.96,0.98 Z" fill="#000000" opacity="1" pointer-events="all"/></g><g text-align="left" text-anchor="start" fill="#000000" transform="translate(924.67, 531.66) rotate(0.00, 33.00, 12.00)"><text y="14" letter-spacing="0" font-size="28px" font-family="&quot;Amatic SC&quot;, cursive" text-align="start" alignment-baseline="central" transform="scale(0.505613651780668)">定义遍历</text></g><g id="02b76b59-c087-4f50-02b0-c84008a4f082_svg" class="tl-centered-g" transform="translate(720.34, 457.66) rotate(0.00, 243.50, 16.17)"><path d="M 487,0 L 0,32.340000000000146 M 14.95,22.32687781801996 L 0,32.340000000000146 16.15,40.28732010834765" stroke-width="8" stroke="none" fill="none" pointer-events="all"/><path d="M 487,0 L 0,32.340000000000146 M 14.95,22.32687781801996 L 0,32.340000000000146 16.15,40.28732010834765" stroke="#000000" stroke-width="2" stroke-linejoin="round" stroke-linecap="round" fill="none" pointer-events="none" opacity="1"/></g><g text-align="left" text-anchor="start" fill="#000000" transform="translate(982.34, 454.33) rotate(0.00, 43.00, 11.50)"><text y="14" letter-spacing="0" font-size="28px" font-family="&quot;Amatic SC&quot;, cursive" text-align="start" alignment-baseline="central" transform="scale(0.45631578947368806)">使用组合命令</text></g><g id="daec267d-f359-4a4b-33d3-bbe68e61b7ea_svg" class="tl-centered-g" transform="translate(852.00, 210.99) rotate(0.00, 182.34, 118.33)"><path d="M364.13,237.66 Q362.15,236.59 360.43,235.56 T355.81,232.60 348.26,227.96 337.65,221.70 324.75,213.79 310.73,204.59 296.43,194.35 281.83,182.82 267.02,169.71 252.16,155.28 237.35,140.07 222.86,124.84 208.88,110.49 195.62,97.69 183.44,86.73 172.03,77.29 160.93,69.06 150.16,62.07 139.60,56.07 128.85,50.70 117.95,45.79 107.19,41.21 96.72,36.96 86.90,32.86 77.99,28.87 69.70,25.06 61.68,21.47 54.30,18.23 48.00,15.49 42.80,13.42 38.44,11.71 34.62,10.19 31.41,9.01 28.85,8.03 26.65,7.25 24.73,6.68 22.33,5.97 19.37,5.08 16.91,4.45 14.80,4.00 12.83,3.61 10.85,3.34 8.79,3.20 6.77,2.95 3.56,2.23 1.25,1.61 1.01,1.39 0.85,1.11 0.79,0.79 0.83,0.47 0.97,0.18 1.20,-0.04 1.49,-0.19 1.81,-0.23 2.13,-0.17 2.41,-0.01 2.63,0.23 2.76,0.53 2.78,0.85 2.70,1.16 2.53,1.43 2.28,1.64 1.97,1.75 1.65,1.76 1.34,1.66 1.08,1.47 0.89,1.21 0.80,0.90 0.80,0.58 0.92,0.28 1.12,0.02 1.39,-0.15 1.70,-0.23 2.03,-0.20 2.19,-0.16 4.12,0.29 6.99,0.92 8.91,1.13 11.07,1.27 13.27,1.55 15.28,1.92 17.39,2.32 19.92,2.92 22.90,3.77 25.38,4.48 27.42,5.08 29.67,5.89 32.20,6.85 35.47,8.06 39.28,9.57 43.65,11.28 48.91,13.38 55.22,16.12 62.62,19.37 70.66,22.97 78.93,26.77 87.78,30.74 97.59,34.83 108.09,39.09 118.89,43.69 129.88,48.64 140.74,54.07 151.41,60.14 162.30,67.21 173.49,75.51 184.97,85.01 197.22,96.03 210.52,108.88 224.53,123.25 239.00,138.47 253.76,153.63 268.54,167.99 283.26,181.02 297.76,192.48 311.99,202.67 325.95,211.83 338.81,219.73 349.47,226.02 357.03,230.68 361.55,233.59 364.23,235.14 365.32,235.76 365.52,235.94 365.67,236.16 365.76,236.42 365.79,236.69 365.75,236.96 365.65,237.21 365.50,237.43 365.29,237.60 365.05,237.73 364.79,237.79 364.52,237.78 364.26,237.71 Z" fill="#000000" opacity="1" pointer-events="all"/></g><g id="2ef01874-6b0b-43e2-0a59-58e701e4cde5_svg" class="tl-centered-g" transform="translate(843.34, 205.66) rotate(0.00, 9.66, 9.00)"><path d="M19.19,1.75 Q17.76,1.57 16.63,1.45 T14.33,1.26 12.20,1.19 10.27,1.18 8.31,1.17 5.84,1.15 4.14,1.97 4.66,3.82 6.31,6.05 8.00,8.37 9.49,10.31 11.64,12.89 13.18,14.78 13.32,15.10 13.35,15.46 13.27,15.80 13.08,16.10 12.81,16.33 12.48,16.46 12.12,16.47 11.78,16.37 11.49,16.16 11.28,15.88 11.17,15.54 11.17,15.18 11.29,14.85 11.51,14.57 11.81,14.37 12.16,14.28 12.51,14.31 12.84,14.45 13.11,14.68 13.29,14.99 13.36,15.34 13.31,15.69 13.16,16.01 12.91,16.27 12.59,16.43 12.24,16.48 11.89,16.41 11.58,16.24 11.44,16.13 9.95,14.36 7.70,11.67 6.19,9.68 4.52,7.35 2.80,4.94 1.54,2.80 1.54,0.51 3.19,-0.93 5.86,-1.06 8.34,-1.04 10.30,-1.00 12.26,-0.95 14.46,-0.86 16.86,-0.69 18.75,-0.50 19.59,-0.38 19.84,-0.29 20.05,-0.14 20.22,0.06 20.34,0.29 20.41,0.54 20.40,0.81 20.34,1.06 20.22,1.29 20.04,1.48 19.83,1.63 19.58,1.72 19.33,1.75 Z" fill="#000000" opacity="1" pointer-events="all"/></g><g text-align="left" text-anchor="start" fill="#000000" transform="translate(1002.84, 260.16) rotate(0.00, 35.50, 12.50)"><text y="14" letter-spacing="0" font-size="28px" font-family="&quot;Amatic SC&quot;, cursive" text-align="start" alignment-baseline="central" transform="scale(0.5436842105263145)">避免滞后</text></g><g id="b23d6555-b96d-4747-00c9-90911ede918c_svg" class="tl-centered-g" transform="translate(718.67, 497.33) rotate(0.00, 263.00, 65.00)"><path d="M525.75,131.10 Q524.14,130.73 523.14,130.41 T521.10,129.78 518.68,128.86 515.62,127.45 511.77,125.83 507.18,124.12 502.36,122.31 497.67,120.54 493.16,118.80 488.66,116.89 484.05,114.86 479.17,112.76 474.25,110.69 469.56,108.63 465.04,106.49 460.42,104.30 455.40,101.80 450.18,98.97 444.84,95.82 439.48,92.35 434.16,88.83 428.67,85.38 423.13,81.96 417.73,78.55 412.50,75.06 407.43,71.62 402.50,68.40 397.70,65.23 393.20,62.09 389.01,59.08 384.96,56.07 380.96,53.27 377.13,50.68 373.53,48.34 370.17,46.18 366.99,44.05 363.80,42.07 360.50,40.18 356.96,38.46 353.13,36.85 349.15,35.30 344.99,33.82 340.59,32.28 335.95,30.70 331.03,29.11 326.19,27.58 321.41,26.20 316.40,24.93 311.07,23.82 305.36,22.74 299.58,21.78 293.83,20.89 287.89,19.87 281.71,18.96 275.49,18.20 269.69,17.56 264.45,17.00 259.64,16.50 255.07,16.14 250.19,15.78 244.83,15.43 239.23,15.18 233.68,14.90 228.61,14.51 224.00,14.05 219.73,13.54 215.65,13.07 211.51,12.64 207.12,12.15 202.56,11.61 198.23,11.03 194.54,10.52 191.46,10.06 188.40,9.54 184.65,8.89 180.39,8.15 176.20,7.42 172.43,6.81 169.07,6.36 165.61,5.95 161.67,5.55 157.28,5.27 152.73,5.05 148.29,4.81 144.06,4.54 139.66,4.34 135.09,4.20 130.49,4.10 125.88,4.02 121.42,3.96 116.94,4.01 112.34,4.23 107.53,4.56 102.77,4.99 98.47,5.39 94.68,5.68 91.09,5.90 87.27,5.96 83.40,5.92 79.68,5.80 76.12,5.53 72.91,5.25 70.14,5.04 67.68,4.89 65.04,4.69 61.95,4.45 58.65,4.28 55.60,4.15 52.97,3.97 50.77,3.74 48.85,3.58 46.78,3.37 44.64,3.13 42.67,2.95 40.81,2.72 38.49,2.38 35.87,2.08 33.26,1.76 30.71,1.43 28.63,1.25 26.53,1.13 24.22,1.06 21.57,1.06 18.77,1.06 16.58,1.06 14.67,1.17 12.75,1.34 10.29,1.48 7.79,1.74 4.64,2.25 2.28,2.58 1.95,2.54 1.65,2.39 1.41,2.16 1.26,1.86 1.21,1.53 1.27,1.20 1.43,0.91 1.68,0.68 1.99,0.54 2.32,0.51 2.65,0.59 2.93,0.77 3.14,1.03 3.26,1.34 3.27,1.68 3.18,2.00 2.99,2.27 2.72,2.47 2.40,2.57 2.06,2.56 1.75,2.45 1.48,2.24 1.30,1.96 1.22,1.64 1.24,1.31 1.37,1.00 1.59,0.75 1.88,0.58 2.04,0.52 4.25,0.17 7.56,-0.40 10.16,-0.70 12.58,-0.84 14.58,-0.98 17.22,-1.05 20.17,-1.03 23.02,-1.00 25.74,-0.96 27.86,-0.90 29.79,-0.79 32.25,-0.57 34.87,-0.27 37.43,-0.00 40.35,0.36 42.87,0.67 44.90,0.85 47.01,1.09 49.04,1.30 51.00,1.46 53.14,1.68 55.70,1.86 58.77,1.98 62.13,2.16 65.21,2.40 67.82,2.60 70.31,2.75 73.11,2.96 76.29,3.24 79.76,3.50 83.43,3.62 87.23,3.67 90.95,3.60 94.50,3.39 98.26,3.10 102.57,2.69 107.37,2.27 112.23,1.93 116.91,1.71 121.45,1.66 125.91,1.72 130.54,1.80 135.16,1.90 139.76,2.05 144.21,2.24 148.42,2.51 152.83,2.76 157.43,2.97 161.90,3.26 165.89,3.66 169.37,4.08 172.79,4.54 176.59,5.16 180.78,5.88 185.04,6.62 188.79,7.27 191.81,7.78 194.85,8.24 198.54,8.75 202.83,9.32 207.37,9.86 211.75,10.35 215.91,10.79 220.01,11.25 224.23,11.77 228.79,12.22 233.80,12.60 239.34,12.88 244.99,13.14 250.36,13.49 255.25,13.84 259.87,14.21 264.70,14.71 269.94,15.27 275.77,15.92 282.04,16.69 288.28,17.61 294.18,18.61 299.96,19.51 305.79,20.48 311.54,21.57 316.97,22.70 322.04,23.99 326.88,25.39 331.75,26.92 336.69,28.53 341.35,30.11 345.77,31.65 349.98,33.16 354.02,34.73 357.97,36.40 361.64,38.19 365.01,40.12 368.26,42.14 371.42,44.25 374.78,46.42 378.42,48.78 382.27,51.39 386.33,54.23 390.35,57.21 394.51,60.21 398.97,63.31 403.75,66.47 408.72,69.72 413.78,73.15 418.95,76.60 424.34,80.00 429.90,83.43 435.42,86.91 440.74,90.42 446.01,93.84 451.28,96.95 456.42,99.74 461.40,102.23 466.03,104.41 470.49,106.53 475.15,108.57 480.07,110.65 484.97,112.76 489.56,114.77 493.98,116.66 498.48,118.40 503.17,120.16 507.99,121.97 512.66,123.73 516.58,125.38 519.48,126.73 521.78,127.62 523.73,128.25 525.44,128.72 526.37,128.94 526.62,129.06 526.82,129.24 526.98,129.46 527.08,129.71 527.12,129.98 527.09,130.24 527.00,130.50 526.85,130.72 526.66,130.91 526.42,131.04 526.16,131.11 525.89,131.11 Z" fill="#000000" opacity="1" pointer-events="all"/></g><g id="13ffc347-4dcc-4486-3f07-f8edf802521b_svg" class="tl-centered-g" transform="translate(715.34, 492.66) rotate(0.00, 7.33, 6.33)"><path d="M5.52,0.64 Q4.97,1.36 4.37,2.00 T3.18,3.54 3.15,5.41 4.71,6.85 6.68,7.69 10.12,9.20 12.73,10.43 12.97,10.68 13.11,11.00 13.15,11.35 13.07,11.69 12.89,11.98 12.63,12.21 12.30,12.33 11.95,12.35 11.62,12.25 11.33,12.06 11.12,11.78 11.01,11.45 11.02,11.10 11.13,10.77 11.34,10.50 11.63,10.30 11.97,10.21 12.31,10.23 12.64,10.36 12.90,10.59 13.08,10.89 13.15,11.23 13.11,11.58 12.96,11.89 12.72,12.14 12.41,12.30 12.07,12.36 11.73,12.30 11.56,12.24 10.02,11.49 7.65,10.43 5.78,9.68 3.50,8.58 1.29,6.27 0.90,3.46 2.38,1.19 3.54,-0.28 3.89,-0.74 4.09,-0.90 4.32,-1.01 4.57,-1.06 4.83,-1.05 5.08,-0.98 5.30,-0.85 5.48,-0.67 5.62,-0.46 5.70,-0.21 5.72,0.04 5.68,0.29 5.58,0.53 Z" fill="#000000" opacity="1" pointer-events="all"/></g><g text-align="left" text-anchor="start" fill="#000000" transform="translate(1110.50, 542.66) rotate(0.00, 29.50, 13.00)"><text y="14" letter-spacing="0" font-size="28px" font-family="&quot;Amatic SC&quot;, cursive" text-align="start" alignment-baseline="central" transform="scale(0.5814893617021261)">定义链</text></g><g id="6e2dc1e6-b6cc-41c6-33f0-4291de22caa3_svg" class="tl-centered-g" transform="translate(934.67, 830.66) rotate(0.00, 108.67, 7.33)"><path d="M217.68,1.07 Q216.60,1.41 214.35,2.06 T209.79,3.21 203.88,4.35 195.58,5.56 185.64,6.53 174.88,7.23 163.79,7.75 152.91,8.13 142.26,8.40 131.54,8.78 120.93,9.33 110.66,9.91 100.91,10.51 91.90,11.04 83.77,11.43 76.75,11.71 70.64,11.92 64.82,12.07 58.97,12.27 53.27,12.59 48.11,12.92 43.79,13.16 40.09,13.34 36.84,13.47 33.93,13.56 31.17,13.63 28.44,13.68 25.45,13.72 22.40,13.83 19.55,14.01 17.08,14.13 15.10,14.22 13.01,14.29 10.58,14.34 8.27,14.38 6.32,14.40 4.01,14.68 2.41,14.98 2.05,14.99 1.71,14.88 1.42,14.66 1.22,14.37 1.12,14.03 1.13,13.67 1.26,13.34 1.49,13.06 1.80,12.87 2.14,12.79 2.50,12.83 2.83,12.97 3.09,13.22 3.26,13.53 3.32,13.88 3.27,14.24 3.10,14.55 2.85,14.80 2.52,14.96 2.17,15.00 1.82,14.93 1.51,14.74 1.28,14.48 1.14,14.14 1.12,13.79 1.21,13.44 1.41,13.14 1.69,12.92 1.85,12.84 3.63,12.48 6.29,12.12 8.24,12.09 10.53,12.05 12.93,12.00 14.99,11.93 16.96,11.84 19.41,11.71 22.31,11.54 25.42,11.42 28.39,11.38 31.11,11.33 33.86,11.27 36.75,11.17 39.98,11.04 43.66,10.87 47.97,10.63 53.14,10.30 58.89,9.97 64.76,9.77 70.56,9.62 76.66,9.41 83.66,9.13 91.76,8.74 100.77,8.22 110.53,7.61 120.82,7.03 131.46,6.49 142.21,6.11 152.83,5.84 163.69,5.46 174.73,4.96 185.42,4.26 195.25,3.31 203.44,2.14 209.31,1.02 213.76,-0.09 216.44,-0.88 217.11,-1.09 217.38,-1.11 217.64,-1.07 217.89,-0.96 218.10,-0.80 218.27,-0.59 218.39,-0.35 218.44,-0.09 218.43,0.18 218.35,0.44 218.22,0.67 218.03,0.86 217.81,1.01 Z" fill="#000000" opacity="1" pointer-events="all"/></g><g id="fbb06e14-b260-414b-2618-3ac361abf143_svg" class="tl-centered-g" transform="translate(926.67, 834.66) rotate(0.00, 19.34, 9.34)"><path d="M24.67,1.12 Q23.77,1.10 22.54,1.41 T20.30,2.07 18.27,2.79 16.23,3.50 14.16,4.12 12.11,4.66 10.22,5.22 8.49,5.80 6.35,6.68 6.05,8.27 8.82,9.94 12.99,11.15 18.12,12.32 23.19,13.55 27.36,14.63 29.32,15.16 29.63,15.35 29.85,15.64 29.98,15.98 29.99,16.34 29.88,16.69 29.66,16.99 29.37,17.20 29.02,17.30 28.66,17.29 28.31,17.16 28.03,16.93 27.84,16.63 27.75,16.27 27.78,15.91 27.93,15.58 28.17,15.31 28.49,15.13 28.85,15.06 29.21,15.11 29.53,15.28 29.79,15.53 29.95,15.86 30.00,16.22 29.93,16.58 29.75,16.90 29.47,17.14 29.14,17.28 28.78,17.31 28.59,17.29 26.78,16.83 22.65,15.75 17.62,14.51 12.34,13.29 7.93,11.96 4.87,10.63 2.66,8.89 2.22,6.86 4.03,5.27 6.09,4.28 7.77,3.65 9.57,3.04 11.53,2.47 13.52,1.95 15.50,1.37 17.54,0.69 19.62,-0.02 22.22,-0.74 24.22,-1.11 24.80,-1.10 25.06,-1.04 25.30,-0.91 25.50,-0.73 25.65,-0.51 25.75,-0.26 25.78,0.00 25.75,0.27 25.65,0.51 25.50,0.73 25.30,0.91 25.06,1.04 24.80,1.10 Z" fill="#000000" opacity="1" pointer-events="all"/></g><g text-align="left" text-anchor="start" fill="#000000" transform="translate(1025.34, 809.00) rotate(0.00, 35.50, 17.00)"><text y="14" letter-spacing="0" font-size="28px" font-family="&quot;Amatic SC&quot;, cursive" text-align="start" alignment-baseline="central" transform="scale(0.43424242424242493)">对复杂依赖</text><text y="42" letter-spacing="0" font-size="28px" font-family="&quot;Amatic SC&quot;, cursive" text-align="start" alignment-baseline="central" transform="scale(0.43424242424242493)">关系的管理</text></g><g id="dba8abf6-1a9d-4dc6-17d2-4a2de6d6c79a_svg" class="tl-centered-g" transform="translate(158.00, 802.66) rotate(0.00, 181.67, 106.00)"><path d="M363.34,213.13 Q361.37,213.13 360.11,213.14 T357.30,213.14 353.90,213.14 349.51,213.05 343.87,212.81 337.32,212.36 330.17,211.58 322.90,210.65 315.61,209.62 308.03,208.41 299.79,206.90 290.52,204.89 280.09,202.62 268.27,200.16 255.56,197.28 243.12,194.18 231.43,191.02 220.18,187.72 208.91,184.23 197.61,180.42 186.46,176.28 175.52,171.73 164.65,166.78 153.83,161.55 142.96,156.02 131.88,150.19 120.90,144.12 110.36,138.07 100.50,132.22 91.48,126.49 83.27,120.95 75.71,115.27 68.65,109.21 61.97,103.09 55.73,96.99 50.00,90.90 44.55,84.75 39.49,78.72 35.14,73.04 31.50,67.69 28.48,62.70 25.92,58.16 23.69,54.04 21.69,49.92 19.85,45.53 18.16,40.98 16.40,36.54 14.58,32.33 12.89,28.52 11.39,25.20 10.10,22.31 9.00,19.95 8.08,17.92 7.19,15.43 6.30,12.64 5.53,10.25 4.78,8.02 4.04,6.05 3.47,4.18 3.16,4.44 3.06,6.83 3.03,8.98 2.92,11.05 2.59,13.04 1.97,16.04 1.48,18.22 1.28,18.46 1.01,18.62 0.70,18.69 0.39,18.65 0.10,18.52 -0.13,18.30 -0.28,18.02 -0.33,17.71 -0.28,17.40 -0.13,17.12 0.10,16.90 0.39,16.77 0.70,16.74 1.01,16.81 1.28,16.97 1.48,17.21 1.60,17.50 1.62,17.82 1.53,18.12 1.35,18.38 1.10,18.57 0.80,18.67 0.49,18.67 0.19,18.57 -0.06,18.38 -0.24,18.12 -0.32,17.82 -0.30,17.50 -0.27,17.35 -0.00,15.79 0.56,12.99 0.94,10.86 1.04,8.95 1.08,6.79 1.16,4.59 1.29,2.54 2.05,0.65 3.77,0.30 5.02,1.86 5.48,3.83 6.15,5.76 6.90,7.63 7.63,9.67 8.44,12.04 9.34,14.67 10.18,16.98 11.08,18.97 12.20,21.37 13.48,24.25 14.99,27.59 16.70,31.42 18.54,35.70 20.31,40.18 21.97,44.64 23.75,48.91 25.71,52.94 27.92,57.03 30.45,61.51 33.41,66.40 36.97,71.64 41.25,77.24 46.27,83.23 51.67,89.33 57.34,95.35 63.52,101.39 70.14,107.46 77.10,113.43 84.56,119.05 92.71,124.55 101.67,130.24 111.50,136.08 122.01,142.11 132.95,148.15 144.00,153.97 154.83,159.48 165.60,164.69 176.41,169.61 187.26,174.13 198.34,178.24 209.59,182.03 220.83,185.51 232.03,188.80 243.68,191.95 256.07,195.03 268.73,197.91 280.58,200.38 291.00,202.64 300.20,204.64 308.39,206.14 315.93,207.34 323.19,208.38 330.42,209.30 337.48,210.07 343.97,210.52 349.56,210.77 353.90,210.86 357.30,210.86 360.11,210.86 362.35,210.87 363.48,210.89 363.74,210.95 363.98,211.08 364.18,211.26 364.33,211.48 364.43,211.73 364.46,212.00 364.43,212.27 364.33,212.52 364.18,212.74 363.98,212.92 363.74,213.05 363.48,213.11 Z" fill="#000000" opacity="1" pointer-events="all"/></g><g id="a196b347-8a2c-419e-0e12-182493f698df_svg" class="tl-centered-g" transform="translate(164.67, 804.66) rotate(0.00, 9.00, 3.33)"><path d="M0.59,-0.95 Q2.02,-0.05 3.03,0.43 T5.30,1.33 7.87,2.18 11.24,3.30 13.47,4.07 13.77,4.29 13.98,4.58 14.08,4.93 14.07,5.30 13.94,5.64 13.71,5.92 13.40,6.11 13.05,6.19 12.69,6.16 12.35,6.01 12.09,5.77 11.91,5.45 11.84,5.09 11.90,4.73 12.06,4.41 12.32,4.16 12.65,4.00 13.01,3.95 13.36,4.02 13.68,4.21 13.92,4.48 14.06,4.81 14.08,5.18 13.99,5.53 13.79,5.83 13.51,6.06 13.17,6.18 12.80,6.18 12.62,6.16 10.55,5.46 7.15,4.33 4.44,3.41 1.96,2.38 0.13,1.39 -0.70,0.86 -0.88,0.67 -1.02,0.44 -1.09,0.18 -1.10,-0.08 -1.05,-0.34 -0.94,-0.59 -0.77,-0.79 -0.56,-0.96 -0.31,-1.06 -0.05,-1.11 0.22,-1.09 0.47,-1.00 Z" fill="#000000" opacity="1" pointer-events="all"/></g><g text-align="left" text-anchor="start" fill="#000000" transform="translate(284.00, 936.66) rotate(0.00, 41.00, 11.00)"><text y="14" letter-spacing="0" font-size="28px" font-family="&quot;Amatic SC&quot;, cursive" text-align="start" alignment-baseline="central" transform="scale(0.333157894736838)">定义算法步骤</text></g><g text-align="left" text-anchor="start" fill="#000000" transform="translate(752.01, 1001.33) rotate(0.00, 35.00, 12.50)"><text y="14" letter-spacing="0" font-size="28px" font-family="&quot;Amatic SC&quot;, cursive" text-align="start" alignment-baseline="central" transform="scale(0.5409836065573771)">经常使用</text></g><g id="e96c9e00-ad0a-4916-11f1-ba0691d16531_svg" class="tl-centered-g" transform="translate(812.01, 1047.99) rotate(0.00, 63.33, 70.00)"><path d="M-0.62,139.05 Q2.05,137.30 4.08,135.95 T8.01,133.29 12.30,130.39 17.17,126.93 22.04,123.08 26.72,119.01 31.19,114.76 35.52,110.46 39.83,106.19 44.32,101.79 49.14,97.00 54.19,91.68 59.58,85.81 65.07,79.77 70.28,73.92 75.14,68.30 79.88,62.61 84.68,56.71 89.54,50.71 94.28,44.75 98.74,39.19 102.70,34.26 105.86,30.18 108.38,26.82 110.51,23.88 112.36,21.40 113.89,19.15 115.21,16.98 116.56,14.85 117.82,12.90 118.86,11.14 119.75,9.46 120.63,7.74 121.56,5.98 122.87,3.77 122.52,2.43 118.92,3.44 116.33,4.50 116.00,4.55 115.67,4.49 115.38,4.33 115.15,4.09 115.02,3.79 114.99,3.46 115.06,3.13 115.24,2.85 115.49,2.64 115.80,2.52 116.13,2.50 116.45,2.60 116.72,2.79 116.92,3.05 117.03,3.37 117.02,3.70 116.91,4.01 116.71,4.28 116.43,4.46 116.11,4.54 115.78,4.52 115.47,4.40 115.22,4.18 115.05,3.89 114.98,3.57 115.02,3.24 115.17,2.94 115.40,2.70 115.53,2.60 117.72,1.63 121.00,0.46 123.03,0.14 124.90,0.31 125.93,1.66 125.45,3.70 124.46,5.48 123.58,7.06 122.67,8.78 121.78,10.54 120.84,12.30 119.75,14.16 118.50,16.08 117.17,18.17 115.79,20.44 114.20,22.77 112.37,25.23 110.23,28.20 107.68,31.60 104.49,35.69 100.53,40.63 96.08,46.18 91.33,52.16 86.47,58.16 81.65,64.09 76.88,69.81 72.00,75.45 66.78,81.31 61.27,87.37 55.86,93.27 50.76,98.63 45.93,103.44 41.44,107.82 37.14,112.09 32.77,116.43 28.23,120.74 23.46,124.88 18.50,128.80 13.58,132.29 9.29,135.18 5.33,137.85 1.96,140.08 0.50,141.01 0.24,141.10 -0.03,141.12 -0.30,141.08 -0.55,140.98 -0.77,140.82 -0.94,140.61 -1.06,140.37 -1.12,140.11 -1.11,139.84 -1.04,139.58 -0.91,139.34 -0.72,139.14 Z" fill="#000000" opacity="1" pointer-events="all"/></g><g id="88d7f205-b82e-4298-1966-0f819f344923_svg" class="tl-centered-g" transform="translate(940.00, 1050.66) rotate(0.00, 4.67, 10.34)"><path d="M1.00,-0.50 Q1.91,1.29 2.50,2.38 T3.72,4.74 4.99,7.49 6.18,10.21 7.51,13.49 8.34,15.70 8.38,16.07 8.29,16.42 8.10,16.73 7.82,16.96 7.48,17.09 7.12,17.11 6.77,17.00 6.47,16.80 6.25,16.50 6.14,16.16 6.14,15.79 6.27,15.45 6.49,15.16 6.80,14.96 7.15,14.87 7.51,14.89 7.85,15.03 8.12,15.27 8.31,15.59 8.38,15.94 8.33,16.31 8.18,16.63 7.92,16.89 7.60,17.06 7.24,17.11 6.88,17.05 6.56,16.88 6.31,16.61 6.21,16.45 5.42,14.41 4.08,11.12 2.92,8.44 1.70,5.78 0.49,3.42 -0.56,1.40 -1.05,0.37 -1.11,0.11 -1.10,-0.16 -1.03,-0.41 -0.90,-0.65 -0.72,-0.85 -0.50,-0.99 -0.25,-1.09 0.02,-1.11 0.29,-1.08 0.54,-0.98 0.75,-0.82 0.93,-0.61 Z" fill="#000000" opacity="1" pointer-events="all"/></g><g text-align="left" text-anchor="start" fill="#000000" transform="translate(881.17, 1122.66) rotate(0.00, 59.50, 12.50)"><text y="14" letter-spacing="0" font-size="28px" font-family="&quot;Amatic SC&quot;, cursive" text-align="start" alignment-baseline="central" transform="scale(0.559388835725682)">用工厂方法实现</text></g><g id="f5969f20-5ec0-4d94-0010-f0dc2c9babe8_svg" class="tl-centered-g" transform="translate(310.67, 1123.99) rotate(0.00, 161.34, 38.00)"><path d="M322.67,77.13 Q320.52,77.14 318.69,76.96 T314.47,76.47 308.81,75.66 301.70,74.44 293.29,72.92 284.19,71.28 274.63,69.17 264.22,66.55 253.24,63.74 241.88,60.79 231.06,57.83 221.97,55.12 214.69,52.77 208.74,50.70 203.56,48.73 197.85,46.68 190.66,44.47 182.70,42.14 174.53,39.71 166.06,37.31 156.93,34.93 147.11,32.47 137.06,30.05 126.85,27.65 117.04,25.36 108.44,23.32 100.97,21.47 94.26,19.76 88.19,18.15 82.58,16.61 77.16,15.23 71.79,14.04 66.32,12.90 60.72,11.80 55.09,10.72 49.64,9.76 44.40,8.88 39.20,7.87 34.06,6.86 29.41,5.95 25.57,5.19 22.34,4.64 19.50,4.14 17.14,3.69 14.57,3.25 11.49,2.61 8.61,1.95 6.25,1.54 4.33,1.39 4.62,2.18 6.58,3.63 8.09,4.96 9.47,6.30 11.06,7.94 12.77,9.64 15.11,12.12 16.77,13.98 16.92,14.28 16.96,14.61 16.90,14.94 16.73,15.23 16.48,15.45 16.17,15.58 15.84,15.61 15.51,15.52 15.23,15.34 15.03,15.08 14.91,14.77 14.90,14.43 15.00,14.11 15.20,13.84 15.47,13.65 15.79,13.55 16.13,13.56 16.44,13.68 16.70,13.89 16.88,14.17 16.96,14.50 16.93,14.83 16.80,15.14 16.57,15.39 16.28,15.55 15.95,15.61 15.62,15.56 15.32,15.41 15.18,15.31 13.67,13.66 11.27,11.15 9.46,9.39 7.95,7.83 6.66,6.53 5.25,5.21 3.36,3.67 1.42,2.08 1.48,0.38 3.33,-0.71 5.43,-0.72 7.74,-0.43 10.51,0.12 13.43,0.72 15.66,1.11 17.57,1.43 19.90,1.88 22.72,2.37 26.01,2.93 29.86,3.69 34.50,4.60 39.63,5.61 44.79,6.61 50.04,7.50 55.52,8.47 61.16,9.54 66.79,10.65 72.28,11.80 77.73,13.00 83.19,14.40 88.78,15.93 94.83,17.53 101.53,19.24 108.97,21.08 117.57,23.12 127.37,25.41 137.60,27.81 147.67,30.24 157.51,32.70 166.69,35.10 175.18,37.50 183.34,39.93 191.34,42.28 198.63,44.52 204.38,46.58 209.50,48.53 215.40,50.59 222.63,52.91 231.67,55.61 242.46,58.57 253.80,61.51 264.79,64.32 275.12,66.92 284.60,69.02 293.70,70.67 302.08,72.18 309.13,73.40 314.73,74.20 318.80,74.69 321.59,74.87 322.81,74.89 323.07,74.95 323.31,75.08 323.51,75.26 323.66,75.48 323.76,75.73 323.79,76.00 323.76,76.27 323.66,76.52 323.51,76.74 323.31,76.92 323.07,77.05 322.81,77.11 Z" fill="#000000" opacity="1" pointer-events="all"/></g><g id="2da24539-58d2-44c7-168f-7dd69baa1685_svg" class="tl-centered-g" transform="translate(313.34, 1115.99) rotate(0.00, 14.00, 3.33)"><path d="M-0.16,5.58 Q1.10,5.41 1.99,5.09 T4.16,4.34 6.79,3.42 9.36,2.56 11.49,1.85 13.91,1.06 16.54,0.38 18.91,-0.13 22.38,-0.61 24.77,-0.79 25.10,-0.71 25.39,-0.53 25.60,-0.26 25.72,0.06 25.73,0.40 25.62,0.73 25.42,1.00 25.15,1.20 24.82,1.30 24.48,1.29 24.16,1.17 23.90,0.95 23.71,0.66 23.63,0.33 23.66,-0.01 23.80,-0.32 24.03,-0.57 24.33,-0.74 24.66,-0.80 25.00,-0.75 25.30,-0.60 25.54,-0.36 25.69,-0.05 25.74,0.29 25.67,0.62 25.50,0.92 25.25,1.14 24.93,1.28 24.76,1.32 22.65,1.51 19.31,1.99 17.06,2.52 14.61,3.21 12.21,4.01 10.06,4.71 7.52,5.55 4.87,6.45 2.50,7.22 0.78,7.66 0.02,7.76 -0.24,7.74 -0.49,7.65 -0.71,7.50 -0.88,7.31 -1.01,7.08 -1.08,6.83 -1.09,6.56 -1.03,6.31 -0.91,6.07 -0.74,5.87 -0.53,5.71 -0.28,5.62 Z" fill="#000000" opacity="1" pointer-events="all"/></g><g text-align="left" text-anchor="start" fill="#000000" transform="translate(439.67, 1131.16) rotate(0.00, 60.00, 12.50)"><text y="14" letter-spacing="0" font-size="28px" font-family="&quot;Amatic SC&quot;, cursive" text-align="start" alignment-baseline="central" transform="scale(0.5613157894736822)">动态的配置工厂</text></g><g id="60e40df6-3ce4-4003-19cd-9eb51fba02a5_svg" class="tl-centered-g" transform="translate(434.67, 1218.66) rotate(0.00, 99.67, 31.66)"><path d="M199.55,1.10 Q198.65,1.26 196.97,1.78 T193.42,2.78 189.59,3.78 185.27,4.77 180.04,5.86 173.56,7.27 165.58,9.02 156.64,11.20 147.05,13.68 136.80,16.31 126.00,19.13 114.87,22.08 103.80,25.22 93.02,28.50 82.63,31.80 72.61,35.10 63.15,38.41 54.35,41.64 46.39,44.62 39.48,47.17 33.53,49.30 28.41,51.29 23.98,53.27 20.02,55.18 16.46,56.85 13.31,58.25 10.67,59.45 8.60,60.49 6.86,61.35 4.49,62.53 2.75,63.38 2.39,63.40 2.05,63.31 1.75,63.11 1.53,62.83 1.41,62.49 1.41,62.13 1.52,61.79 1.73,61.50 2.02,61.30 2.37,61.20 2.72,61.22 3.06,61.34 3.33,61.57 3.52,61.88 3.60,62.22 3.57,62.58 3.42,62.91 3.18,63.17 2.87,63.34 2.51,63.40 2.16,63.35 1.84,63.19 1.59,62.93 1.44,62.61 1.39,62.25 1.47,61.90 1.65,61.59 1.92,61.36 2.07,61.26 4.33,60.10 7.56,58.43 9.72,57.36 12.37,56.15 15.48,54.76 19.02,53.10 23.04,51.18 27.58,49.15 32.76,47.13 38.69,45.01 45.58,42.47 53.56,39.48 62.39,36.24 71.89,32.92 81.93,29.61 92.35,26.30 103.17,23.01 114.29,19.86 125.42,16.90 136.23,14.09 146.48,11.46 156.10,8.97 165.09,6.79 173.07,5.04 179.58,3.63 184.76,2.57 189.03,1.60 192.80,0.64 196.40,-0.35 198.66,-1.00 199.24,-1.11 199.51,-1.10 199.77,-1.02 200.00,-0.89 200.19,-0.70 200.34,-0.47 200.42,-0.22 200.44,0.05 200.40,0.31 200.29,0.56 200.13,0.77 199.92,0.94 199.68,1.06 Z" fill="#000000" opacity="1" pointer-events="all"/></g><g id="113140f7-abb9-40a4-2fbc-ed04e8db0ede_svg" class="tl-centered-g" transform="translate(437.34, 1260.66) rotate(0.00, 20.66, 11.66)"><path d="M1.10,0.00 Q1.10,1.79 1.11,2.81 T1.12,4.83 1.21,6.71 1.45,8.47 1.87,10.87 2.52,13.96 3.01,16.44 3.27,18.63 4.24,20.67 6.06,21.48 9.00,21.57 13.65,21.29 19.31,20.64 24.83,19.98 27.57,19.71 27.92,19.79 28.23,19.97 28.46,20.25 28.60,20.58 28.62,20.94 28.52,21.29 28.32,21.59 28.03,21.81 27.69,21.92 27.33,21.92 26.98,21.81 26.70,21.59 26.49,21.29 26.40,20.94 26.42,20.58 26.55,20.25 26.79,19.97 27.10,19.78 27.45,19.71 27.81,19.75 28.13,19.90 28.40,20.15 28.56,20.47 28.62,20.82 28.56,21.18 28.39,21.50 28.13,21.74 27.80,21.90 27.63,21.94 25.09,22.21 19.56,22.85 13.76,23.49 8.87,23.73 5.64,23.56 3.29,22.78 1.66,21.16 1.09,18.89 0.68,16.06 0.20,13.69 -0.32,11.30 -0.78,8.76 -1.03,6.81 -1.12,4.83 -1.11,2.81 -1.10,0.90 -1.08,-0.13 -1.02,-0.39 -0.90,-0.62 -0.72,-0.82 -0.51,-0.97 -0.26,-1.06 0.00,-1.09 0.26,-1.06 0.51,-0.97 0.72,-0.82 0.90,-0.62 1.02,-0.39 1.08,-0.13 Z" fill="#000000" opacity="1" pointer-events="all"/></g><g id="67b47c4e-6f38-4269-1e7a-9b7381a9f459_svg" class="tl-centered-g" transform="translate(443.34, 1299.99) rotate(0.00, 221.33, 3.67)"><path d="M442.88,1.08 Q441.98,1.25 440.86,1.36 T438.26,1.54 435.23,1.63 430.33,1.77 421.19,1.97 407.42,2.20 389.11,2.54 367.48,3.07 344.94,3.63 323.17,4.13 302.97,4.76 283.72,5.58 264.53,6.36 245.37,6.94 226.44,7.35 208.12,7.66 190.96,7.88 175.10,8.05 160.35,7.90 146.50,7.34 133.42,6.57 121.18,5.83 109.83,5.29 99.20,4.89 89.28,4.60 80.25,4.48 71.95,4.57 63.92,4.82 56.08,5.18 48.81,5.53 42.50,5.79 37.26,5.98 32.80,6.12 28.73,6.22 25.04,6.29 21.98,6.34 19.57,6.38 17.53,6.41 15.46,6.52 13.28,6.77 11.29,7.04 8.97,7.30 6.50,7.50 3.58,7.64 1.55,7.68 1.22,7.59 0.94,7.39 0.74,7.11 0.63,6.79 0.64,6.44 0.75,6.12 0.97,5.85 1.25,5.66 1.59,5.57 1.93,5.60 2.25,5.73 2.50,5.96 2.68,6.26 2.74,6.59 2.70,6.93 2.55,7.24 2.31,7.49 2.01,7.64 1.67,7.69 1.33,7.63 1.03,7.47 0.80,7.21 0.66,6.90 0.63,6.56 0.70,6.22 0.89,5.93 1.15,5.71 1.47,5.59 1.64,5.56 3.46,5.48 6.32,5.31 8.72,5.06 10.98,4.78 13.01,4.49 15.35,4.23 17.50,4.11 19.53,4.08 21.94,4.04 25.00,3.99 28.68,3.92 32.73,3.82 37.18,3.68 42.41,3.49 48.70,3.23 55.97,2.88 63.85,2.52 71.93,2.27 80.27,2.18 89.35,2.31 99.28,2.60 109.94,2.99 121.32,3.53 133.55,4.27 146.59,5.04 160.37,5.60 175.08,5.75 190.93,5.58 208.08,5.36 226.39,5.06 245.31,4.64 264.43,4.07 283.62,3.29 302.90,2.47 323.12,1.84 344.89,1.35 367.43,0.79 389.07,0.28 407.39,-0.05 421.14,-0.26 430.28,-0.43 435.19,-0.53 438.13,-0.60 440.55,-0.77 442.00,-0.98 442.58,-1.09 442.84,-1.08 443.09,-1.01 443.32,-0.87 443.51,-0.69 443.65,-0.47 443.73,-0.22 443.75,0.05 443.71,0.31 443.61,0.55 443.45,0.76 443.24,0.93 443.00,1.04 Z" fill="#000000" opacity="1" pointer-events="all"/></g><g id="56add8a3-086f-478c-1a37-8e4ba1d83875_svg" class="tl-centered-g" transform="translate(440.67, 1295.33) rotate(0.00, 7.67, 9.33)"><path d="M12.92,1.02 Q12.21,1.19 11.19,1.73 T9.26,2.81 7.08,4.25 5.17,5.86 3.82,7.18 3.85,8.97 5.40,10.79 7.08,12.11 8.75,13.34 11.71,15.14 14.00,16.48 14.21,16.76 14.32,17.09 14.32,17.44 14.21,17.76 14.00,18.04 13.71,18.24 13.38,18.33 13.03,18.31 12.71,18.18 12.45,17.96 12.27,17.66 12.19,17.33 12.23,16.98 12.37,16.67 12.61,16.41 12.92,16.25 13.26,16.19 13.60,16.25 13.91,16.41 14.15,16.66 14.29,16.98 14.33,17.32 14.26,17.66 14.08,17.96 13.82,18.18 13.49,18.31 13.15,18.33 12.81,18.24 12.65,18.17 10.46,16.93 7.43,15.09 5.73,13.78 3.49,11.84 1.25,9.88 0.76,8.10 1.77,6.37 3.00,5.03 4.70,3.48 7.13,1.68 9.25,0.39 10.87,-0.42 12.06,-0.93 12.54,-1.04 12.80,-1.04 13.04,-0.98 13.26,-0.86 13.45,-0.70 13.60,-0.49 13.69,-0.25 13.72,-0.00 13.69,0.25 13.60,0.49 13.45,0.69 13.27,0.86 13.04,0.98 Z" fill="#000000" opacity="1" pointer-events="all"/></g><g text-align="left" text-anchor="start" fill="#000000" transform="translate(486.67, 1225.17) rotate(0.00, 36.50, 12.50)"><text y="14" letter-spacing="0" font-size="28px" font-family="&quot;Amatic SC&quot;, cursive" text-align="start" alignment-baseline="central" transform="scale(0.5613157894736823)">单个实例</text></g><g text-align="left" text-anchor="start" fill="#000000" transform="translate(682.84, 1284.50) rotate(0.00, 36.50, 12.50)"><text y="14" letter-spacing="0" font-size="28px" font-family="&quot;Amatic SC&quot;, cursive" text-align="start" alignment-baseline="central" transform="scale(0.5613157894736823)">单个实例</text></g><g id="0866b2d7-26ad-4b80-2022-10a06dbd6508_svg" class="tl-centered-g" transform="translate(697.34, 1022.66) rotate(0.00, 98.67, 5.00)"><path d="M0.00,8.87 Q2.69,8.86 4.93,8.86 T10.15,8.86 16.47,8.86 23.79,8.85 32.36,8.85 42.04,8.85 52.16,8.85 61.98,8.85 71.40,8.85 80.79,8.85 90.69,8.67 101.13,8.09 111.79,7.05 122.46,5.83 132.71,4.76 141.92,3.89 149.36,3.25 154.98,2.79 159.27,2.45 162.73,2.11 166.09,1.77 169.75,1.52 173.56,1.25 177.05,0.97 179.89,0.75 182.24,0.60 184.36,0.40 186.27,0.17 188.51,-0.03 192.24,-0.32 194.78,-0.50 195.13,-0.46 195.44,-0.32 195.69,-0.08 195.86,0.22 195.92,0.56 195.87,0.90 195.71,1.21 195.46,1.45 195.15,1.60 194.80,1.64 194.46,1.57 194.16,1.40 193.94,1.13 193.81,0.81 193.78,0.47 193.87,0.13 194.06,-0.16 194.34,-0.37 194.67,-0.48 195.01,-0.49 195.34,-0.38 195.62,-0.17 195.82,0.11 195.91,0.45 195.90,0.79 195.77,1.12 195.55,1.38 195.26,1.56 195.09,1.63 192.58,1.85 188.73,2.21 186.54,2.45 184.58,2.69 182.39,2.90 180.06,3.05 177.24,3.26 173.72,3.55 169.90,3.82 166.32,4.06 162.96,4.40 159.45,4.74 155.17,5.08 149.56,5.54 142.13,6.18 132.95,7.05 122.72,8.12 112.01,9.34 101.25,10.39 90.73,10.97 80.79,11.15 71.40,11.15 61.98,11.15 52.16,11.15 42.04,11.15 32.36,11.15 23.79,11.15 16.47,11.14 10.15,11.14 4.93,11.14 1.35,11.13 -0.14,11.11 -0.40,11.05 -0.64,10.92 -0.84,10.74 -0.99,10.52 -1.09,10.27 -1.12,10.00 -1.09,9.73 -0.99,9.48 -0.84,9.26 -0.64,9.08 -0.40,8.95 -0.14,8.89 Z" fill="#000000" opacity="1" pointer-events="all"/></g><g id="5562f266-990e-4fc9-3c28-87a4f772de51_svg" class="tl-centered-g" transform="translate(878.67, 1017.99) rotate(0.00, 8.00, 6.67)"><path d="M0.00,-1.05 Q0.90,-1.04 2.49,-0.84 T5.31,-0.14 7.60,0.76 9.56,1.43 11.39,1.95 13.38,2.67 15.31,4.15 16.11,6.09 15.47,7.77 14.31,9.25 12.42,11.16 11.01,12.43 10.72,12.56 10.41,12.60 10.11,12.53 9.84,12.37 9.63,12.13 9.52,11.84 9.50,11.53 9.58,11.23 9.76,10.97 10.00,10.78 10.30,10.68 10.61,10.68 10.91,10.77 11.16,10.96 11.34,11.22 11.42,11.52 11.40,11.83 11.29,12.12 11.09,12.36 10.82,12.53 10.52,12.59 10.21,12.56 9.92,12.43 9.69,12.22 9.55,11.94 9.49,11.63 9.54,11.32 9.69,11.05 9.78,10.92 11.55,9.16 13.56,6.22 12.76,4.59 10.82,3.91 8.92,3.38 6.81,2.67 4.63,1.80 2.22,1.20 0.45,1.04 -0.13,1.03 -0.37,0.97 -0.59,0.86 -0.78,0.69 -0.92,0.48 -1.01,0.25 -1.04,-0.00 -1.01,-0.25 -0.92,-0.48 -0.78,-0.69 -0.59,-0.86 -0.37,-0.97 -0.13,-1.03 Z" fill="#000000" opacity="1" pointer-events="all"/></g><g text-align="left" text-anchor="start" fill="rgba(0, 0, 0, .2)" transform="translate(731.6700000000001, 1328.34)"><text y="5" letter-spacing="0" font-size="10px" font-family="&quot;Amatic SC&quot;, cursive" text-align="start" alignment-baseline="central">okso.app</text></g></svg>